<?xml version="1.0" standalone="no"?>
<!DOCTYPE svg PUBLIC "-//W3C//DTD SVG 1.1//EN" "http://www.w3.org/Graphics/SVG/1.1/DTD/svg11.dtd" >
<svg xmlns="http://www.w3.org/2000/svg">
<metadata>Generated by IcoMoon</metadata>
<defs>
<font id="jd" horiz-adv-x="512">
<font-face units-per-em="512" ascent="480" descent="-32" />
<missing-glyph horiz-adv-x="512" />
<glyph unicode="&#x20;" d="" horiz-adv-x="256" />
<glyph unicode="&#xe600;" d="M367.104 161.013h118.032c0.912 8.192 1.28 16.544 1.28 25.104 0 40.112-10.768 77.728-29.568 110.128 19.44 51.648 18.752 95.488-7.28 121.696-24.752 24.64-91.152 20.64-166.208-12.592-5.552 0.416-11.152 0.64-16.816 0.64-103.024 0-189.456-70.896-213.36-166.432 32.32 41.376 66.32 71.376 111.744 93.216-4.128-3.872-28.224-27.824-32.288-31.888-119.776-119.744-157.552-276.16-116.896-316.8 30.896-30.88 86.88-25.664 151.184 5.824 29.904-15.232 63.744-23.808 99.616-23.808 96.56 0 178.4 62.16 208.048 148.72h-118.928c-16.368-30.192-48.368-50.736-85.104-50.736s-68.736 20.544-85.104 50.736c-7.28 13.632-11.456 29.28-11.456 45.824v0.368h193.136zM174.144 219.029c2.736 48.56 43.104 87.296 92.384 87.296s89.664-38.736 92.384-87.296h-184.768zM448.48 393.525c16.768-16.944 16.336-48.112 2-87.008-24.56 37.456-60.256 66.976-102.4 83.824 45.056 19.312 81.696 21.872 100.384 3.184zM46.736-8.203c-21.392 21.392-14.944 66.304 12.608 120.416 17.152-48.128 50.576-88.544 93.664-114.576-47.712-21.664-86.768-25.344-106.288-5.84z" />
<glyph unicode="&#xe601;" d="M511.264 308.357l-5.936-38.032c0 0-8.48 70.432-18.864 96.752-15.92 40.336-23.008 40.016-23.056 39.968 10.672-27.104 8.736-41.664 8.736-41.664s-18.896 51.504-68.864 67.888c-55.344 18.144-85.28 13.184-88.752 12.24-0.528 0-1.024 0-1.52 0 0.416-0.032 0.8-0.080 1.216-0.112-0.016-0.016-0.048-0.016-0.048-0.032 0.224-0.272 61.152-10.656 71.952-25.504 0 0-25.872 0-51.632-7.424-1.168-0.336 94.768-11.984 114.368-107.84 0 0-10.512 21.936-23.52 25.664 8.56-26.016 6.352-75.392-1.792-99.92-1.056-3.152-2.128 13.648-18.16 20.88 5.136-36.816-0.304-95.232-25.856-111.312-1.984-1.248 16.016 57.648 3.616 34.88-71.36-109.408-155.696-50.48-193.632-24.56 19.44-4.224 56.32 0.656 72.656 12.8 0.016 0.016 0.032 0.032 0.064 0.048 17.728 12.128 28.24 20.976 37.664 18.88 9.44-2.112 15.712 7.36 8.384 15.76-7.344 8.416-25.152 19.984-49.264 13.68-17.008-4.448-38.064-23.264-70.224-4.224-24.688 14.624-27.008 26.768-27.232 35.184 0.608 2.976 1.376 5.776 2.288 8.32 2.848 7.936 11.456 10.336 16.24 12.224 8.128-1.392 15.136-3.936 22.48-7.696 0.096 2.448 0.128 5.696-0.016 9.376 0.704 1.408 0.272 5.632-0.864 10.784-0.656 5.152-1.712 10.48-3.376 15.344 0 0 0.016 0 0.016 0 0.032 0.016 0.048 0.016 0.080 0.032s0.080 0.064 0.112 0.096c0 0.016 0.016 0.016 0.016 0.032 0.048 0.064 0.080 0.128 0.096 0.24 0.512 2.304 6.016 6.768 12.864 11.552 6.128 4.288 13.344 8.848 19.040 12.384 5.024 3.12 8.864 5.44 9.68 6.048 0.304 0.24 0.672 0.512 1.088 0.816 0.080 0.064 0.144 0.112 0.224 0.176 0.048 0.032 0.096 0.080 0.144 0.112 2.704 2.16 6.736 6.224 7.584 14.784 0 0.016 0 0.032 0 0.064 0.032 0.256 0.048 0.512 0.064 0.768 0.016 0.176 0.032 0.368 0.032 0.544 0 0.144 0.016 0.288 0.016 0.432 0.016 0.336 0.032 0.688 0.032 1.040 0 0.016 0 0.032 0 0.064 0.016 0.832 0 1.696-0.048 2.608-0.032 0.512-0.064 0.96-0.144 1.376 0 0.016-0.016 0.048-0.016 0.064-0.016 0.048-0.016 0.080-0.032 0.128-0.016 0.080-0.032 0.144-0.064 0.208 0 0.016 0 0.016-0.016 0.016-0.032 0.080-0.064 0.16-0.080 0.224 0 0 0 0 0 0.016-0.88 2.048-4.16 2.832-17.728 3.056-0.016 0-0.032 0-0.032 0v0c-5.536 0.096-12.768 0.096-22.256 0.064-16.624-0.064-25.808 16.256-28.752 22.56 4.016 22.224 15.632 38.064 34.72 48.816 0.368 0.208 0.288 0.368-0.144 0.496 3.728 2.256-45.12 0.064-67.6-28.512-19.952 4.96-37.328 4.624-52.304 1.104-2.88 0.080-6.464 0.432-10.72 1.328-9.968 9.024-24.224 25.696-24.992 45.6 0 0-0.048-0.032-0.128-0.096-0.016 0.192-0.032 0.384-0.032 0.576 0 0-30.352-23.328-25.808-86.944-0.016-1.024-0.032-2-0.064-2.944-8.224-11.136-12.288-20.512-12.592-22.576-7.28-14.816-14.672-37.12-20.672-70.992 0 0 4.208 13.328 12.64 28.432-6.208-19.008-11.088-48.576-8.224-92.928 0 0 0.752 9.84 3.44 24 2.096-27.504 11.264-61.456 34.432-101.392 44.48-76.656 112.832-115.376 188.4-121.312 13.424-1.104 27.024-1.136 40.704-0.096 1.264 0.096 2.512 0.176 3.776 0.288 15.488 1.088 31.072 3.424 46.624 7.184 212.592 51.392 189.472 308.096 189.472 308.096z" />
<glyph unicode="&#xe602;" d="M129.136 252.165l-73.264 126.896c46.912 58.736 119.12 96.368 200.128 96.368 93.712 0 175.648-50.368 220.272-125.504h-208.88c-3.76 0.32-7.552 0.496-11.376 0.496-60.944 0-112.288-41.824-126.864-98.272zM347.648 312.933h146.736c11.376-28.96 17.616-60.496 17.616-93.504 0-140.416-113.056-254.4-253.088-255.968l104.704 181.344c14.736 21.184 23.392 46.912 23.392 74.624 0 36.592-15.088 69.712-39.344 93.504zM163.008 219.429c0 51.28 41.728 93.008 93.008 93.008s93.008-41.728 93.008-93.008c0-51.28-41.728-93.008-93.008-93.008s-93.008 41.728-93.008 93.008zM291.088 93.205l-73.296-126.944c-123.264 18.448-217.808 124.752-217.808 253.168 0 45.616 11.936 88.416 32.848 125.52l104.512-181.024c20.928-44.56 66.24-75.488 118.64-75.488 12.144 0 23.92 1.664 35.088 4.784z" />
<glyph unicode="&#xe603;" d="M256 465.221c-135.52 0-245.76-110.288-245.76-245.792 0-135.52 110.24-245.792 245.76-245.792s245.76 110.256 245.76 245.792c0 135.504-110.24 245.792-245.76 245.792zM465.616 219.429c0-47.952-16.288-92.192-43.424-127.52-7.68 6.016-15.824 22.224-8.144 39.008 7.728 16.896 9.76 56.016 7.984 71.216-1.696 15.2-9.6 51.872-31.104 52.224-21.424 0.336-36.144 7.392-48.896 32.848-26.448 52.912 49.632 63.104 23.2 92.416-7.392 8.224-45.648-33.888-51.248 22.224-0.384 4.016 3.456 10.032 8.576 16.256 83.040-27.904 143.056-106.4 143.056-198.688zM227.2 426.949c-4.992-9.728-18.224-13.728-26.288-21.072-17.488-15.824-25.008-13.648-34.464-28.848-9.472-15.2-40.096-37.088-40.096-48.096 0-10.976 15.456-23.984 23.2-21.456 7.728 2.56 28.112 2.4 40.096-1.792 12-4.256 100.224-8.48 72.096-83.040-8.912-23.712-47.92-19.712-58.32-58.976-1.568-5.76-6.944-30.368-7.328-38.4-0.608-12.448 8.8-59.344-3.2-59.344-12.064 0-44.464 41.952-44.464 49.568s-8.416 34.272-8.416 57.088-38.832 22.448-38.832 52.784c0 27.392 21.072 41.008 16.336 54.096-4.656 13.056-41.648 13.52-57.056 15.104 26.928 69.936 90.336 121.856 166.752 132.4zM190.080 20.517c12.592 6.624 13.872 15.232 25.296 15.696 13.056 0.56 23.68 5.088 38.368 8.32 13.088 2.848 36.432 16.096 57.040 17.792 17.328 1.44 51.584-0.896 60.8-17.632-33.184-22.016-72.912-34.864-115.584-34.864-23.040 0-45.184 3.792-65.92 10.704z" />
<glyph unicode="&#xe604;" d="M255.024 475.429c-139.856 0-240.368-101.456-240.368-253.616 0-135.408 97.744-258.384 240.4-258.384 144.032 0 242.304 122.944 242.304 258.384 0 153.376-103.728 253.616-242.336 253.616zM344.176 226.165c-0.032-84.672-4.544-205.248-89.136-205.248v-0.016c-83.392 0-86.72 120.64-86.72 205.152 0 99.184 9.28 194.288 86.72 194.288s89.136-96.288 89.136-194.176z" />
<glyph unicode="&#xe605;" d="M256 443.429c-12.032 0-23.856-0.896-35.408-2.608-0.144 0.384-0.32 0.768-0.496 1.152 6.416 5.008 9.776 11.92 8.32 18.784-1.872 8.784-11.2 14.688-23.216 14.688-2.592 0-5.232-0.288-7.84-0.832-15.088-3.2-25.072-14.304-22.736-25.28 1.424-6.672 7.152-11.664 15.088-13.696-0.016-0.48-0.016-0.976 0.016-1.472-100.304-28.768-173.712-121.168-173.712-230.72 0-132.544 107.456-240 240-240s240 107.456 240 240c0 132.544-107.456 240-240 240zM182.448 450.981c-1.36 6.368 6.24 13.6 16.576 15.792 2.064 0.432 4.144 0.656 6.176 0.656 8.016 0 14.352-3.44 15.392-8.352 0.8-3.76-1.536-7.808-5.696-10.944-3.52 2.48-8.016 3.568-12.544 2.592-4.528-0.96-8.176-3.76-10.384-7.424-5.088 1.232-8.752 4.048-9.52 7.68zM384.688 74.741c-21.984-21.984-48.608-37.632-77.648-46.080l-21.2 34.384-5.376-39.984c-8.048-1.072-16.208-1.632-24.464-1.632-48.608 0-94.32 18.928-128.688 53.312-21.984 21.984-37.632 48.608-46.080 77.648l34.384 21.2-39.984 5.376c-1.072 8.048-1.632 16.208-1.632 24.464 0 48.608 18.928 94.32 53.312 128.688 21.984 21.984 48.608 37.632 77.648 46.080l21.2-34.384 5.376 39.984c8.048 1.072 16.208 1.632 24.464 1.632 48.608 0 94.32-18.928 128.688-53.312 21.984-21.984 37.632-48.608 46.080-77.648l-34.384-21.2 39.984-5.376c1.072-8.048 1.632-16.208 1.632-24.464 0-48.608-18.928-94.32-53.312-128.688zM380.448 327.877l-98.496-74.848c-7.328 3.824-15.44 6.032-23.712 6.368l-25.536 53.584-1.536-59.328c-6.64-3.264-12.544-7.824-17.44-13.472l-31.552 11.184 23.040-24.272c-3.168-6.752-4.928-14.016-5.216-21.408l-53.584-25.536 59.376-1.536c0.192-0.384 0.384-0.768 0.592-1.136l-74.848-98.496 98.496 74.848c7.328-3.824 15.44-6.032 23.712-6.368l25.536-53.584 1.536 59.328c6.64 3.264 12.56 7.824 17.44 13.472l31.552-11.184-23.040 24.272c3.168 6.752 4.928 14.016 5.216 21.408l53.584 25.536-59.36 1.536c-0.192 0.384-0.384 0.768-0.592 1.136l74.848 98.496zM256.048 253.157v0zM246.016 250.373c3.36 0.72 6.72 1.056 10.032 1.056 2.080 0 4.128-0.128 6.144-0.4l0.048-0.016v0.016c4.368-0.576 8.592-1.744 12.56-3.456l-35.776-27.184-27.184-35.776c-1.184 2.8-2.128 5.744-2.784 8.832-5.52 25.936 11.040 51.424 36.976 56.928zM281.056 162.485v0 0c-4.528-2.768-9.584-4.848-15.072-6.016-3.36-0.72-6.72-1.056-10.032-1.056-2.080 0-4.128 0.144-6.16 0.4h-0.032c-4.368 0.576-8.592 1.744-12.56 3.44l35.776 27.184 27.184 35.776c1.184-2.8 2.128-5.744 2.784-8.832 4.352-20.448-5.024-40.608-21.888-50.928z" />
<glyph unicode="&#xe606;" d="M208 411.429h48v-32h-48zM160 379.429h48v-32h-48zM208 347.429h48v-32h-48zM160 315.429h48v-32h-48zM208 283.429h48v-32h-48zM160 251.429h48v-32h-48zM208 219.429v-32h-48v-112c0-8.832 7.168-16 16-16h64c8.832 0 16 7.168 16 16v144h-48zM240 91.429h-64v32h64v-32zM451.712 375.717l-71.44 71.424c-15.552 15.552-46.288 28.288-68.288 28.288h-240c-22 0-40-18-40-40v-432c0-22 18-40 40-40h368c22 0 40 18 40 40v304c0 22-12.736 52.736-28.288 68.288zM429.088 353.093c1.568-1.568 3.12-3.488 4.64-5.664h-81.728v81.728c2.176-1.52 4.096-3.072 5.664-4.64l71.44-71.424zM448 3.429c0-4.336-3.664-8-8-8h-368c-4.336 0-8 3.664-8 8v432c0 4.336 3.664 8 8 8h240c2.416 0 5.12-0.304 8-0.848v-127.152h127.152c0.544-2.88 0.848-5.584 0.848-8v-304z" />
<glyph unicode="&#xe607;" d="M224 187.429l-32 32-96-96 96-96 32 32-64 64zM288 59.429l32-32 96 96-96 96-32-32 64-64zM451.712 375.717l-71.44 71.424c-15.552 15.552-46.288 28.288-68.288 28.288h-240c-22 0-40-18-40-40v-432c0-22 18-40 40-40h368c22 0 40 18 40 40v304c0 22-12.736 52.736-28.288 68.288zM429.088 353.093c1.568-1.568 3.12-3.488 4.64-5.664h-81.728v81.728c2.176-1.52 4.096-3.072 5.664-4.64l71.44-71.424zM448 3.429c0-4.336-3.664-8-8-8h-368c-4.336 0-8 3.664-8 8v432c0 4.336 3.664 8 8 8h240c2.416 0 5.12-0.304 8-0.848v-127.152h127.152c0.544-2.88 0.848-5.584 0.848-8v-304z" />
<glyph unicode="&#xe608;" d="M319.888 237.477h22.112l-25.504-113.088-33.168 159.008h-53.28l-38.56-159.008-28.912 159.008h-55.696l56.544-255.936h54.416l38.144 151.36 34.128-151.36h50.176l64.816 255.936h-85.216zM451.712 375.717l-71.44 71.424c-15.552 15.552-46.288 28.288-68.288 28.288h-240c-22 0-40-18-40-40v-432c0-22 18-40 40-40h368c22 0 40 18 40 40v304c0 22-12.736 52.736-28.288 68.288zM429.088 353.093c1.568-1.568 3.12-3.488 4.64-5.664h-81.728v81.728c2.176-1.52 4.096-3.072 5.664-4.64l71.44-71.424zM448 3.429c0-4.336-3.664-8-8-8h-368c-4.336 0-8 3.664-8 8v432c0 4.336 3.664 8 8 8h240c2.416 0 5.12-0.304 8-0.848v-127.152h127.152c0.544-2.88 0.848-5.584 0.848-8v-304z" />
<glyph unicode="&#xe609;" d="M96 219.429h96v-32h-96v32zM96 155.429h96v-32h-96v32zM96 91.429h96v-32h-96v32zM451.712 375.717l-71.44 71.424c-15.552 15.552-46.288 28.288-68.288 28.288h-240c-22 0-40-18-40-40v-432c0-22 18-40 40-40h368c22 0 40 18 40 40v304c0 22-12.736 52.736-28.288 68.288zM429.088 353.093c1.568-1.568 3.12-3.488 4.64-5.664h-81.728v81.728c2.176-1.52 4.096-3.072 5.664-4.64l71.44-71.424zM448 3.429c0-4.336-3.664-8-8-8h-368c-4.336 0-8 3.664-8 8v432c0 4.336 3.664 8 8 8h240c2.416 0 5.12-0.304 8-0.848v-127.152h127.152c0.544-2.88 0.848-5.584 0.848-8v-304zM288 123.429h94.4c-7.408-36.512-39.696-64-78.4-64-44.176 0-80 35.824-80 80 0 38.704 27.488 70.976 64 78.4v-94.4zM336 251.429c44.176 0 80-35.824 80-80 0-5.472-0.56-10.832-1.6-16h-94.4v94.4c5.168 1.056 10.528 1.6 16 1.6z" />
<glyph unicode="&#xe60a;" d="M421.008 180.693c-6.832 6.72-21.952 10.288-44.992 10.592-15.584 0.176-34.352-1.2-54.080-3.968-8.832 5.104-17.952 10.64-25.088 17.328-19.232 17.952-35.28 42.88-45.296 70.304 0.656 2.56 1.2 4.816 1.728 7.104 0 0 10.832 61.536 7.968 82.336-0.4 2.848-0.64 3.68-1.408 5.904l-0.944 2.416c-2.944 6.8-8.72 14-17.776 13.6l-5.456 0.176c-10.096 0-18.336-5.168-20.496-12.88-6.576-24.224 0.208-60.448 12.496-107.376l-3.152-7.648c-8.8-21.44-19.808-43.024-29.536-62.080l-1.264-2.48c-10.224-20.016-19.52-37.008-27.92-51.408l-8.688-4.592c-0.64-0.336-15.52-8.208-19.008-10.32-29.632-17.696-49.264-37.776-52.512-53.712-1.040-5.088-0.272-11.6 5.008-14.608l8.4-4.224c3.648-1.824 7.488-2.752 11.424-2.752 21.104 0 45.6 26.288 79.344 85.184 38.96 12.688 83.328 23.232 122.208 29.040 29.632-16.688 66.064-28.272 89.072-28.272 4.080 0 7.6 0.384 10.464 1.152 4.416 1.168 8.128 3.68 10.4 7.104 4.464 6.72 5.36 15.968 4.16 25.44-0.368 2.816-2.608 6.288-5.040 8.656zM105.824 68.405c3.84 10.528 19.088 31.328 41.6 49.776 1.408 1.152 4.896 4.416 8.096 7.456-23.552-37.568-39.328-52.528-49.696-57.232zM239.216 375.589c6.784 0 10.64-17.104 10.96-33.12s-3.424-27.28-8.080-35.6c-3.856 12.32-5.712 31.744-5.712 44.448 0 0-0.288 24.272 2.832 24.272zM199.424 156.677c4.72 8.464 9.648 17.376 14.672 26.832 12.24 23.152 19.984 41.28 25.744 56.176 11.456-20.848 25.728-38.56 42.496-52.752 2.096-1.776 4.304-3.552 6.64-5.328-34.112-6.752-63.584-14.96-89.536-24.928zM414.448 158.597c-2.080-1.296-8.032-2.048-11.856-2.048-12.352 0-27.632 5.648-49.056 14.832 8.24 0.608 15.776 0.912 22.544 0.912 12.384 0 16.064 0.048 28.176-3.040s12.272-9.36 10.192-10.672zM451.712 375.717l-71.44 71.424c-15.552 15.552-46.288 28.288-68.288 28.288h-240c-22 0-40-18-40-40v-432c0-22 18-40 40-40h368c22 0 40 18 40 40v304c0 22-12.736 52.736-28.288 68.288zM429.088 353.093c1.568-1.568 3.12-3.488 4.64-5.664h-81.728v81.728c2.176-1.52 4.096-3.072 5.664-4.64l71.44-71.424zM448 3.429c0-4.336-3.664-8-8-8h-368c-4.336 0-8 3.664-8 8v432c0 4.336 3.664 8 8 8h240c2.416 0 5.12-0.304 8-0.848v-127.152h127.152c0.544-2.88 0.848-5.584 0.848-8v-304z" />
<glyph unicode="&#xe60b;" d="M345.104 239.589c-30.336 14.32-68.992 17.216-97.424-3.024 34.576 3.296 72.48-2.416 97.552-28.56 24 27.536 62.064 32.704 96.48 29.872-28.736 19.072-66.608 16.512-96.608 1.712zM332.832 172.549c-34.192 0.784-67.216-11.584-95.552-30.048-53.584 22.8-121.376 18.56-167.008-19.488 13.168 0.464 26 3.728 39.024 5.392 47.584 4.736 98.288-7.072 134.256-39.904 14.88 21.776 35.824 39.12 59.824 49.968 31.536 15.264 67.072 16.848 101.408 17.264-20.848 14.32-47.312 16.976-71.968 16.832zM451.712 375.717l-71.44 71.424c-15.552 15.552-46.288 28.288-68.288 28.288h-240c-22 0-40-18-40-40v-432c0-22 18-40 40-40h368c22 0 40 18 40 40v304c0 22-12.736 52.736-28.288 68.288zM429.088 353.093c1.568-1.568 3.12-3.488 4.64-5.664h-81.728v81.728c2.176-1.52 4.096-3.072 5.664-4.64l71.44-71.424zM448 3.429c0-4.336-3.664-8-8-8h-368c-4.336 0-8 3.664-8 8v432c0 4.336 3.664 8 8 8h240c2.416 0 5.12-0.304 8-0.848v-127.152h127.152c0.544-2.88 0.848-5.584 0.848-8v-304z" />
<glyph unicode="&#xe60c;" d="M192 169.701v57.12c0 7.568 3.344 14.72 9.424 20.144s14.096 8.416 22.576 8.416v28.56c-35.2 0-64-25.696-64-57.104v-42.832c0-7.888-7.168-14.272-16-14.272h-16v-28.56h16c8.832 0 16-6.4 16-14.272v-42.832c0-31.408 28.8-57.104 64-57.104v28.56c-8.48 0-16.496 2.992-22.576 8.416s-9.424 12.576-9.424 20.144v57.12c0 7.888-7.168 14.272-16 14.272 8.832 0 16 6.4 16 14.272zM320 141.157v-57.12c0-7.568-3.344-14.72-9.424-20.144s-14.096-8.416-22.576-8.416v-28.56c35.2 0 64 25.696 64 57.104v42.832c0 7.888 7.168 14.272 16 14.272h16v28.56h-16c-8.832 0-16 6.4-16 14.272v42.832c0 31.408-28.8 57.104-64 57.104v-28.56c8.48 0 16.496-2.992 22.576-8.416s9.424-12.576 9.424-20.144v-57.12c0-7.888 7.168-14.272 16-14.272-8.832 0-16-6.4-16-14.272zM451.712 375.717l-71.44 71.424c-15.552 15.552-46.288 28.288-68.288 28.288h-240c-22 0-40-18-40-40v-432c0-22 18-40 40-40h368c22 0 40 18 40 40v304c0 22-12.736 52.736-28.288 68.288zM429.088 353.093c1.568-1.568 3.12-3.488 4.64-5.664h-81.728v81.728c2.176-1.52 4.096-3.072 5.664-4.64l71.44-71.424zM448 3.429c0-4.336-3.664-8-8-8h-368c-4.336 0-8 3.664-8 8v432c0 4.336 3.664 8 8 8h240c2.416 0 5.12-0.304 8-0.848v-127.152h127.152c0.544-2.88 0.848-5.584 0.848-8v-304z" />
<glyph unicode="&#xe60d;" d="M371.52 283.429h-67.648l-47.872-70.512-47.872 70.512h-67.648l81.088-121.232-91.488-134.768h131.12v45.792h-30.272l25.072 37.504 55.696-83.28h70.224l-91.488 134.768zM451.712 375.717l-71.44 71.424c-15.552 15.552-46.288 28.288-68.288 28.288h-240c-22 0-40-18-40-40v-432c0-22 18-40 40-40h368c22 0 40 18 40 40v304c0 22-12.736 52.736-28.288 68.288zM429.088 353.093c1.568-1.568 3.12-3.488 4.64-5.664h-81.728v81.728c2.176-1.52 4.096-3.072 5.664-4.64l71.44-71.424zM448 3.429c0-4.336-3.664-8-8-8h-368c-4.336 0-8 3.664-8 8v432c0 4.336 3.664 8 8 8h240c2.416 0 5.12-0.304 8-0.848v-127.152h127.152c0.544-2.88 0.848-5.584 0.848-8v-304z" />
<glyph unicode="&#xe60e;" d="M-2.25 25.741h150.646v150.646h-150.646v-150.646zM40.792 133.345h64.563v-64.563h-64.563v64.563zM-2.25 262.471h150.646v150.646h-150.646v-150.646zM212.958 25.741h301.292v150.646h-301.292v-150.646zM212.958 413.116v-150.646h301.292v150.646h-301.292zM471.208 305.512h-215.208v64.563h215.208v-64.563z" />
<glyph unicode="&#xe60f;" d="M477.68 222.373c0 7.904-2.736 14.576-8.208 20.032l-191.584 191.28c-5.76 5.744-12.8 8.48-21.136 8.192-8.336 0.288-15.376-2.448-21.136-8.192l-191.584-191.28c-5.456-5.44-8.192-12.128-8.208-20.032l0.368-12.32c1.808-9.328 10.896-16.48 21.76-16.48h33.104v-165.712c0-7.456 2.672-13.936 7.984-19.392s11.856-8.192 19.632-8.192h82.848v124.064c0 3.744 1.36 6.96 4.096 9.696s5.968 4.096 9.712 4.096h82.848c3.744 0 6.976-1.36 9.712-4.096s4.096-5.952 4.096-9.696v-124.064h82.848c7.776 0.016 14.32 2.736 19.632 8.192s7.984 11.92 7.984 19.392v165.712h33.168c10.864 0 19.952 7.152 21.76 16.48l0.336 12.32h-0.032z" />
<glyph unicode="&#xe610;" d="M483.728 45.989c-6.592 19.904-13.824 40.8-21.728 62.672s-15.136 47.040-21.728 75.488c-6.592 28.448-9.872 53.36-9.872 74.752 0 63.152-57.952 94.736-173.856 94.736s-173.84-31.584-173.84-94.736c0-21.376-3.28-46.288-9.872-74.752-6.592-28.448-13.824-53.616-21.728-75.488s-15.136-42.752-21.728-62.672c-6.592-19.904-9.872-33.152-9.872-39.728 0.016-10.864 10.64-18.608 31.856-23.2 21.232-4.592 52.752-7.392 94.576-8.384 14.816-0.336 51.696-0.496 110.624-0.496s95.824 0.16 110.624 0.496c41.808 0.976 73.328 3.776 94.576 8.384s31.856 12.352 31.856 23.2c0 6.576-3.28 19.808-9.872 39.728zM330.416 224.181l-58.128-43.92v-8.544h23.44c2.112 0 3.952-0.768 5.488-2.32 1.552-1.552 2.32-3.424 2.32-5.616s-0.768-4.032-2.32-5.488c-1.552-1.456-3.376-2.192-5.488-2.192h-23.44v-15.616h23.44c2.112 0 3.952-0.768 5.488-2.32 1.552-1.552 2.32-3.376 2.32-5.488s-0.768-3.952-2.32-5.488-3.376-2.32-5.488-2.32h-23.44v-31.232c0-4.4-1.552-8.096-4.64-11.104s-6.8-4.512-11.104-4.512c-4.32 0-7.984 1.504-10.992 4.512s-4.512 6.704-4.512 11.104v31.232h-23.44c-2.112 0-3.952 0.768-5.504 2.32s-2.32 3.376-2.32 5.488c0 2.112 0.768 3.936 2.32 5.488s3.376 2.32 5.504 2.32h23.44v15.616h-23.44c-2.112 0-3.952 0.736-5.504 2.192s-2.32 3.296-2.32 5.488c0 2.192 0.768 4.064 2.32 5.616s3.376 2.32 5.504 2.32h23.44v8.544l-58.368 43.92c-2.928 2.928-4.4 6.464-4.4 10.608s1.472 7.68 4.4 10.608c2.928 2.928 6.464 4.4 10.624 4.4s7.696-1.472 10.624-4.4l52.752-39.536 52.512 39.536c2.928 2.928 6.48 4.4 10.624 4.4s7.696-1.472 10.624-4.4h0.016c2.928-2.928 4.4-6.464 4.4-10.608s-1.472-7.68-4.4-10.608zM202.208 382.245c16.464 1.968 34.576 2.976 54.336 2.976s37.872-0.992 54.336-2.976c6.912 13.824 12.752 27.216 17.52 40.224 4.768 12.992 7.152 21.632 7.152 25.904 0 5.264-4.288 10.528-12.848 15.792-7.904-4.608-17.936-8.4-30.128-11.36s-24.192-4.432-36.048-4.432c-11.856 0-23.872 1.488-36.048 4.432-12.192 2.96-22.224 6.736-30.128 11.36-8.56-5.264-12.848-10.528-12.848-15.792 0-4.272 2.384-12.912 7.152-25.904s10.624-26.4 17.52-40.224z" />
<glyph unicode="&#xe611;" d="M288 123.429c-17.664 0-32 14.336-32 32v32c0 17.68 14.336 32 32 32h192v-96h-192zM312 194.101c-13.248 0-24-10.752-24-24 0-13.264 10.752-24 24-24 13.264 0 24 10.736 24 24 0 13.248-10.736 24-24 24zM240 187.429v-32c0-26.496 21.504-48 48-48h160v-64c0-26.496-21.488-48-48-48h-336c-26.496 0-48 21.504-48 48v304c0 26.512 21.504 48 48 48h154.112l-37.584-15.664h-124.512c-13.248 0-24-10.752-24-24 0-13.264 10.752-24 24-24h391.984v-96.336h-160c-26.496 0-48-21.488-48-48zM80.016 299.429h-32v-32h16v16h16v16zM80.016 251.429h-32v-32h16.656l-0.656 16 16-0.336v16.336zM80.016 203.429h-32v-32h16.336l-0.336 16h16v16zM80.016 155.429h-32v-32h16.336l-0.336 16 16-0.336v16.336zM80.016 107.429h-32v-32h16v16h16v16zM80.016 59.429h-32v-32h16.336l-0.336 15.664h16v16.336zM144.016 348.421l188 79.008 36-79.008h-224zM362.336 395.429h37.664c14.016 0 26.496-6.096 35.28-15.664h-65.296l-7.648 15.664z" />
<glyph unicode="&#xe612;" d="M460.8 424.229h-409.6c-28.16 0-51.2-23.040-51.2-51.2v-307.2c0-28.16 23.040-51.2 51.2-51.2h409.6c28.192 0 51.2 23.040 51.2 51.2v307.2c0 28.16-23.008 51.2-51.2 51.2zM460.8 65.829h-409.6v307.2h409.6v-307.2zM230.4 165.669h-128v-46.080h128v46.080zM230.4 242.469h-128v-46.080h128v46.080zM230.4 319.269h-128v-46.080h128v46.080zM407.040 155.429c0 0-43.52 11.36-43.52 33.744 0 21.296 28.192 30.256 28.192 73.776 0 35.328-10.752 56.32-46.112 56.32s-46.080-20.96-46.080-56.32c0-43.52 28.16-52.48 28.16-73.776 0-22.368-43.488-33.744-43.488-33.744-2.592 0-2.592-35.84-2.592-35.84h128c0 0 0 35.84-2.56 35.84z" />
<glyph unicode="&#xe613;" d="M495.104 128.709l-81.504 54.832h-50.256l87.040-66.768h-90.752c-2.608 0-4.944-1.328-6.144-3.408l-20.896-57.216h-153.184l-20.912 57.216c-1.152 2.080-3.536 3.408-6.144 3.408h-90.72l87.072 66.768h-50.272l-81.488-54.832c-12.128-7.248-19.376-23.968-16.128-37.088l14.368-78.688c3.248-13.152 17.696-23.936 32.032-23.936h417.616c14.384 0 28.8 10.784 32.048 23.936l14.368 78.688c3.296 13.152-3.968 29.856-16.096 37.088zM389.152 293.109h-84.512v131.072h-97.28v-131.072h-84.48l133.12-124.928 133.152 124.928z" />
<glyph unicode="&#xe614;" d="M256 424.181l-133.12-124.928h84.48v-131.072h97.28v131.072h84.512l-133.152 124.928zM495.104 128.709l-81.504 54.832h-50.256l87.040-66.768h-90.752c-2.608 0-4.944-1.328-6.144-3.408l-20.896-57.216h-153.184l-20.912 57.216c-1.152 2.080-3.536 3.408-6.144 3.408h-90.72l87.072 66.768h-50.272l-81.488-54.832c-12.128-7.248-19.376-23.968-16.128-37.088l14.368-78.688c3.248-13.152 17.696-23.936 32.032-23.936h417.616c14.384 0 28.8 10.784 32.048 23.936l14.368 78.688c3.296 13.152-3.968 29.856-16.096 37.088z" />
<glyph unicode="&#xe615;" d="M86.752 272.885l28.208-248.544c1.504-11.808 58.496-50.608 141.024-50.656 82.528 0.048 139.552 38.864 141.056 50.656l28.208 248.544c-43.104-24.112-107.552-35.536-169.264-35.536s-126.16 11.424-169.248 35.536zM337.072 426.485l-21.984 24.4c-8.48 12.064-17.696 14.304-35.632 14.304h-46.896c-17.92 0-27.136-2.256-35.632-14.304l-21.968-24.4c-65.792-11.488-113.504-41.984-113.504-64.464v-4.384c0-39.584 87.088-71.68 194.56-71.68s194.56 32.096 194.56 71.68v4.384c0 22.48-47.696 52.96-113.488 64.464zM308.96 369.477l-32.048 34.272h-41.824l-32.048-34.272h-43.52c0 0 47.664 56.832 54.048 64.544 4.864 5.888 9.856 8.144 16.304 8.144h52.304c6.448 0 11.424-2.256 16.304-8.144 6.352-7.712 54.048-64.544 54.048-64.544h-43.552z" />
<glyph unicode="&#xe616;" d="M256 440.164c-76.195 0-137.96-61.765-137.96-137.959 0-137.96 137.96-303.51 137.96-303.51s137.96 165.551 137.96 303.51c0 76.195-61.765 137.96-137.96 137.96zM256 219.429c-45.719 0-82.776 37.056-82.776 82.775s37.056 82.776 82.776 82.776 82.775-37.056 82.775-82.776-37.056-82.775-82.776-82.775z" />
<glyph unicode="&#xe617;" d="M256 440.164c-121.915 0-220.735-30.889-220.735-68.98v-41.388l165.551-165.551v-137.96c0-15.245 24.709-27.592 55.184-27.592s55.184 12.347 55.184 27.592v137.96l165.551 165.551v41.388c0 38.091-98.82 68.98-220.735 68.98zM75.964 380.317c10.319 5.891 24.819 11.478 41.939 16.169 37.911 10.374 86.956 16.1 138.111 16.1 51.142 0 100.186-5.712 138.111-16.1 17.12-4.691 31.62-10.278 41.94-16.169 6.815-3.877 10.485-7.16 12.195-9.133-1.711-1.959-5.394-5.242-12.195-9.133-10.319-5.891-24.833-11.478-41.94-16.168-37.911-10.375-86.956-16.1-138.111-16.1-51.142 0-100.186 5.712-138.111 16.1-17.12 4.69-31.62 10.278-41.94 16.169-6.815 3.891-10.485 7.16-12.195 9.133 1.711 1.959 5.394 5.243 12.195 9.133z" />
<glyph unicode="&#xe618;" d="M80-20.571v400l66.672 64h202.672l66.656-64v-400h-336zM96-4.571h304v368h-304v-368zM112 171.429h272v-160h-272v160zM208 107.429v-16h80v48h-16v-32h-48v32h-16v-32zM112 347.429h272v-160h-272v160zM208 267.429h80v48h-16v-32h-48v32h-16v-48z" />
<glyph unicode="&#xe619;" d="M275.984 329.338h-39.968v-39.967h39.968v39.967zM375.902 329.338h-39.968v-39.967h39.967v39.967zM136.099-10.383h219.82v39.967h-219.82v-39.967zM176.066 329.338h-39.968v-39.967h39.968v39.967zM16.197 449.24v-399.672h479.607v399.673h-479.607zM455.836 149.486h-399.673v259.787h399.673v-259.787zM275.984 249.404h-39.968v-39.967h39.968v39.967zM176.066 249.404h-39.968v-39.967h39.968v39.967zM375.902 249.404h-39.968v-39.967h39.967v39.967z" />
<glyph unicode="&#xe61a;" d="M16.544 269.17l230.858-286.53-92.581 286.531h-138.277zM179.909 269.17l81.76-287.117 70.353 287.117h-152.113zM274.11-17.36l222.243 286.531h-137.209l-85.034-286.531zM496.869 287.917l-66.632 113.93-66.666-113.93h133.297zM409.285 408.378h-133.297l66.632-117.841 66.666 117.841zM322.132 287.917l-66.632 113.93-66.649-113.93h133.28zM235.995 408.378h-133.28l66.648-117.841 66.632 117.841zM81.78 401.847l-66.632-113.93h133.28l-66.649 113.93z" />
<glyph unicode="&#xe61b;" d="M434.384 347.429c0 25.6-25.472 25.6-25.472 25.6h-305.824c0 0-25.472 0-25.472-25.6v-25.6h356.768v25.6zM357.92 424.229h-203.856c0 0-25.472 0-25.472-25.6h254.816c0 25.6-25.504 25.6-25.504 25.6zM485.328 321.829c-15.072 15.152-15.072 15.152-15.072 15.152v-40.752h-428.512v40.752c0 0 0 0-15.072-15.152s-25.888-19.232-19.792-51.232c6.016-31.872 35.28-206.72 39.6-230.368 4.784-25.952 31.152-25.6 31.152-25.6h356.768c0 0 26.368-0.352 31.152 25.6 4.352 23.648 33.584 198.496 39.632 230.368 6.064 32-4.736 36.064-19.84 51.232zM357.92 183.589c0 0 0-25.6-25.504-25.6h-152.864c-25.472 0-25.472 25.6-25.472 25.6v51.2h35.68v-40.96h132.432v40.96h35.744v-51.2z" />
<glyph unicode="&#xe61c;" d="M432 188.421v48h32v-48h-32zM432 299.429h32v-48h-32v48zM432 363.429h32v-48h-32v48zM384 11.429h-288c-17.664 0-32 14.336-32 32h8c13.248 0 24 10.752 24 24s-10.752 24-24 24h-8v16h8c13.248 0 24 10.752 24 24s-10.752 24-24 24h-8v16h8c13.248 0 24 10.752 24 24s-10.752 24-24 24h-8v16h8c13.248 0 24 10.752 24 24s-10.752 24-24 24h-8v16h8c13.248 0 24 10.752 24 24s-10.752 24-24 24h-8v48c0 17.664 14.336 32 32 32h288c11.808 0 22.016-6.464 27.568-16h-315.568c-8.848 0-16-7.152-16-16 0-8.832 7.152-16 16-16h320v-336c0-17.664-14.336-32-32-32zM248 322.437c-19.328 0-35.008-20.592-35.008-46s15.664-46 35.008-46 35.008 20.592 35.008 46-15.68 46-35.008 46zM303.84 208.421c-8.624 5.744-33.456 9.568-33.456 9.568s-16.096-17.2-22.928-17.2c-6.848 0-22.944 17.2-22.944 17.2s-24.832-3.808-33.44-9.568c-8.624-5.728-12.432-36.176-12.432-36.176h137.84c0.016 0.016-2.512 29.44-12.64 36.176zM80 323.429c0-4.416-3.584-8-8-8h-16c-4.416 0-8 3.584-8 8s3.584 8 8 8h16c4.416 0 8-3.584 8-8zM56 267.429h16c4.416 0 8-3.584 8-8s-3.584-8-8-8h-16c-4.416 0-8 3.584-8 8s3.584 8 8 8zM56 203.429h16c4.416 0 8-3.584 8-8s-3.584-8-8-8h-16c-4.416 0-8 3.584-8 8s3.584 8 8 8zM56 139.429h16c4.416 0 8-3.584 8-8s-3.584-8-8-8h-16c-4.416 0-8 3.584-8 8s3.584 8 8 8zM56 75.429h16c4.416 0 8-3.584 8-8s-3.584-8-8-8h-16c-4.416 0-8 3.584-8 8s3.584 8 8 8z" />
<glyph unicode="&#xe61d;" d="M450.912 52.373h-389.808c-7.552 0-14.080 2.752-19.568 8.272s-8.256 12.048-8.272 19.568v278.432c0 7.84 2.752 14.432 8.272 19.792s12.048 8.048 19.568 8.048h389.808c7.552 0 14.080-2.688 19.568-8.048s8.256-11.952 8.272-19.792v-278.432c0-7.552-2.752-14.080-8.272-19.568-5.52-5.504-12.048-8.256-19.568-8.272zM102.864 108.053h111.376c3.776 0 7.024 1.376 9.792 4.128 2.752 2.752 4.128 6.016 4.128 9.792s-1.376 7.024-4.128 9.792c-2.752 2.752-6.016 4.128-9.792 4.128h-111.376c-3.776 0-7.024-1.376-9.792-4.128-2.752-2.752-4.128-6.016-4.128-9.792s1.376-7.024 4.128-9.792c2.752-2.752 6.016-4.128 9.792-4.128zM242.080 247.269h-139.216c-3.776 0-7.024-1.376-9.792-4.128s-4.128-6.016-4.128-9.792 1.376-7.024 4.128-9.792c2.752-2.752 6.016-4.128 9.792-4.128h139.216c3.776 0 7.024 1.376 9.792 4.128s4.128 6.016 4.128 9.792-1.376 7.024-4.128 9.792-6.016 4.128-9.792 4.128zM242.080 191.589h-139.216c-3.776 0-7.024-1.376-9.792-4.128-2.752-2.752-4.128-6.016-4.128-9.792s1.376-7.024 4.128-9.792c2.752-2.752 6.016-4.128 9.792-4.128h139.216c3.776 0 7.024 1.376 9.792 4.128s4.128 6.016 4.128 9.792-1.376 7.024-4.128 9.792-6.016 4.128-9.792 4.128zM423.056 316.885c0 3.776-1.376 7.024-4.128 9.792s-6.016 4.128-9.792 4.128h-83.536c-3.776 0-7.024-1.376-9.792-4.128s-4.128-6.016-4.128-9.792v-83.536c0-3.776 1.376-7.024 4.128-9.792s6.016-4.128 9.792-4.128h83.536c3.776 0 7.024 1.376 9.792 4.128s4.128 6.016 4.128 9.792v83.536z" />
<glyph unicode="&#xe61e;" d="M460.8 424.229h-409.6c-28.16 0-51.2-23.040-51.2-51.2v-307.2c0-28.192 23.040-51.2 51.2-51.2h409.6c28.16 0 51.2 23.008 51.2 51.2v307.2c0 28.16-23.040 51.2-51.2 51.2zM117.76 376.357c10.624 0 19.2-8.352 19.2-18.656 0-10.336-8.576-18.688-19.2-18.688s-19.2 8.352-19.2 18.656c0 10.336 8.608 18.688 19.2 18.688zM47.36 357.669c0 10.32 8.576 18.656 19.2 18.656s19.2-8.32 19.2-18.656c0-10.336-8.576-18.688-19.2-18.688s-19.2 8.368-19.2 18.688zM461.312 65.829h-410.624v235.52h410.624v-235.52zM461.312 342.309h-307.712v30.72h307.712v-30.72z" />
<glyph unicode="&#xe61f;" d="M423.173-3.468h-334.346c-15.383 0-28.521 5.455-39.395 16.329s-16.33 24.012-16.33 39.395v278.622c0 15.383 5.456 28.52 16.329 39.395s24.011 16.329 39.395 16.329h27.853c7.849 0 14.456-2.69 19.818-8.053s8.053-11.894 8.053-19.595c0-7.701-2.691-14.288-8.053-19.818-5.363-5.511-11.969-8.276-19.818-8.276h-13.936c-3.767 0-7.033-1.373-9.798-4.138-2.746-2.765-4.138-6.012-4.138-9.798v-83.577c0-3.786 1.373-7.033 4.138-9.798s6.013-4.138 9.798-4.138h306.475c3.767 0 7.033 1.373 9.798 4.138 2.746 2.765 4.138 6.012 4.138 9.798v83.578c0 3.767-1.373 7.033-4.138 9.798-2.765 2.746-6.012 4.138-9.798 4.138h-13.936c-7.553 0-14.084 2.765-19.595 8.276s-8.257 12.117-8.276 19.818c-0.019 7.682 2.746 14.214 8.276 19.595 5.53 5.363 12.062 8.053 19.595 8.053h27.853c15.384 0 28.521-5.437 39.395-16.329 10.892-10.873 16.329-24.012 16.329-39.395v-278.622c0-15.384-5.455-28.521-16.329-39.395-10.873-10.892-24.012-16.329-39.395-16.329zM423.173 163.704h-334.346v-13.936c0-3.767 1.373-7.033 4.138-9.798 2.765-2.746 6.013-4.138 9.798-4.138h306.474c3.767 0 7.033 1.373 9.798 4.138 2.746 2.765 4.138 6.012 4.138 9.798v13.936zM423.173 80.127h-334.346v-13.936c0-3.767 1.373-7.033 4.138-9.798s6.013-4.138 9.798-4.138h306.474c3.767 0 7.033 1.373 9.798 4.138 2.746 2.746 4.138 6.012 4.138 9.798v13.936zM311.725 330.877h-27.872v-27.853c0-7.553-2.69-14.084-8.053-19.595s-11.969-8.257-19.799-8.276c-7.849-0.019-14.456 2.746-19.818 8.276s-8.053 12.043-8.053 19.595v27.853h-27.853c-7.849 0-14.436 2.765-19.818 8.276-5.363 5.511-8.053 12.117-8.053 19.818 0 7.682 2.746 14.214 8.276 19.595 5.511 5.363 12.043 8.053 19.595 8.053h27.853v27.872c0 7.849 2.765 14.455 8.276 19.818s12.117 8.053 19.818 8.053c7.682 0 14.233-2.691 19.577-8.053 5.363-5.363 8.053-11.969 8.053-19.818v-27.872h27.872c7.849 0 14.456-2.69 19.818-8.053s8.053-11.894 8.053-19.595c0-7.701-2.69-14.288-8.053-19.818-5.363-5.511-11.969-8.276-19.818-8.276z" />
<glyph unicode="&#xe620;" d="M256.544-24.155c-31.088 0-60.816 6.048-89.2 18.16s-52.816 28.384-73.28 48.848c-20.464 20.464-36.752 44.896-48.848 73.28-12.112 28.384-18.16 58.128-18.16 89.2 0 31.088 6.048 60.816 18.16 89.2s28.384 52.816 48.848 73.28c20.464 20.464 44.896 36.752 73.28 48.864s58.128 18.16 89.2 18.16 60.816-6.048 89.2-18.16c28.384-12.112 52.816-28.384 73.28-48.864 20.464-20.464 36.752-44.896 48.848-73.28 12.112-28.384 18.16-58.128 18.16-89.2 0-31.088-6.048-60.816-18.16-89.2s-28.384-52.816-48.848-73.28c-20.464-20.464-44.896-36.752-73.28-48.848-28.384-12.112-58.128-18.16-89.2-18.16zM256.544 377.477c-31.088 0-59.84-7.696-86.288-23.072-26.448-15.392-47.36-36.304-62.752-62.752s-23.072-55.216-23.072-86.288c0-31.088 7.696-59.84 23.072-86.288 15.392-26.448 36.304-47.36 62.752-62.752s55.216-23.072 86.288-23.072 59.84 7.696 86.288 23.072c26.448 15.392 47.36 36.304 62.752 62.752s23.088 55.216 23.088 86.288c0 31.088-7.696 59.84-23.088 86.288s-36.304 47.36-62.752 62.752c-26.448 15.392-55.216 23.072-86.288 23.072zM256.544 61.909c-26 0-49.984 6.432-71.952 19.28-21.952 12.848-39.376 30.272-52.224 52.224-12.848 21.968-19.28 45.936-19.28 71.952s6.432 49.984 19.28 71.952 30.272 39.376 52.224 52.224c21.968 12.848 45.952 19.28 71.952 19.28s49.984-6.432 71.952-19.28c21.968-12.848 39.376-30.272 52.224-52.224 12.848-21.968 19.28-45.952 19.28-71.952s-6.432-49.984-19.28-71.952c-12.848-21.968-30.272-39.376-52.224-52.224s-45.936-19.28-71.952-19.28zM256.304 291.413c-23.76 0-44-8.368-60.736-25.104s-25.104-37.056-25.104-60.96c0-23.92 8.368-44.224 25.104-60.96s37.056-25.104 60.96-25.104c23.904 0 44.224 8.368 60.96 25.104s25.104 37.056 25.104 60.96c0 23.904-8.448 44.224-25.328 60.96s-37.2 25.104-60.96 25.104zM256.544 147.973c-15.84 0-29.36 5.616-40.56 16.816s-16.816 24.736-16.816 40.56c0 15.84 5.616 29.36 16.816 40.56s24.736 16.816 40.56 16.816c15.84 0 29.36-5.616 40.56-16.816s16.816-24.736 16.816-40.56c0-15.84-5.6-29.36-16.816-40.56-11.2-11.2-24.736-16.816-40.56-16.816z" />
<glyph unicode="&#xe621;" d="M256 439.589c-121.568 0-220.16-98.592-220.16-220.16 0-121.6 98.592-220.16 220.16-220.16 121.6 0 220.16 98.56 220.16 220.16 0 121.568-98.56 220.16-220.16 220.16zM273.92 41.125v98.944h-35.84v-98.944c-84.656 8.4-151.968 75.728-160.384 160.384h98.944v35.84h-98.944c8.416 84.656 75.728 151.984 160.384 160.384v-98.944h35.84v98.944c84.688-8.4 151.984-75.728 160.384-160.384h-98.944v-35.84h98.944c-8.4-84.656-75.696-151.984-160.384-160.384z" />
<glyph unicode="&#xe622;" d="M430.672 179.141l-214.96 214.96c-9.376 9.376-9.376 24.576 0 33.936 9.376 9.376 24.56 9.376 33.936 0l50.912-50.912 62.24 62.224c9.376 9.376 24.56 9.376 33.936 0 9.376-9.36 9.376-24.56 0-33.936l-62.224-62.224 45.248-45.248 62.224 62.224c9.376 9.376 24.576 9.376 33.952 0 9.36-9.376 9.36-24.56 0-33.936l-62.24-62.24 50.928-50.912c9.36-9.376 9.36-24.56 0-33.936-9.376-9.376-24.576-9.376-33.952 0zM334.512 94.293c-20.752-20.736-113.136-22.624-113.136-22.624l-113.136 113.136c0 0 1.888 92.384 22.624 113.136 20.752 20.736 79.2 79.184 79.2 79.184l203.648-203.648c-0.016 0.016-58.464-58.432-79.2-79.184zM108.24 162.181l90.512-90.512c6.256-6.256 6.256-16.368 0-22.624s-16.384-6.256-22.64 0l-90.496 90.512c-6.256 6.256-6.256 16.368 0 22.624s16.368 6.24 22.624 0zM153.488 49.045c0 0-7.6-7.616-16.976-16.976-9.376-9.376-24.56-9.376-33.936 0l-5.664 5.664-45.264-45.248-22.624 22.624 45.264 45.248-5.648 5.648c-9.376 9.376-9.376 24.576 0 33.952s17.904 16.016 17.904 16.016l66.944-66.928z" />
<glyph unicode="&#xe623;" d="M247.232 427.333l-213.792-92.112 214-91.392 216.208 91.6-216.416 91.904zM256 232.325v-220.8l207.92 98.704v210.416l-207.92-88.32zM32.080 110.229l208.624-98.704v220.8l-208.624 88.32v-210.416z" />
<glyph unicode="&#xe624;" d="M448 347.429v64h-448v-352c0-17.68 14.32-32 32-32h432c26.512 0 48 21.488 48 48v272h-64zM416 59.429h-384v320h384v-320zM64 315.429h320v-32h-320zM256 251.429h128v-32h-128zM256 187.429h128v-32h-128zM256 123.429h96v-32h-96zM64 251.429h160v-160h-160z" />
<glyph unicode="&#xe625;" d="M27.76 190.117l192.864-97.296 34.432 97.296-192.848 92.128-34.448-92.128zM259.376 190.117l32.72-96.432 199.744 97.296-38.752 91.264-193.712-92.128zM-3.952 360.037l66.304-77.488 192.848 98.144-62.848 80.080-196.304-100.736zM515.952 358.325l-192.016 102.448-65.44-80.080 194.592-98.144 62.864 75.776zM50.8 165.781l-0.656-93.424 203.408-94.288v175.68l-29.056-75.776-173.696 87.808zM260.656 153.749v-175.664l202.784 94.288v92.784l-175.84-87.36-26.944 75.952z" />
<glyph unicode="&#xe626;" d="M32.080 110.229l208.624-98.704v220.8l-208.624 88.32v-210.416zM96.096 238.773l80.416-37.392-0.464-29.472-80.4 37.376 0.448 29.488zM256 232.325v-220.8l207.904 98.704v210.416l-207.904-88.32zM247.248 427.333l-213.808-92.112 214-91.392 216.224 91.6-216.416 91.904z" />
<glyph unicode="&#xe627;" d="M175.632 291.829c1.248 2.496 1.872 5.616 1.872 9.36-0.080 3.824-0.864 6.704-2.336 8.656-1.568 1.952-3.088 2.928-4.56 2.928h-6.672v-24.464h6.912c2.192 0 3.792 1.168 4.8 3.52zM178.912 252.613c1.408 1.872 2.112 5.312 2.112 10.304 0 3.12-0.944 5.536-2.816 7.264-1.792 1.488-4.256 2.224-7.376 2.224h-6.912v-22.832h10.192c1.712 0.080 3.312 1.088 4.8 3.040zM51.072 187.205c-1.84-5.6-2.256-11.984-1.456-18.368 26.192 4.976 114.144 20.288 205.92 20.288 93.888 0 183.76-16.016 207.632-20.608 0.848 6.496 0.464 13.008-1.424 18.704-5.136 15.552-5.136 41.008 0 56.544 5.136 15.552-0.784 37.232-13.136 48.176s-25.296 32.992-28.752 48.976-19.616 31.856-35.872 35.264c-16.272 3.408-38.688 16.128-49.808 28.272-8.4 9.168-23.040 14.736-36.512 14.736-4.368 0-8.624-0.592-12.496-1.824-7.904-2.528-18.336-3.776-28.752-3.776-10.432 0-20.848 1.264-28.752 3.776-3.872 1.232-8.128 1.824-12.496 1.824-13.472 0-28.112-5.552-36.512-14.736-11.136-12.144-33.552-24.864-49.808-28.272s-32.4-19.28-35.872-35.264-16.4-38.032-28.752-48.976c-12.352-10.944-18.256-32.624-13.136-48.176 5.136-15.552 5.136-41.008 0-56.544zM397.136 287.269l7.040 14.256 7.040-14.256 15.744-2.288-11.392-11.104 2.688-15.68-14.080 7.408-14.080-7.408 2.688 15.68-11.392 11.104 15.744 2.288zM324.080 328.709h56.304v-15.92h-19.904v-79.136h-15.92v79.136h-20.48v15.92zM287.312 279.413c-11.552 11.008-17.328 20.064-17.328 27.168 0 6.24 1.792 11.632 5.392 16.16 4.288 4.912 9.984 7.344 17.088 7.264 9.216-0.080 17.44-6.368 24.704-18.848l-10.304-12.064c-5.312 9.984-10.112 14.992-14.4 14.992-1.872-0.080-3.44-0.736-4.688-1.984s-1.872-3.088-1.872-5.504c0-3.44 5.072-10.224 15.216-20.368 10.768-10.848 16.16-20.288 16.16-28.336 0-6.944-2.336-12.8-7.024-17.568-4.368-4.448-10.336-6.672-17.904-6.672-9.84 0-18.256 6.672-25.28 20.016l10.544 11.824c5.072-10.608 9.984-15.92 14.752-15.92 2.88 0 5.152 0.976 6.784 2.928 1.488 1.872 2.224 3.664 2.224 5.392 0 4.912-4.688 12.096-14.048 21.536zM209.344 328.709h45.776v-15.92h-29.856v-25.76h19.088v-15.92h-19.088v-21.536h29.856v-15.92h-45.776v95.056zM148 272.389v56.304h26.112c4.288-0.080 8.432-2.144 12.416-6.208 4.608-5.232 6.912-12.336 6.912-21.312-0.080-7.024-1.792-13.152-5.152-18.384 0.464-0.24 0.976-0.592 1.52-1.056 4.768-4.288 7.136-10.576 7.136-18.848-0.080-9.6-2.144-16.896-6.208-21.888-4.064-4.912-9.6-7.376-16.624-7.376h-26.112v38.752zM101.616 287.269l7.040 14.256 7.040-14.256 15.744-2.288-11.392-11.104 2.688-15.68-14.080 7.408-14.080-7.408 2.688 15.68-11.392 11.104 15.744 2.288zM50.544 158.805c-2.432-0.384-4.848-0.672-7.104-0.944-16.992-2.048-46.8-6.16-46.8-6.16l37.056-15.184-23.184-46.944c0 0 25.728 12.912 45.424 21.040 5.312 2.192 20.272 7.488 22.912 8.56l-15.856-2.784-12.432 42.432zM514.688 151.861c0 0-29.824 4.112-46.8 6.16-2.272 0.272-4.688 0.576-7.104 0.944l-12.432-42.432-15.856 2.784c2.624-1.072 17.584-6.368 22.912-8.56 19.696-8.128 45.424-21.040 45.424-21.040l-23.184 46.944 37.056 15.184zM83.44 118.565c0.432-0.768 8.176-17.472 9.536-23.712 3.472-15.984 19.616-31.856 35.872-35.264 16.272-3.408 38.688-16.128 49.808-28.272 8.4-9.168 23.040-14.736 36.512-14.736 4.368 0 8.624 0.592 12.496 1.824 7.904 2.528 18.336 3.776 28.752 3.776 10.432 0 20.848-1.264 28.752-3.776 3.872-1.232 8.128-1.824 12.496-1.824 13.472 0 28.112 5.552 36.512 14.736 11.136 12.144 33.552 24.864 49.808 28.272 16.272 3.408 32.4 19.28 35.872 35.264 1.36 6.256 9.056 22.848 9.456 23.568-41.504 4.656-127.392 13.632-172.864 13.632-44.992 0-130.512-8.784-173.024-13.488z" />
<glyph unicode="&#xe628;" d="M460.8 398.629h-409.6c-28.16 0-51.2-23.040-51.2-51.2v-256c0-28.16 23.040-51.2 51.2-51.2h409.6c28.16 0 51.2 23.040 51.2 51.2v256c0 28.16-23.040 51.2-51.2 51.2zM460.8 91.429h-409.6v153.6h409.6v-153.6zM460.8 321.829h-409.6v25.6h409.6v-25.6zM102.4 191.269v-15.36h15.36v15.36h-15.36zM194.56 160.549v-15.36h30.72v15.36h15.36v15.36h15.36v15.36h-30.72v-15.36h-15.36v-15.36h-15.36zM256 145.189v15.36h-15.36v-15.36h15.36zM179.2 145.189v15.36h-30.72v-15.36h30.72zM194.56 175.909h15.36v15.36h-30.72v-30.72h15.36v15.36zM133.12 160.549h15.36v15.36h15.36v15.36h-30.72v-15.36h-15.36v-15.36h-15.36v-15.36h30.72v15.36z" />
<glyph unicode="&#xe629;" d="M452.032 215.221h-363.856c-7.312 0-13.472 2.496-18.48 7.488s-7.52 11.072-7.52 18.24c0 7.152 2.512 13.312 7.52 18.448s11.168 7.696 18.48 7.696h22.736c5.424-8.112 12.384-14.464 20.912-19.056s17.808-6.88 27.824-6.88c10.016 0 19.296 2.304 27.824 6.88 8.528 4.592 15.488 10.944 20.912 19.056h123.456c5.424-8.112 12.384-14.464 20.912-19.056s17.808-6.88 27.824-6.88 19.296 2.304 27.824 6.88c8.528 4.592 15.488 10.944 20.912 19.056h22.736c7.312 0 13.472-2.56 18.48-7.696s7.52-11.28 7.52-18.448c0-7.152-2.512-13.248-7.52-18.24s-11.168-7.488-18.48-7.488zM389.504 269.525c-5.152-2.976-10.56-3.648-16.24-2.016-5.68 1.616-10.016 5.008-12.992 10.128l-61.328 112.672c-2.976 5.136-3.728 10.608-2.24 16.416 1.504 5.808 4.816 10.208 9.952 13.184 5.152 2.976 10.56 3.648 16.24 2.016 5.68-1.616 10.016-5.008 12.992-10.128l61.328-112.672c2.976-5.136 3.728-10.608 2.24-16.416s-4.8-10.208-9.952-13.184zM179.952 277.637c-2.976-5.136-7.312-8.512-12.992-10.128s-11.104-0.944-16.24 2.016c-5.152 2.976-8.464 7.36-9.952 13.184s-0.736 11.296 2.24 16.416l61.328 112.672c2.976 5.136 7.312 8.512 12.992 10.128s11.104 0.944 16.24-2.016c5.152-2.976 8.464-7.36 9.952-13.184s0.736-11.296-2.24-16.416l-61.328-112.672zM426.032 33.653c-2.176-10.8-6.16-17.84-11.984-21.072-5.824-3.248-14.688-4.864-26.608-4.864h-233.104c-12.176 0-21.392 1.616-27.616 4.864s-10.416 10.272-12.592 21.072l-25.984 155.632h363.856l-25.984-155.632z" />
<glyph unicode="&#xe62a;" d="M466.543 301.585h-7.702c-11.131 27.38-27.173 51.571-48.143 72.524-20.97 20.97-45.144 36.874-72.524 47.712v8.133c4.291 5.704 13.406 8.564 27.38 8.564 30.24 0 56.051-10.7 77.452-32.101 21.384-21.401 32.084-47.213 32.101-77.452 0-13.974-2.843-23.107-8.546-27.38v0zM447.71 192.049c0-43.938-13.56-83.311-40.647-118.1l40.647-56.051-17.541-17.541-56.051 40.647c-34.806-27.104-74.178-40.647-118.099-40.647s-83.294 13.56-118.1 40.647l-56.052-40.647-17.541 17.541 40.648 56.051c-27.104 34.806-40.665 74.178-40.665 118.1 0 25.967 5.066 50.779 15.18 74.454s23.744 44.077 40.854 61.186c17.11 17.11 37.512 30.74 61.187 40.854s48.505 15.18 74.454 15.18c25.967 0 50.796-5.066 74.454-15.18 23.675-10.115 44.077-23.744 61.204-40.854 17.11-17.11 30.74-37.511 40.854-61.186s15.18-48.505 15.18-74.454zM256 328.965c-24.829 0-47.729-6.134-68.682-18.403-20.97-12.268-37.581-28.896-49.849-49.849-12.269-20.97-18.403-43.852-18.403-68.682s6.134-47.712 18.403-68.682c12.268-20.97 28.896-37.58 49.849-49.849 20.97-12.269 43.852-18.402 68.682-18.402s47.729 6.134 68.682 18.402c20.97 12.269 37.581 28.896 49.849 49.849 12.269 20.97 18.402 43.853 18.402 68.682s-6.134 47.712-18.402 68.682c-12.269 20.97-28.896 37.58-49.849 49.849-20.97 12.268-43.853 18.402-68.682 18.402zM324.475 246.808l-41.94-61.187c-1.43-5.979-4.635-10.976-9.632-14.974s-10.632-5.997-16.904-5.997-11.838 1.844-16.697 5.565c-4.859 3.704-7.995 8.563-9.425 14.56l-56.052 75.729v13.698h13.698l68.889-50.917 54.346 37.236h13.699l0.017-13.681zM53.194 301.585h-7.702c-5.703 4.291-8.563 13.405-8.563 27.38 0 30.24 10.7 56.051 32.101 77.452 21.4 21.383 47.213 32.084 77.453 32.101 13.974 0 23.107-2.843 27.38-8.563v-8.133c-27.38-11.131-51.572-27.104-72.525-47.919s-37.012-44.921-48.126-72.318v0z" />
<glyph unicode="&#xe62b;" d="M274.288 219.429q7.424 0 12.864-5.424t5.424-12.864-5.424-12.864-12.864-5.424-12.864 5.424-5.424 12.864 5.424 12.864 12.864 5.424zM360 201.141l144.864-113.712q8-5.712 7.136-16-1.424-10-10-14.576l-36.576-18.288q-3.712-2-8.288-2-4.864 0-8.864 2.288l-197.136 110.576-31.424-18.864q-2.288-1.136-3.424-1.424 4-14 2.864-27.712-2-22-16-42.144t-37.712-35.28q-37.712-24-79.136-24-38.864 0-63.424 22.288-25.712 24-22.576 59.136 2 21.712 16 42t37.424 35.424q37.712 24 79.424 24 23.712 0 43.136-8.864 2.576 3.712 6.288 6.288l34.864 20.864-34.864 20.864q-3.712 2.576-6.288 6.288-19.424-8.864-43.136-8.864-41.712 0-79.424 24-23.424 15.136-37.424 35.424t-16 42q-1.424 16.864 4.432 32.288t18.144 26.576q24.288 22.576 63.424 22.576 41.424 0 79.136-24 23.712-14.864 37.712-35.136t16-42.288q1.136-13.712-2.864-27.712 1.136-0.288 3.424-1.424l31.424-18.864 197.136 110.576q4 2.288 8.864 2.288 4.576 0 8.288-2l36.576-18.288q8.576-4.576 10-14.576 0.864-10.288-7.136-16zM165.424 275.429q13.136 12 6 30.864t-30.288 33.424q-26.288 16.864-54.864 16.864-21.136 0-32.288-10.288-13.136-12-6-30.864t30.288-33.424q26.288-16.864 54.864-16.864 21.136 0 32.288 10.288zM141.136 62.565q23.136 14.576 30.288 33.424t-6 30.864q-11.136 10.288-32.288 10.288-28.576 0-54.864-16.864-23.136-14.576-30.288-33.424t6-30.864q11.136-10.288 32.288-10.288 28.576 0 54.864 16.864zM192 237.717l27.424-16.576v3.136q0 10.288 9.424 16l4 2.288-22.576 13.424-7.424-7.424q-0.864-0.864-2.864-3.136t-3.424-3.424q-0.576-0.576-1.136-1.008t-0.864-0.72zM256 173.717l27.424-9.136 210.288 164.576-36.576 18.288-219.424-123.136v-32.288l-45.712-27.424 2.576-2.288q0.576-0.576 2-1.712 1.136-1.136 3.136-3.424t3.136-3.424l7.424-7.424zM457.136 54.853l36.576 18.288-148.576 116.576-50.576-39.424q-0.576-0.864-3.712-2z" />
<glyph unicode="&#xe62c;" d="M209.872 133.349c-17.104-29.664-5.616-54.064 18.128-67.744s50.64-11.504 67.744 18.144c17.104 29.632 125.152 294.272 115.76 299.696-9.376 5.424-184.528-220.432-201.648-250.096zM256.288 321.829c10.864 0 21.456-0.944 31.776-2.688 10.864 13.6 23.024 28.56 34.88 42.832-21.12 6.128-43.424 9.456-66.624 9.456-139.040 0-247.984-117.248-247.984-266.928 0-9.216 0.416-18.432 1.216-27.408 1.216-13.632 13.392-23.68 26.912-22.496 13.632 1.248 23.712 13.264 22.496 26.912-0.672 7.52-1.024 15.248-1.024 22.992 0 121.856 87.168 217.328 198.4 217.328zM435.296 290.837c-6.912-18.592-14.224-37.536-20.672-53.936 25.216-36.448 40.048-82.16 40.048-132.432 0-7.856-0.336-15.776-1.040-23.44-1.248-13.632 8.8-25.696 22.448-26.96 0.768-0.080 1.52-0.096 2.272-0.096 12.672 0 23.488 9.696 24.64 22.544 0.832 9.168 1.264 18.56 1.264 27.952 0 73.184-26.080 138.592-68.976 186.368z" />
<glyph unicode="&#xe62d;" d="M158.912 336.789c0 52.8 43.456 95.6 97.088 95.6 53.616 0 97.088-42.8 97.088-95.6s-43.472-95.6-97.088-95.6c-53.632 0-97.088 42.8-97.088 95.6zM385.488 209.333h-17.92l-100.688-146.96 37.648 131.024-48.544 47.792-48.544-47.792 37.648-131.024-100.688 146.96h-17.92c-64.688 0-64.688-42.816-64.688-95.6v-105.008h388.368v105.008c0 52.784 0 95.6-64.688 95.6z" />
<glyph unicode="&#xe62e;" d="M428.208 146.725c-21.6-34.912-90.496-60.448-172.208-60.448-81.664 0-150.608 25.52-172.192 60.448-4.576 7.392-7.008 3.424-7.008-0.224 0-3.68 0-51.248 0-51.248 0-49.632 80.224-101.088 179.2-101.088s179.2 51.456 179.2 101.088c0 0 0 47.568 0 51.248 0 3.664-2.464 7.632-6.992 0.224zM428.464 277.669c-21.216-30.88-90.416-53.504-172.464-53.504s-151.248 22.624-172.464 53.504c-4.4 6.368-6.736 2.912-6.736 0.032 0-2.896 0-60.32 0-60.32 0-45.136 80.224-81.696 179.2-81.696s179.2 36.56 179.2 81.696c0 0 0 57.424 0 60.32s-2.352 6.352-6.736-0.032zM256 444.709c-98.976 0-179.2-30.16-179.2-67.376v-32.224c0-39.472 80.224-71.472 179.2-71.472s179.2 32 179.2 71.472v32.208c0 37.248-80.224 67.408-179.2 67.408z" />
<glyph unicode="&#xe62f;" d="M33.326 404.991v-408.237h408.237v408.237h-408.237zM107.551 33.867h-37.113v37.113h37.113v-37.113zM107.551 89.535h-37.113v37.113h37.113v-37.113zM107.551 145.204h-37.113v37.113h37.113v-37.113zM107.551 219.429h-37.113v37.113h37.113v-37.113zM107.551 275.098h-37.113v37.113h37.113v-37.113zM107.551 330.766h-37.113v37.112h37.113v-37.112zM330.225 33.867h-185.562v148.45h185.562v-148.45zM330.225 219.429h-185.562v148.45h185.562v-148.45zM404.45 33.867h-37.113v37.113h37.113v-37.113zM404.45 89.535h-37.113v37.113h37.113v-37.113zM404.45 145.204h-37.113v37.113h37.113v-37.113zM404.45 219.429h-37.113v37.113h37.113v-37.113zM404.45 275.098h-37.113v37.113h37.113v-37.113zM404.45 330.766h-37.113v37.112h37.113v-37.112z" />
<glyph unicode="&#xe630;" d="M479.744 226.661c-6.048 58.224-65.008 57.888-95.632 56.848 0.144 8.848 0.24 15.984 0.24 15.984l-352.432 0.112c0 0 0-48.224 0-49.424 0-68.496 39.12-127.744 96.176-156.944v-17.088h160.304v17.088c16 8.192 30.352 18.944 43.056 31.376 78.64 18.816 161.12 45.968 148.288 102.048zM356 154.373c17.968 27.6 28.576 60.4 28.576 95.808 0-0.272 0.016 0.464 0.032 1.856 28.56 0.944 60.080 3.792 67.216-24.64 7.168-31.28-45.072-56.752-95.824-73.024zM141.28 363.589c0-16-26.24-33.040-26.24-33.040s51.424 9.184 51.424 33.184-50.992 8-50.992 26 25.232 35.040 25.232 35.040-48.4-10.192-48.4-35.184 48.976-10 48.976-26zM221.28 347.589c0-16-26.24-33.040-26.24-33.040s51.424 9.184 51.424 33.184-50.992 8-50.992 26 25.232 35.040 25.232 35.040-48.416-10.192-48.416-35.184 48.992-10 48.992-26zM285.28 363.589c0-16-26.24-33.040-26.24-33.040s51.424 9.184 51.424 33.184-50.992 8-50.992 26 25.232 35.040 25.232 35.040-48.416-10.192-48.416-35.184 48.992-10 48.992-26zM30.928 60.581c0-22.096 78.8-40 176-40s176 17.904 176 40c0-0.464-352-0.464-352 0z" />
<glyph unicode="&#xe631;" d="M373.936 2.965c0 0 5.36 32.192-27.696 71.504 32.176 90.256 36.64 172.448 36.64 172.448s66.128-15.2 66.128-80.416c-0.016-111.696-75.072-163.536-75.072-163.536zM191.664 42.181c0 0-44.288 142.128-44.288 201.088 0 26.528 2.992 50.128 7.648 71.552h201.76c4.688-21.44 7.696-45.056 7.696-71.568 0-58.064-44.16-201.072-44.16-201.072h-128.656zM255.84 282.325c-22.688 0-41.088-18.4-41.088-41.104 0-22.688 18.4-41.104 41.088-41.104 22.704 0 41.104 18.4 41.104 41.104 0.016 22.704-18.4 41.104-41.104 41.104zM247.008 465.893v55.968h16v-54.544c18.288-13.312 67.776-55.648 90.16-137.2h-194.56c21.632 79.312 68.736 121.184 88.4 135.776zM138.064 2.965c0 0-75.056 51.84-75.056 163.536 0 65.216 66.128 80.416 66.128 80.416s4.464-82.192 36.624-172.448c-33.072-39.328-27.696-71.504-27.696-71.504zM283.056-5.291l-13.408 13.408-14.288-44.688-16.992 44.688-11.616-23.216-16.992 42h92.032l-18.736-32.192z" />
<glyph unicode="&#xe632;" d="M248-21.563c-110.464 0-200 89.552-200 200 0 85.040 53.168 157.504 128 186.416v-71.184c-38.384-24.048-64-66.592-64-115.232 0-75.104 60.896-136 136-136s136 60.896 136 136c0 41.536-18.656 78.64-48 103.6v75.776c66.288-32.576 112-100.544 112-179.392 0-110.448-89.552-199.984-200-199.984zM256 202.437c-17.664 0-32 14.336-32 32v177.984c0 17.664 14.336 32 32 32s32-14.336 32-32v-178c0-17.664-14.336-31.984-32-31.984z" />
<glyph unicode="&#xe633;" d="M460.968 193.808v153.726h-76.863v25.621c0 14.091-11.529 25.621-25.621 25.621h-281.831c-14.091 0-25.621-11.529-25.621-25.621v-76.863c0-14.091 11.529-25.621 25.621-25.621h281.831c14.091 0 25.621 11.53 25.621 25.621v25.621h51.242v-102.483h-230.589v-51.242h-12.81c-7.071 0-12.81-5.739-12.81-12.81v-128.105c0-7.071 5.739-12.81 12.81-12.81h51.242c7.071 0 12.811 5.739 12.811 12.81v128.105c0 7.071-5.739 12.81-12.81 12.81h-12.81v25.621h230.589zM358.484 347.534h-281.831v25.621h281.831v-25.621z" />
<glyph unicode="&#xe634;" d="M392.832 254.437l-101.824 101.824c-6.24 6.256-6.24 16.368 0 22.624 6.256 6.256 16.384 6.256 22.64 0l11.312-11.312 50.928 50.912c21.856 21.872 57.312 21.872 79.184 0 21.872-21.856 21.872-57.328 0-79.184l-50.912-50.928 11.312-11.312c6.256-6.256 6.256-16.368 0-22.624s-16.4-6.256-22.64 0zM153.632 37.861c-9.904-9.904-34.64 10.592-45.248 0l-26.88-26.88c-9.36-9.376-24.56-9.376-33.936 0s-9.376 24.56 0 33.936l26.88 26.88c10.608 10.592-9.904 35.344 0 45.248 9.888 9.92 216.368 216.384 216.368 216.384l79.184-79.2c0 0-206.464-206.464-216.368-216.368zM347.376 254.229l-56.56 56.576c0 0-183.856-183.856-193.744-193.76-9.904-9.904 9.904-35.344 0-45.248l-38.192-38.176c-3.12-3.12-3.12-8.192 0-11.312s8.192-3.12 11.312 0l38.192 38.192c9.904 9.904 35.344-9.904 45.248 0s193.744 193.728 193.744 193.728z" />
<glyph unicode="&#xe635;" d="M168.532 387.232l121.141-69.943c9.572-5.516 21.782-2.238 27.277 7.314 5.536 9.553 2.259 21.782-7.294 27.278l-121.141 69.943c-9.572 5.515-21.782 2.238-27.298-7.294-5.536-9.553-2.238-21.763 7.314-27.298zM279.701 299.983l-121.141 69.943-69.943-121.141 121.141-69.943 69.943 121.141zM58.622 196.867l121.141-69.943c9.553-5.515 21.782-2.238 27.278 7.314 5.516 9.553 2.238 21.782-7.294 27.277l-121.141 69.943c-9.572 5.515-21.782 2.238-27.298-7.294-5.535-9.552-2.239-21.782 7.314-27.297zM476.060 140.473l-221.339 116.245-19.984-34.611 211.346-133.551c14.329-8.273 32.673-3.377 40.947 10.971s3.358 32.673-10.971 40.947zM256.659 39.576c0 11.051-8.953 19.984-19.984 19.984h-179.853c-11.051 0-19.984-8.933-19.984-19.984 0-11.031 0-19.984 0-19.984l-20.643 0.42 0.659-20.404h259.787l0.94 19.144-19.664 0.839c0 0-1.259 8.953-1.259 19.984z" />
<glyph unicode="&#xe636;" d="M256 270.629c-42.4 0-76.8-34.4-76.8-76.8 0-42.416 34.4-76.8 76.8-76.8 42.416 0 76.8 34.384 76.8 76.8 0 42.4-34.384 76.8-76.8 76.8zM460.8 347.429h-61.408c-8.448 0-17.568 6.56-20.224 14.56l-15.872 47.648c-2.72 8.032-11.808 14.592-20.256 14.592h-174.080c-8.448 0-17.568-6.56-20.192-14.56l-15.92-47.664c-2.656-8.016-11.744-14.56-20.192-14.56h-61.44c-28.16 0-51.2-23.040-51.2-51.2v-230.4c0-28.16 23.040-51.2 51.2-51.2h409.6c28.192 0 51.2 23.040 51.2 51.2v230.4c0 28.16-23.008 51.2-51.2 51.2zM256 65.829c-70.704 0-128 57.296-128 128 0 70.688 57.296 128 128 128 70.688 0 128-57.312 128-128 0-70.704-57.312-128-128-128zM442.88 260.437c-9.888 0-17.888 8.016-17.888 17.92s8.016 17.92 17.888 17.92c9.904 0 17.92-8.016 17.92-17.92s-8.016-17.92-17.92-17.92z" />
<glyph unicode="&#xe637;" d="M426.439 446.686h-340.878c-15.717 0-28.41-12.692-28.41-28.41v-397.697c0-15.699 12.692-28.41 28.41-28.41h340.878c15.699 0 28.41 12.711 28.41 28.41v397.697c0 15.698-12.711 28.41-28.41 28.41zM170.771 48.99h-56.819v56.819h56.819v-56.819zM170.771 134.2h-56.819v56.819h56.819v-56.819zM170.771 219.429h-56.819v56.819h56.819v-56.819zM284.41 48.99h-56.819v56.819h56.819v-56.819zM284.41 134.2h-56.819v56.819h56.819v-56.819zM284.41 219.429h-56.819v56.819h56.819v-56.819zM398.030 48.99h-56.819v56.819h56.819v-56.819zM398.030 134.2h-56.819v56.819h56.819v-56.819zM398.030 219.429h-56.819v56.819h56.819v-56.819zM398.030 333.048h-284.059v56.819h284.059v-56.819z" />
<glyph unicode="&#xe638;" d="M436.432 322.341h-360.88c-7.264 0-13.36 2.544-18.32 7.648s-7.456 11.216-7.456 18.32c0 7.12 2.48 13.152 7.456 18.128s11.072 7.456 18.32 7.456l180.432 51.952 180.432-51.952c7.248 0 13.36-2.48 18.32-7.456 4.96-4.96 7.456-11.008 7.456-18.128s-2.48-13.216-7.456-18.32c-4.96-5.104-11.072-7.648-18.32-7.648zM101.344 90.341c-7.264 0-13.36 2.56-18.32 7.648s-7.456 11.152-7.456 18.128v154.656c0 7.264 2.48 13.36 7.456 18.32s11.072 7.456 18.32 7.456h51.552c7.264 0 13.36-2.48 18.32-7.456s7.456-11.072 7.456-18.32v-154.656c0-6.992-2.544-13.024-7.648-18.128s-11.152-7.648-18.128-7.648h-51.552zM230.224 90.341c-7.264 0-13.36 2.56-18.32 7.648s-7.456 11.152-7.456 18.128v154.656c0 7.264 2.544 13.36 7.648 18.32s11.152 7.456 18.128 7.456h51.552c7.264 0 13.36-2.48 18.32-7.456s7.456-11.072 7.456-18.32v-154.656c0-6.992-2.48-13.024-7.456-18.128s-11.072-7.648-18.32-7.648h-51.552zM359.104 90.341c-6.992 0-13.024 2.56-18.128 7.648s-7.648 11.152-7.648 18.128v154.656c0 7.264 2.56 13.36 7.648 18.32s11.152 7.456 18.128 7.456h51.552c7.248 0 13.36-2.48 18.32-7.456 4.96-4.96 7.456-11.072 7.456-18.32v-154.656c0-6.992-2.48-13.024-7.456-18.128s-11.072-7.648-18.32-7.648h-51.552zM75.568 64.565h360.88c7.248 0 13.36-2.48 18.32-7.456 4.96-4.96 7.456-11.008 7.456-18.128s-2.48-13.216-7.456-18.32c-4.96-5.104-11.072-7.648-18.32-7.648h-360.88c-7.264 0-13.36 2.56-18.32 7.648s-7.456 11.216-7.456 18.32 2.48 13.152 7.456 18.128 11.072 7.456 18.32 7.456z" />
<glyph unicode="&#xe639;" d="M461.712 187.429c-12.8-90.4-83.632-162-173.712-175.952v-16.048h-64v16.048c-90.080 13.936-160.912 85.552-173.728 175.952h-18.272v64h19.008c14.784 87.888 84.688 156.96 172.992 170.624v21.376h64v-21.376c88.32-13.664 158.192-82.736 172.992-170.624h19.008v-64h-18.288zM240 11.429h32v32h-32v-32zM48 235.429v-32h32v32h-32zM272 427.429h-32v-32h32v32zM288 397.797v-18.368h-64v18.368c-75.040-13.184-134.416-71.728-148.672-146.368h20.672v-64h-21.536c12.4-77.152 72.72-138.208 149.536-151.696v23.696h64v-23.696c76.816 13.504 137.136 74.544 149.536 151.696h-21.536v64h20.672c-14.272 74.64-73.632 133.184-148.672 146.368zM464 235.429h-32v-32h32v32z" />
<glyph unicode="&#xe63a;" d="M448 91.429v-64h-64v16h-256v-16h-64v64h16v256h-16v64h64v-16h256v16h64v-64h-16v-256h16zM80 43.429h32v32h-32v-32zM112 395.429h-32v-32h32v32zM384 363.429h-256v-16h-16v-256h16v-16h256v16h16v256h-16v16zM432 395.429h-32v-32h32v32zM400 75.429v-32h32v32h-32z" />
<glyph unicode="&#xe63b;" d="M448 91.429v-64h-64v16h-96v-16h-64v16h-96v-16h-64v64h16v96h-16v64h16v96h-16v64h64v-16h96v16h64v-16h96v16h64v-64h-16v-96h16v-64h-16v-96h16zM240 43.429h32v32h-32v-32zM80 43.429h32v32h-32v-32zM80 203.429h32v32h-32v-32zM112 395.429h-32v-32h32v32zM272 395.429h-32v-32h32v32zM384 363.429h-96v-16h-64v16h-96v-16h-16v-96h16v-64h-16v-96h16v-16h96v16h64v-16h96v16h16v96h-16v64h16v96h-16v16zM432 395.429h-32v-32h32v32zM432 235.429h-32v-32h32v32zM400 75.429v-32h32v32h-32z" />
<glyph unicode="&#xe63c;" d="M233.182 391.643c-85.066-10.113-152.487-77.547-162.599-162.599h162.599v162.599zM279.688 391.312v-186.631c0-12.224-9.906-22.142-22.156-22.142h-186.632c11.948-91.274 89.908-161.757 184.396-161.757 102.779 0 186.121 83.3 186.121 186.121 0 94.502-70.483 172.462-161.729 184.396z" />
<glyph unicode="&#xe63d;" d="M50.496 190.030l30.089-7.464 22.653 35.579-43.044 10.664c-10.774 2.69-21.66-3.836-24.322-14.568-2.676-10.678 3.891-21.55 14.638-24.212zM443.211 184.291l-98.517-88.694-115.844 89.645c-2.207 1.724-4.746 2.938-7.464 3.615l-15.424 3.793-22.653-35.565 24.254-5.988 125.778-97.303c3.642-2.842 7.974-4.222 12.32-4.222 4.829 0 9.671 1.724 13.464 5.159l110.961 99.882c8.236 7.422 8.857 20.046 1.435 28.226-7.394 8.195-20.087 8.829-28.323 1.407zM226.946 281.648l107.871-69.062c9.091-5.808 21.19-3.394 27.344 5.45l110.988 159.853c6.291 9.091 4.014 21.522-5.104 27.813s-21.604 4.001-27.923-5.077l-99.952-143.961-108.533 69.49c-4.483 2.87-9.933 3.835-15.161 2.69s-9.754-4.305-12.609-8.802l-165.482-259.777c-5.96-9.312-3.173-21.632 6.181-27.551 3.339-2.125 7.063-3.118 10.747-3.118 6.649 0 13.134 3.269 16.956 9.271l154.666 242.78z" />
<glyph unicode="&#xe63e;" d="M63.792 411.429h-15.792v-384h416v15.408l-399.936 0.8-0.272 367.792zM272 395.429c0 8.848-7.168 16-16 16h-48c-8.848 0-16-7.152-16-16v-320h80v320zM176 299.429c0 8.832-7.168 16-16 16h-48c-8.848 0-16-7.168-16-16v-224h80v224zM368 203.429c0 8.848-7.168 16-16 16h-48c-8.848 0-16-7.152-16-16v-128h80v128zM448 123.429h-48c-8.848 0-16-7.152-16-16v-32h80v32c0 8.848-7.168 16-16 16z" />
<glyph unicode="&#xe63f;" d="M77.216 40.645v357.584h357.584v-357.584h-357.584zM412.448 375.861h-312.88v-312.88h312.88v312.88zM390.096 152.389h-268.192v201.136h268.192v-201.136z" />
<glyph unicode="&#xe640;" d="M457.728 295.493l-201.728 138.112-201.728-138.112 201.728-138.096 201.728 138.096zM256 126.581l-178.064 117.408-23.664-24.56 201.728-138.096 201.728 138.096-23.984 25.088-177.744-117.936zM256 50.485l-178.064 117.408-23.664-24.56 201.728-138.096 201.728 138.096-23.984 25.088-177.744-117.936z" />
<glyph unicode="&#xe641;" d="M48 59.429h304v224h-304v-224zM95.008 299.429h272.992v-192h32v224h-304l-0.992-32zM144 379.429l-0.992-32h272.992v-192h32v224h-304z" />
<glyph unicode="&#xe642;" d="M143.744 330.677v48.256h304v-223.248h-48.256l0.992-48.496h-49.248v-47.248h-302.976v223.488h47.504v48.256l47.984-1.008zM431.248 363.429h-272v-32.752l241.248 0.992-0.992-160.496h31.744v192.256zM384 315.173h-272.752v-31.744h240v-159.744h32.752v191.488zM63.744 267.925v-192.496h272v192.496h-272z" />
<glyph unicode="&#xe643;" d="M51.248 403.781v-60.624c181.408 0 328.448-147.072 328.448-328.48h60.64c0 214.88-174.208 389.088-389.088 389.088zM51.248 282.501v-60.64c114.432 0 207.2-92.752 207.2-207.184h60.592c0 147.888-119.888 267.824-267.808 267.824zM109.36 130.901c-32.080 0-58.112-26.032-58.112-58.144s26.032-58.112 58.112-58.112c32.096 0 58.144 26.016 58.144 58.112s-26.032 58.144-58.144 58.144z" />
<glyph unicode="&#xe644;" d="M256 117.029c-28 0-50.656-22.944-50.656-51.2s22.656-51.2 50.656-51.2c27.984 0 50.656 22.944 50.656 51.2s-22.688 51.2-50.656 51.2zM148.48 174.421l35.84-36.192c39.584 39.984 103.76 39.984 143.36 0l35.84 36.192c-59.392 60-155.68 60-215.040 0zM76.8 246.853l35.808-36.192c79.184 79.968 207.536 79.968 286.72 0l35.872 36.192c-98.976 99.968-259.424 99.968-358.4 0zM5.12 319.237l35.84-36.192c118.784 119.968 311.328 119.968 430.080 0l35.84 36.192c-138.544 139.984-363.216 139.984-501.76 0z" />
<glyph unicode="&#xe645;" d="M414.512 217.733c-14.352 0-26.608 5.088-36.768 15.232-10.16 10.16-15.232 22.416-15.232 36.768 0-14.352-5.088-26.608-15.232-36.768-10.16-10.16-22.416-15.232-36.768-15.232s-26.608 5.088-36.768 15.232c-10.16 10.16-15.232 22.416-15.232 36.768 0-14.352-5.088-26.608-15.232-36.768-10.16-10.16-22.416-15.232-36.768-15.232s-26.608 5.088-36.768 15.232c-10.16 10.16-15.232 22.416-15.232 36.768 0-14.352-5.088-26.608-15.232-36.768-10.16-10.16-22.416-15.232-36.768-15.232s-26.608 5.088-36.768 15.232c-10.16 10.16-15.232 22.416-15.232 36.768 0 9.216 4.336 22.224 12.992 39.008l37.376 97.104c1.904 5.68 5.424 10.432 10.576 14.224s10.288 5.696 15.44 5.696h264.88c5.424 0 10.64-1.904 15.648-5.696s8.464-8.544 10.368-14.224l35.744-97.104c0.544-1.36 1.84-4.272 3.856-8.736 2.032-4.48 3.584-8 4.672-10.576s2.096-5.76 3.040-9.536c0.944-3.776 1.424-7.184 1.424-10.16 0-14.352-5.088-26.608-15.232-36.768-10.16-10.16-22.416-15.232-36.768-15.232zM76.512 61.717v104c0 7.328 2.576 13.488 7.728 18.496s11.248 7.52 18.272 7.52c7.040 0 13.136-2.512 18.272-7.52 5.152-5.008 7.728-11.168 7.728-18.496v-104h78v104c0 7.328 2.512 13.488 7.52 18.496s11.168 7.52 18.48 7.52h52c7.328 0 13.488-2.512 18.48-7.52 5.008-5.008 7.52-11.168 7.52-18.496v-104h78v104c0 7.328 2.576 13.488 7.728 18.496s11.248 7.52 18.272 7.52c7.040 0 13.136-2.512 18.272-7.52 5.152-5.008 7.728-11.168 7.728-18.496v-104c7.040 0 13.136-2.512 18.272-7.52s7.712-11.104 7.728-18.272c0.016-7.184-2.56-13.344-7.728-18.496s-11.248-7.728-18.272-7.728h-364c-7.040 0-13.136 2.576-18.272 7.728s-7.712 11.312-7.728 18.496c-0.016 7.168 2.56 13.264 7.728 18.272s11.248 7.52 18.272 7.52z" />
<glyph unicode="&#xe646;" d="M447.679 384.681c-0.147 0.868-0.982 1.492-1.856 1.385 0 0-111.611-13.514-188.279 63.668-0.363 0.366-1.029-0.015-1.543-0.019-0.516 0.004-1.179 0.385-1.543 0.019-76.667-77.182-188.279-63.668-188.279-63.668-0.874 0.106-1.709-0.517-1.856-1.385 0 0-4.572-26.991-0.762-75.090 12.349-155.907 108.055-294.835 190.897-320.562 0.493-0.153 1.029 0.015 1.543 0.019 0.515-0.004 1.051-0.173 1.543-0.019 82.842 25.728 178.547 164.655 190.897 320.562 3.808 48.099-0.763 75.090-0.763 75.090zM424.607 297.211c-14.257-126.016-93.894-263.534-165.88-285.89-0.428-0.132-0.428-0.132-0.428-0.132-0.502 0.082-0.913 0.87-0.913 1.75v404.434c0 0.88 0.461 1.751 1.026 1.935 0 0 0 0 0.316-0.319 66.62-67.067 163.397-55.35 163.397-55.35 0.874 0.106 1.747-0.51 1.939-1.369 0 0 5.258-23.398 0.544-65.059z" />
<glyph unicode="&#xe647;" d="M472.623 202.963c0 0-22.361 36.63-47.221 36.63-24.82 0-50.899-37.869-50.899-37.869s-27.318 37.829-49.679 37.829c-18.924 0-41.207-26.019-47.661-34.052v-144.681c0-14.488-1.478-26.738-4.457-36.849-2.957-10.072-7.354-18.265-13.169-24.58-5.796-6.315-13.029-10.931-21.702-13.769-8.653-2.858-18.685-4.257-30.076-4.257-10.372 0-19.644 1.559-27.857 4.676-8.214 3.158-15.127 7.614-20.763 13.428s-9.972 12.81-12.989 21.043c-2.998 8.193-4.536 17.366-4.536 27.478v13.969h39.568c0-13.11-0.1-30.296 4.676-36.969 4.776-6.635 12.070-9.991 21.882-9.991 6.614 0 16.066 3.277 16.066 3.277s7.234 5.195 9.412 9.132c2.158 3.897 4.357 14.168 4.357 14.168s1.119 11.591 1.119 18.226v147.998c-8.852 10.012-30.575 32.414-47.981 32.414-22.342 0-53.396-37.249-53.396-37.249s-29.795 37.249-49.679 37.249c-19.864 0-48.42-37.249-48.42-37.249s-8.713 194.96 188.746 214.824l28.577 39.727 27.337-39.727c203.614-12.41 188.746-214.824 188.746-214.824z" />
<glyph unicode="&#xe648;" d="M0 75.429v288h512v-288h-512zM32 332.421v-224.992h448v224.992h-448zM336 219.429c0 53.008-35.808 96-80 96h208v-192h-208c44.192 0 80 42.992 80 96zM400 187.429c13.248 0 24 14.336 24 32s-10.752 32-24 32-24-14.336-24-32 10.752-32 24-32zM289.888 259.781c-0.24-0.88-0.576-1.504-0.992-1.904-0.432-0.4-1.008-0.592-1.744-0.592s-1.888 0.448-3.504 1.376c-1.6 0.944-3.568 1.936-5.888 3.024-2.336 1.088-5.024 2.080-8.096 2.992-3.072 0.896-6.432 1.328-10.096 1.328-2.88 0-5.376-0.336-7.504-1.040-2.128-0.688-3.92-1.664-5.344-2.88-1.44-1.232-2.496-2.72-3.2-4.432-0.688-1.712-1.040-3.552-1.040-5.472 0-2.88 0.784-5.36 2.352-7.456s3.664-3.968 6.304-5.6c2.64-1.648 5.616-3.168 8.96-4.592 3.312-1.44 6.72-2.96 10.192-4.544 3.472-1.616 6.864-3.424 10.192-5.456 3.344-2.032 6.32-4.464 8.912-7.296s4.688-6.16 6.304-9.984c1.6-3.84 2.384-8.336 2.384-13.552 0-6.8-1.248-12.752-3.776-17.888-2.544-5.12-5.968-9.408-10.32-12.832-4.336-3.44-9.392-6.016-15.184-7.744-0.736-0.224-1.536-0.32-2.288-0.496v-17.472h-15.728v15.408c-0.208 0-0.384-0.032-0.576-0.032-4.464 0-8.624 0.352-12.448 1.072-3.84 0.736-7.216 1.616-10.144 2.624-2.944 1.024-5.376 2.096-7.344 3.216s-3.376 2.112-4.24 2.976c-0.864 0.864-1.488 2.112-1.856 3.744-0.368 1.648-0.56 3.984-0.56 7.056 0 2.064 0.064 3.792 0.208 5.2s0.352 2.528 0.656 3.408 0.688 1.488 1.2 1.856c0.496 0.352 1.072 0.544 1.744 0.544 0.928 0 2.24-0.544 3.952-1.648 1.696-1.104 3.888-2.32 6.544-3.648 2.672-1.344 5.84-2.544 9.552-3.664 3.696-1.088 7.984-1.648 12.848-1.648 3.2 0 6.064 0.384 8.592 1.152s4.688 1.84 6.448 3.248 3.104 3.136 4.048 5.2c0.944 2.080 1.408 4.368 1.408 6.928 0 2.928-0.816 5.44-2.4 7.552-1.6 2.096-3.68 3.952-6.256 5.6-2.56 1.632-5.472 3.152-8.736 4.592s-6.624 2.96-10.096 4.544c-3.456 1.6-6.832 3.408-10.096 5.456-3.264 2.032-6.176 4.448-8.736 7.28s-4.656 6.192-6.24 10.048c-1.6 3.856-2.4 8.496-2.4 13.888 0 6.208 1.152 11.648 3.44 16.336 2.304 4.688 5.392 8.592 9.296 11.68s8.496 5.408 13.792 6.944c2.72 0.8 5.536 1.36 8.416 1.744v16.544h15.728v-16.544c0.624-0.080 1.248-0.048 1.872-0.144 3.056-0.464 5.936-1.088 8.592-1.888 2.672-0.784 5.024-1.664 7.104-2.672 2.064-0.992 3.424-1.808 4.096-2.48 0.672-0.656 1.104-1.216 1.36-1.68 0.224-0.464 0.416-1.088 0.592-1.856 0.16-0.768 0.288-1.728 0.336-2.912 0.064-1.152 0.096-2.608 0.096-4.336 0-1.936-0.048-3.584-0.144-4.928-0.144-1.264-0.304-2.384-0.544-3.248zM176 219.429c0-53.008 35.808-96 80-96h-208v192h208c-44.192 0-80-42.992-80-96zM112 251.429c-13.264 0-24-14.336-24-32s10.736-32 24-32c13.248 0 24 14.336 24 32s-10.752 32-24 32z" />
<glyph unicode="&#xe649;" d="M224 411.429v8c0 13.2-10.8 24-24 24h-80c-13.2 0-24-10.8-24-24v-8h-96v-64h96v-8c0-13.2 10.8-24 24-24h80c13.2 0 24 10.8 24 24v8h288v64h-288zM128 347.429v64h64v-64h-64zM416 259.429c0 13.2-10.8 24-24 24h-80c-13.2 0-24-10.8-24-24v-8h-288v-64h288v-8c0-13.2 10.8-24 24-24h80c13.2 0 24 10.8 24 24v8h96v64h-96v8zM320 187.429v64h64v-64h-64zM224 99.429c0 13.2-10.8 24-24 24h-80c-13.2 0-24-10.8-24-24v-8h-96v-64h96v-8c0-13.2 10.8-24 24-24h80c13.2 0 24 10.8 24 24v8h288v64h-288v8zM128 27.429v64h64v-64h-64z" />
<glyph unicode="&#xe64a;" d="M448 251.429h8c13.2 0 24 10.8 24 24v80c0 13.2-10.8 24-24 24h-8v96h-64v-96h-8c-13.2 0-24-10.8-24-24v-80c0-13.2 10.8-24 24-24h8v-288h64v288zM384 347.429h64v-64h-64v64zM296 59.429c13.2 0 24 10.8 24 24v80c0 13.2-10.8 24-24 24h-8v288h-64v-288h-8c-13.2 0-24-10.8-24-24v-80c0-13.2 10.8-24 24-24h8v-96h64v96h8zM224 155.429h64v-64h-64v64zM136 251.429c13.2 0 24 10.8 24 24v80c0 13.2-10.8 24-24 24h-8v96h-64v-96h-8c-13.2 0-24-10.8-24-24v-80c0-13.2 10.8-24 24-24h8v-288h64v288h8zM64 347.429h64v-64h-64v64z" />
<glyph unicode="&#xe64b;" d="M340.288 122.805l11.344 11.344c12.528 12.528 12.528 32.848 0 45.376l-19.584 19.568c6.304 10.976 11.248 22.784 14.688 35.248h21.184c17.712 0 32.080 14.368 32.080 32.080v16.032c0 17.712-14.352 32.080-32.080 32.080h-20.928c-3.328 12.336-8.048 24.080-14.192 34.976l18.832 18.816c12.528 12.528 12.528 32.848 0 45.376l-11.344 11.328c-12.528 12.528-32.848 12.528-45.376 0l-18.448-18.448c-11.28 6.576-23.472 11.696-36.352 15.216v21.552c-0.016 17.728-14.384 32.080-32.096 32.080h-16.032c-17.712 0-32.096-14.352-32.096-32.080v-21.552c-12.88-3.52-25.056-8.64-36.352-15.216l-18.464 18.464c-12.512 12.528-32.832 12.528-45.36 0l-11.344-11.328c-12.528-12.528-12.528-32.848 0-45.376l18.816-18.832c-6.128-10.896-10.88-22.64-14.192-34.992h-20.912c-17.728 0.016-32.080-14.352-32.080-32.080v-16.032c0-17.712 14.352-32.080 32.080-32.080h21.168c3.456-12.464 8.384-24.272 14.704-35.248l-19.584-19.568c-12.528-12.528-12.528-32.848 0-45.376l11.344-11.344c12.528-12.528 32.848-12.528 45.36 0l19.696 19.696c10.944-6.224 22.704-11.072 35.104-14.448v-20.544c0-17.696 14.368-32.080 32.096-32.080h16.032c17.712 0 32.080 14.368 32.080 32.080v20.544c12.4 3.376 24.192 8.24 35.104 14.448l19.696-19.696c12.56-12.512 32.864-12.512 45.408 0.016zM200 185.717c-48.72 0-88.224 39.488-88.224 88.224 0 48.72 39.504 88.224 88.224 88.224s88.224-39.504 88.224-88.224c0-48.736-39.504-88.224-88.224-88.224zM200 315.029c-22.16 0-40.112-17.952-40.112-40.096s17.952-40.096 40.112-40.096c22.144 0 40.096 17.952 40.096 40.096s-17.952 40.096-40.096 40.096zM400.992 13.637c-10.752 0-19.456-8.704-19.456-19.456 0-10.736 8.704-19.44 19.456-19.44 10.736 0 19.456 8.704 19.456 19.44 0 10.752-8.72 19.456-19.456 19.456zM482.432 13.397h-10.144c-1.616 5.984-3.92 11.68-6.896 16.976l9.12 9.12c6.080 6.080 6.080 15.936 0 22l-5.504 5.504c-6.080 6.080-15.92 6.080-22 0l-8.96-8.944c-5.472 3.184-11.392 5.664-17.632 7.376v10.432c0 8.592-6.976 15.568-15.568 15.568h-7.776c-8.592 0-15.568-6.976-15.568-15.568v-10.432c-6.256-1.712-12.16-4.192-17.632-7.376l-8.96 8.944c-6.080 6.080-15.936 6.080-22 0l-5.504-5.504c-6.080-6.064-6.080-15.92 0-22l9.12-9.12c-2.992-5.28-5.28-10.992-6.896-16.976h-10.144c-8.592 0-15.568-6.976-15.568-15.568v-7.776c0-8.592 6.976-15.568 15.568-15.568h10.272c1.664-6.032 4.064-11.76 7.12-17.088l-9.488-9.488c-6.080-6.080-6.080-15.92 0-22.016l5.504-5.504c6.064-6.064 15.92-6.064 22 0l9.552 9.568c5.312-3.008 11.008-5.376 17.024-7.008v-9.968c0-8.592 6.976-15.568 15.568-15.568h7.776c8.592 0 15.568 6.976 15.568 15.568v9.968c6.016 1.632 11.712 3.984 17.008 7.008l9.568-9.568c6.080-6.064 15.92-6.064 22 0l5.504 5.504c6.080 6.096 6.080 15.936 0 22.016l-9.488 9.488c3.040 5.328 5.456 11.056 7.12 17.088h10.272c8.592 0 15.568 6.976 15.568 15.568v7.776c0.064 8.608-6.912 15.568-15.504 15.568zM400.992-49.083c-23.632 0-42.784 19.152-42.784 42.8 0 23.632 19.152 42.784 42.784 42.784s42.784-19.152 42.784-42.784c0-23.648-19.152-42.8-42.784-42.8z" />
<glyph unicode="&#xe64c;" d="M415.92 170.341h-21.184c-3.44-12.464-8.368-24.288-14.688-35.248l19.584-19.568c12.528-12.528 12.528-32.848 0-45.376l-11.344-11.344c-12.528-12.528-32.848-12.528-45.376 0l-19.712 19.696c-10.928-6.224-22.704-11.072-35.104-14.448v-20.544c0-17.712-14.352-32.080-32.080-32.080h-16.032c-17.712 0-32.096 14.352-32.096 32.080v20.544c-12.384 3.376-24.176 8.24-35.104 14.448l-19.696-19.696c-12.512-12.528-32.832-12.528-45.36 0l-11.36 11.344c-12.528 12.528-12.528 32.848 0 45.376l19.584 19.568c-6.32 10.976-11.248 22.784-14.704 35.248h-21.168c-17.728 0-32.080 14.352-32.080 32.064v16.048c0 17.712 14.352 32.080 32.080 32.080h20.928c3.312 12.336 8.048 24.080 14.192 34.976l-18.832 18.816c-12.528 12.528-12.528 32.848 0 45.376l11.344 11.328c12.528 12.528 32.848 12.528 45.36 0l18.448-18.448c11.296 6.576 23.488 11.696 36.352 15.2v21.568c0.016 17.728 14.4 32.080 32.112 32.080h16.032c17.712 0 32.080-14.352 32.080-32.080v-21.552c12.896-3.52 25.072-8.64 36.352-15.216l18.448 18.448c12.528 12.528 32.848 12.528 45.376 0l11.344-11.328c12.528-12.528 12.528-32.848 0-45.376l-18.816-18.816c6.144-10.896 10.88-22.64 14.208-34.992h20.928c17.712 0 32.080-14.368 32.080-32.080v-16.048c-0.016-17.696-14.368-32.048-32.096-32.048zM248 298.149c-48.72 0-88.224-39.504-88.224-88.224s39.504-88.224 88.224-88.224 88.224 39.504 88.224 88.224-39.504 88.224-88.224 88.224zM248 170.837c-22.144 0-40.112 17.936-40.112 40.096 0 22.144 17.968 40.096 40.112 40.096s40.096-17.952 40.096-40.096c0-22.16-17.952-40.096-40.096-40.096z" />
<glyph unicode="&#xe64d;" d="M444.528 348.453c15.344-37.008 8.032-81.184-22.064-111.28-33.136-33.136-83.216-38.32-122.144-16.352l-28.144-30.736 20.080-20.16 12 12c6.128 6.144 16.080 6.144 22.208 0l97.312-98.304c6.144-6.128 6.144-16.080 0-22.208l-44.416-44.416c-6.128-6.144-16.080-6.144-22.208 0l-97.312 98.304c-6.144 6.128-6.144 16.080 0 22.208l10.96 10.96-19.136 19.184-134.576-147.024c-12.272-12.272-32.16-12.272-44.416 0l-11.104 11.104c-12.272 12.272-12.272 32.16 0 44.416l153.312 128.4-101.824 102.096-32.16 0.016-37.216 59.84 29.952 30 61.2-37.456 0.4-31.488 103.008-103.408 29.968 25.088c-29.296 39.936-26.24 96.192 9.856 132.288 29.952 29.952 73.888 37.392 110.8 22.336l-65.984-65.072 55.536-55.536 66.112 65.2zM98.4 60.485c-6.128 6.128-16.064 6.128-22.208 0-6.144-6.144-6.144-16.080 0-22.224 6.144-6.128 16.080-6.128 22.208 0 6.144 6.16 6.144 16.096 0 22.224z" />
<glyph unicode="&#xe64e;" d="M448-20.571h-384c-26.512 0-48 21.504-48 48v224c0 26.512 21.488 48 48 48h32l135.888 104.288c-0.608 2.48-1.024 5.040-1.024 7.712 0 17.664 14.336 32 32 32s31.984-14.336 31.984-32c0-5.744-1.632-11.072-4.304-15.744l125.456-96.256h32c26.496 0 48-21.488 48-48v-224c0-26.496-21.504-48-48-48zM273.136 82.101h64.496v12.128h-50.88v91.008h-13.632v-103.136zM180.848 82.101l11.296 31.248h43.328l11.872-31.248h15.552l-42.048 103.12h-14.784l-39.648-103.12h14.432zM85.472 173.125c-2.944-4.544-4.416-9.424-4.416-14.624 0-4.752 1.2-9.024 3.616-12.864s6.080-7.024 10.992-9.632c3.776-2.016 10.384-4.16 19.824-6.432s15.536-3.952 18.304-5.024c4.304-1.664 7.392-3.664 9.296-6.080s2.864-5.216 2.864-8.448c0-3.168-0.976-6.128-2.912-8.832s-4.896-4.832-8.88-6.384c-3.968-1.568-8.544-2.336-13.728-2.336-5.84 0-11.088 1.008-15.76 3.072-4.688 2.032-8.128 4.72-10.336 8.048s-3.648 7.584-4.256 12.752l-12.88-1.12c0.192-6.896 2.080-13.056 5.664-18.512 3.584-5.472 8.512-9.568 14.8-12.288 6.304-2.72 14.096-4.080 23.408-4.080 7.328 0 13.936 1.344 19.808 4.048 5.872 2.688 10.368 6.432 13.504 11.296 3.136 4.848 4.704 10 4.704 15.488 0 5.52-1.44 10.384-4.304 14.624-2.864 4.256-7.296 7.744-13.312 10.496-4.144 1.872-11.728 4.064-22.768 6.56-11.056 2.512-17.888 4.976-20.496 7.376-2.672 2.368-4 5.424-4 9.12 0 4.288 1.888 7.92 5.648 10.944s9.744 4.544 17.968 4.544c7.904 0 13.872-1.664 17.904-4.96 4.048-3.312 6.4-8.208 7.104-14.672l13.12 0.992c-0.24 6.048-1.92 11.456-5.040 16.224-3.136 4.768-7.616 8.384-13.44 10.848s-12.544 3.68-20.176 3.68c-6.928 0-13.216-1.168-18.88-3.52-5.696-2.336-10-5.76-12.944-10.304zM282.848 386.629c-5.504-4.432-12.384-7.2-19.984-7.2-10.592 0-19.904 5.2-25.728 13.136l-125.136-93.136h288l-117.152 87.2zM430.976 94.229h-63.248v35.12h56.992v12.128h-56.992v31.632h60.88v12.128h-74.496v-103.12h76.88v12.112zM213.024 174.469c1.664-5.648 4.096-12.8 7.312-21.488l10.864-28.512h-35.184l11.44 30.192c2.352 6.512 4.208 13.12 5.568 19.808z" />
<glyph unicode="&#xe64f;" d="M448-20.571h-384c-26.512 0-48 21.504-48 48v224c0 26.512 21.488 48 48 48h384c26.496 0 48-21.488 48-48v-224c0-26.496-21.504-48-48-48zM128 186.773c-26.512 0-48-25.072-48-56 0-30.944 21.488-56 48-56 26.496 0 48 25.056 48 56 0 30.928-21.504 56-48 56zM252.48 173.061c-1.84 3.792-4.304 6.752-7.328 8.848-3.040 2.112-6.816 3.536-11.312 4.288-3.2 0.592-7.84 0.88-13.92 0.88h-28.528v-110.624h16.128v32.256h13.472c12.96 0 21.888 5.696 26.864 11.088 4.944 5.408 7.424 28.992 7.424 36.784-0.016 4.512-0.944 12.688-2.8 16.48zM336.384 92.309h-48.928v32.128h47.296v14.88h-47.296v32.88h48.8v14.88h-63.92v-110.624h64.048v15.856zM431.264 187.061h-14.624v-84.96l-48.192 84.96h-16.432v-110.624h15.632v80.976l48.192-80.976h15.44v110.624zM221.168 124.549h-13.648v47.632h13.408c5.488 0 9.248-0.272 11.296-0.816 3.152-0.88 5.712-2.656 7.648-5.376s2.912-6 2.912-9.808c0-5.28-1.648-24.352-4.944-27.264s-8.848-4.368-16.672-4.368zM128 89.429c-17.664 0-32 17.904-32 40s14.336 40 32 40 32-17.904 32-40-14.336-40-32-40zM400 299.429l-117.152 87.2c-5.504-4.432-12.4-7.2-20-7.2-10.592 0-19.904 5.2-25.712 13.136l-125.136-93.136h-16l135.888 104.288c-0.608 2.48-1.040 5.040-1.040 7.712 0 17.664 14.336 32 32 32 17.68 0 32-14.336 32-32 0-5.744-1.648-11.072-4.304-15.744l125.456-96.256h-16z" />
<glyph unicode="&#xe650;" d="M380.912 165.061h-28.128v-9.376h28.128v9.376zM275.968 136.933v-9.376h28.128v-9.376h9.376v37.504h-9.376v-18.752h-28.128zM275.968 99.429h18.752v9.376h-18.752v-9.376zM294.72 108.805h9.376v9.376h-9.376v-9.376zM275.968 155.685h-9.376v-18.752h9.376v18.752zM224 347.429h-32v-160h32v160zM256 347.429h-16v-160h16v160zM352.784 99.429h28.128v9.376h-28.128v-9.376zM304.096 165.061h-28.128v-9.376h28.128v9.376zM390.288 108.805v46.88h-9.376v-46.88h9.376zM400 347.429h-16v-160h16v160zM199.168 118.181h-9.376v-9.376h9.376v9.376zM320 347.429h-32v-160h32v160zM352 347.429h-16v-160h16v160zM343.408 108.805h9.376v46.88h-9.376v-46.88zM112.992 99.429h46.88v9.376h-37.504v9.376h-9.376v-18.752zM112.992 146.309h9.376v9.376h-9.376v-9.376zM131.744 127.557h18.752v9.376h-18.752v-9.376zM208.544 136.933v-9.376h18.752v9.376h-18.752zM122.368 165.061v-9.376h28.128v9.376h-28.128zM128 347.429h-16v-160h16v160zM480 411.429h-448c-17.664 0-32-14.336-32-32v-320c0-17.664 14.336-32 32-32h448c17.664 0 32 14.336 32 32v320c0 17.664-14.336 32-32 32zM480 59.429h-448v320h448v-320zM96 347.429h-32v-256h32v256zM122.368 118.181h9.376v9.376h-9.376v-9.376zM236.672 155.685h-9.376v-18.752h9.376v18.752zM199.168 165.061v-9.376h28.128v9.376h-28.128zM159.872 136.933v18.752h-9.376v-18.752h9.376zM189.792 146.309h9.376v9.376h-9.376v-9.376zM176 347.429h-16v-160h16v160zM236.672 127.557h-9.376v-18.752h9.376v18.752zM227.296 99.429v9.376h-28.128v-9.376h28.128zM448 347.429h-32v-256h32v256z" />
<glyph unicode="&#xe651;" d="M109.712 146.293v-36.576h-36.576v36.576h36.576zM109.712 365.717v-36.576h-36.576v36.576h36.576zM329.136 365.717v-36.576h-36.576v36.576h36.576zM36.576 73.429h109.712v109.424h-109.712v-109.424zM36.576 292.565h109.712v109.712h-109.712v-109.712zM256 292.565h109.712v109.712h-109.712v-109.712zM182.864 219.429v-182.864h-182.864v182.864h182.864zM329.136 73.141v-36.576h-36.576v36.576h36.576zM402.288 73.141v-36.576h-36.576v36.576h36.576zM402.288 219.429v-109.712h-109.712v36.576h-36.576v-109.712h-36.576v182.864h109.712v-36.576h36.576v36.576h36.576zM182.864 438.853v-182.864h-182.864v182.864h182.864zM402.288 438.853v-182.864h-182.864v182.864h182.864z" horiz-adv-x="400" />
<glyph unicode="&#xe652;" d="M432.032 395.349h-368.080c-8.816 0-15.952 7.152-15.952 16 0 8.832 7.136 15.984 15.952 15.984h168.576v16c0 8.832 7.152 15.984 15.968 15.984s15.952-7.152 15.952-15.984v-16h167.584c8.832 0 15.968-7.168 15.968-15.984 0-8.848-7.136-16-15.968-16zM432.032 139.461h-368.080v239.904h368.080v-239.904zM112 266.917c0-35.408 28.656-64.112 64-64.112s64 28.704 64 64.112h-64v64.144c-35.344 0-64-28.72-64-64.144zM288.384 331.381h-15.952v-15.984h15.952v15.984zM288.384 299.397h-15.952v-15.984h15.952v15.984zM288.384 267.413h-15.952v-15.984h15.952v15.984zM288.384 235.429h-15.952v-16h15.952v16zM288.384 203.429h-15.952v-16h15.952v16zM384.16 331.381h-79.792v-15.984h79.792v15.984zM384.16 299.397h-79.792v-15.984h79.792v15.984zM384.16 267.413h-79.792v-15.984h79.792v15.984zM384.16 235.429h-79.792v-16h79.792v16zM384.16 203.429h-79.792v-16h79.792v16zM204.496 59.493h36.016v79.968h15.968v-79.968h35.456l-35.456 79.968h31.92l63.824-143.936h-31.904l-21.28 48h-42.56v-79.968h-15.968v79.968h-43.216l-21.616-48h-31.92l64.832 143.936h31.92l-36.016-79.968zM256.48 139.461v0 0 0zM240.512 139.461v0 0 0z" />
<glyph unicode="&#xe653;" d="M265.278 62.684v18.482c62.2-1.837 111.207-21.785 111.207-46.149 0-25.589-53.924-47.504-120.467-47.504s-120.467 21.915-120.467 47.504c0 24.365 49.007 44.331 111.189 46.149v-18.482c-51.939-1.281-92.651-13.175-92.651-27.667 0-15.346 45.63-30.116 101.929-30.116 56.281 0 101.911 14.771 101.911 30.116-0.019 14.492-40.712 26.368-92.651 27.667zM154.238 349.415c0 56.281 46.781 101.929 103.098 101.929 56.3 0 101.929-45.648 101.929-101.929 0-48.376-33.735-88.81-78.975-99.238l-24.29-245.295-24.364 245.981c-43.829 11.412-77.398 51.141-77.398 98.552zM256 376.711c0 15.365-12.452 27.797-27.797 27.797-15.364 0-27.816-12.433-27.816-27.797 0-15.346 12.452-27.797 27.816-27.797s27.797 12.433 27.797 27.797z" />
<glyph unicode="&#xe654;" d="M251.104 258.773l42.656-42.64 80.256 80.272 41.44-41.44 0.064 123.744-124.56 0.736 40.416-40.4-80.272-80.272zM414.816 204.309l-30.72 31.152 0.56-144.112-256.24-0.144 0.256 255.568 143.328 0.64-32 32h-112c-17.664 0-32-14.336-32-32v-256c0-17.664 14.336-32 32-32h256c17.664 0 32 14.336 32 32l-1.184 112.896z" />
<glyph unicode="&#xe655;" d="M240 204.613l124.544-0.736-40.4 40.4 80.272 80.272-42.656 42.64-80.256-80.272-41.44 41.456-0.064-123.76zM414.816 204.325l-30.72 31.152 0.56-144.112-256.24-0.144 0.256 255.584 143.328 0.624-32 32h-112c-17.664 0-32-14.336-32-32v-256c0-17.664 14.336-32 32-32h256c17.664 0 32 14.336 32 32l-1.184 112.896z" />
<glyph unicode="&#xe656;" d="M170.896 184.117l-35.344-90.72 89.152 36.912-53.808 53.808zM429.68 377.877l-11.312 11.312c-12.48 12.496-32.752 12.496-45.248 0l-22.624-22.624 56.56-56.576 22.624 22.624c12.512 12.496 12.512 32.768 0 45.264zM172.688 188.741l8.096 8.096 56.56-56.56 158.4 158.4-56.56 56.56 11.312 11.328-177.808-177.824zM368.064 59.365l-272.416-0.096 0.048 272.416 190.736 0.064 29.888 31.68h-236.88c-8.832 0-16-7.152-16-16v-304c0-8.848 7.168-16 16-16h304c8.848 0 16 7.152 16 16v224.928l-32.24-31.632 0.864-177.36z" />
<glyph unicode="&#xe657;" d="M256 11.429c-114.88 0-208 93.12-208 208s93.12 208 208 208 208-93.12 208-208-93.12-208-208-208zM256 379.429c-88.352 0-160-71.632-160-160 0-88.352 71.648-160 160-160 88.368 0 160 71.648 160 160 0 88.368-71.632 160-160 160zM319.808 203.429h-48v-48c0-8.848-7.168-16-16-16-8.848 0-16 7.152-16 16v48h-48c-8.848 0-16 7.168-16 16s7.152 16 16 16h48v48c0 8.848 7.152 16 16 16 8.832 0 16-7.152 16-16v-48h48c8.832 0 16-7.168 16-16s-7.168-16-16-16z" />
<glyph unicode="&#xe658;" d="M256 427.429c-114.88 0-208-93.12-208-208s93.12-208 208-208 208 93.12 208 208-93.12 208-208 208zM256 59.429c-88.352 0-160 71.648-160 160 0 88.368 71.648 160 160 160 88.368 0 160-71.632 160-160 0-88.352-71.632-160-160-160zM315.808 235.429h-128c-8.848 0-16-7.168-16-16 0-8.848 7.152-16 16-16h128c8.848 0 16 7.152 16 16 0 8.832-7.152 16-16 16z" />
<glyph unicode="&#xe659;" d="M248 3.429c-114.88 0-208 93.12-208 208s93.12 208 208 208 208-93.12 208-208-93.12-208-208-208zM351.008 220.421c0 8.832-7.168 16-16 16h-64v64c0 8.832-7.152 16-16 16h-16c-8.848 0-16-7.168-16-16v-64h-64c-8.848 0-16-7.168-16-16v-16c0-8.848 7.152-16 16-16h64v-64c0-8.848 7.152-16 16-16h16c8.848 0 16 7.152 16 16v64h64c8.832 0 16 7.152 16 16v16z" />
<glyph unicode="&#xe65a;" d="M256 434.469c-118.784 0-215.040-96.304-215.040-215.040 0-118.784 96.288-215.040 215.040-215.040s215.040 96.288 215.040 215.040c0 118.752-96.288 215.040-215.040 215.040zM385.28 245.589v-52.352h-258.56v52.352h258.56z" />
<glyph unicode="&#xe65b;" d="M256 11.429c-114.88 0-208 93.12-208 208s93.12 208 208 208 208-93.12 208-208-93.12-208-208-208zM351.376 280.085c3.904 3.904 3.904 10.256 0 14.16l-21.248 21.232c-3.904 3.904-10.256 3.904-14.16 0l-60.176-60.176-60.176 60.176c-3.904 3.904-10.256 3.904-14.16 0l-21.248-21.232c-3.904-3.904-3.904-10.256 0-14.16l60.192-60.192-60.192-60.16c-3.904-3.904-3.904-10.256 0-14.16l21.248-21.248c3.904-3.904 10.256-3.904 14.16 0l60.176 60.192 60.176-60.192c3.904-3.904 10.256-3.904 14.16 0l21.248 21.248c3.904 3.904 3.904 10.256 0 14.16l-60.192 60.16 60.192 60.192z" />
<glyph unicode="&#xe65c;" d="M409.6 424.229h-307.2c-28.16 0-51.2-23.040-51.2-51.2v-307.2c0-28.16 23.040-51.2 51.2-51.2h307.2c28.16 0 51.2 23.040 51.2 51.2v307.2c0 28.16-23.040 51.2-51.2 51.2zM384 193.829h-102.4v-102.4h-51.2v102.4h-102.4v51.2h102.4v102.4h51.2v-102.4h102.4v-51.2z" />
<glyph unicode="&#xe65d;" d="M409.6 424.229h-307.2c-28.16 0-51.2-23.040-51.2-51.2v-307.2c0-28.16 23.040-51.2 51.2-51.2h307.2c28.16 0 51.2 23.040 51.2 51.2v307.2c0 28.16-23.040 51.2-51.2 51.2zM384 193.829h-256v51.2h256v-51.2z" />
<glyph unicode="&#xe65e;" d="M0 267.429v-96c0-8.832 7.168-16 16-16h480c8.832 0 16 7.168 16 16v96c0 8.832-7.168 16-16 16h-480c-8.832 0-16-7.168-16-16z" />
<glyph unicode="&#xe65f;" d="M496 283.429h-176v176c0 8.832-7.168 16-16 16h-96c-8.832 0-16-7.168-16-16v-176h-176c-8.832 0-16-7.168-16-16v-96c0-8.832 7.168-16 16-16h176v-176c0-8.832 7.168-16 16-16h96c8.832 0 16 7.168 16 16v176h176c8.832 0 16 7.168 16 16v96c0 8.832-7.168 16-16 16z" />
<glyph unicode="&#xe660;" d="M389.088 245.029h-107.52v107.52c0 14.128-11.44 15.36-25.6 15.36-14.128 0-25.6-1.2-25.6-15.36v-107.52h-107.488c-14.16 0-15.36-11.472-15.36-25.6s1.2-25.6 15.36-25.6h107.488v-107.52c0-14.128 11.472-15.36 25.6-15.36 14.16 0 25.6 1.232 25.6 15.36v107.52h107.52c14.16 0 15.392 11.472 15.392 25.6s-1.232 25.6-15.392 25.6z" />
<glyph unicode="&#xe661;" d="M389.088 245.029h-266.208c-14.16 0-15.36-11.472-15.36-25.6s1.2-25.6 15.36-25.6h266.208c14.16 0 15.392 11.472 15.392 25.6s-1.232 25.6-15.392 25.6z" />
<glyph unicode="&#xe662;" d="M313.392 219.413l97.536-97.536c6.336-6.336 6.336-16.624 0-22.96l-34.416-34.416c-6.336-6.336-16.608-6.336-22.96 0l-97.552 97.536-97.552-97.536c-6.336-6.336-16.608-6.336-22.944 0l-34.432 34.416c-6.336 6.336-6.336 16.608 0 22.96l97.552 97.536-97.552 97.552c-6.336 6.336-6.336 16.624 0 22.96l34.448 34.416c6.336 6.336 16.608 6.336 22.944 0l97.536-97.552 97.552 97.552c6.336 6.336 16.608 6.336 22.96 0l34.416-34.432c6.336-6.336 6.336-16.608 0-22.96l-97.536-97.536z" />
<glyph unicode="&#xe663;" d="M463.968 338.933l-34.144 34.144c-6.304 6.288-16.48 6.288-22.768 0l-204.72-204.72-97.376 98.080c-6.288 6.288-16.464 6.288-22.768 0l-34.144-34.144c-6.288-6.304-6.288-16.48 0-22.768l142.784-143.744c6.288-6.288 16.48-6.288 22.768 0l250.368 250.384c6.288 6.272 6.288 16.48 0 22.768z" />
<glyph unicode="&#xe664;" d="M349.12 266.949l-16.032 16.032c-2.96 2.96-7.744 2.96-10.688 0l-96.224-96.208-45.744 46.112c-2.976 2.96-7.744 2.96-10.72 0l-16.032-16.048c-2.96-2.96-2.96-7.744 0-10.688l67.088-67.568c2.96-2.944 7.744-2.944 10.688 0l117.664 117.664c2.976 2.96 2.976 7.744 0 10.704zM256 427.429c-114.88 0-208-93.12-208-208s93.12-208 208-208 208 93.12 208 208-93.12 208-208 208zM256 59.429c-88.352 0-160 71.648-160 160 0 88.368 71.648 160 160 160 88.368 0 160-71.632 160-160 0-88.352-71.632-160-160-160z" />
<glyph unicode="&#xe665;" d="M256 427.429c-114.88 0-208-93.12-208-208s93.12-208 208-208 208 93.12 208 208-93.12 208-208 208zM372.128 278.517l-151.776-151.76c-3.808-3.792-9.968-3.792-13.776 0l-3.056 3.056-0.016-0.016-83.504 84.096c-3.808 3.808-3.808 9.984 0 13.792l20.704 20.688c3.808 3.808 9.984 3.808 13.792 0l59.024-59.456 124.096 124.096c3.808 3.808 9.984 3.808 13.792 0l20.704-20.704c3.824-3.792 3.824-9.968 0.016-13.792z" />
<glyph unicode="&#xe666;" d="M256 11.429c-114.88 0-208 93.12-208 208s93.12 208 208 208 208-93.12 208-208-93.12-208-208-208zM256 379.429c-88.352 0-160-71.648-160-160s71.648-160 160-160c88.368 0 160 71.648 160 160s-71.632 160-160 160zM328.592 162.869l-16.224-16.224c-2.976-2.976-7.808-2.976-10.8 0l-45.92 45.92-45.92-45.92c-2.992-2.976-7.808-2.976-10.8 0l-16.224 16.224c-2.976 2.976-2.976 7.808 0 10.8l45.936 45.904-45.936 45.92c-2.976 2.992-2.976 7.824 0 10.816l16.224 16.208c2.992 2.992 7.808 2.992 10.8 0l45.92-45.92 45.92 45.92c2.992 2.992 7.824 2.992 10.8 0l16.224-16.208c2.976-2.992 2.976-7.824 0-10.816l-45.936-45.92 45.936-45.904c2.976-2.992 2.976-7.84 0-10.8z" />
<glyph unicode="&#xe667;" d="M252.88 454.917c-130.080-1.744-234.112-108.592-232.368-238.672 1.744-130 108.592-234.064 238.672-232.32 130.016 1.744 234.080 108.592 232.32 238.672-1.712 130.016-108.576 234.064-238.624 232.32zM252.192 76.069h-1.312c-20.016 0.592-34.144 15.36-33.584 35.104 0.56 19.376 15.024 33.488 34.4 33.488l1.184-0.032c20.576-0.608 34.56-15.232 33.952-35.536-0.56-19.424-14.816-33.024-34.64-33.024zM336.432 243.285c-4.736-6.688-15.072-15.008-28.128-25.168l-14.384-9.936c-7.888-6.144-12.64-11.904-14.416-17.568-1.44-4.512-2.096-5.664-2.224-14.752l-0.032-2.336h-54.864l0.16 4.656c0.672 19.104 1.152 30.304 9.056 39.6 12.416 14.56 39.808 32.208 40.96 32.944 3.92 2.976 7.216 6.32 9.696 9.904 5.76 7.936 8.288 14.208 8.288 20.32 0 8.528-2.528 16.416-7.52 23.424-4.816 6.784-13.952 10.208-27.168 10.208-13.104 0-22.064-4.176-27.44-12.704-5.552-8.784-8.32-17.968-8.32-27.392v-2.352h-56.576l0.096 2.464c1.456 34.656 13.824 59.6 36.768 74.16 14.384 9.296 32.304 13.984 53.2 13.984 27.36 0 50.512-6.656 68.688-19.76 18.432-13.28 27.776-33.2 27.776-59.168 0-14.544-4.576-28.192-13.616-40.576z" />
<glyph unicode="&#xe668;" d="M346.281 390.857c-25.191 18.169-56.77 27.233-94.833 27.233-28.958 0-53.376-6.401-73.215-19.163-31.496-20.004-48.231-53.942-50.259-101.842h72.981c0 13.947 4.056 27.399 12.209 40.326s21.963 19.397 41.457 19.397c19.797 0 33.469-5.256 40.919-15.741 7.478-10.526 11.216-22.156 11.216-34.918 0-11.106-5.56-21.26-12.279-30.502-3.683-5.38-8.567-10.333-14.596-14.872 0 0-39.581-25.385-56.977-45.775-10.085-11.837-10.995-29.537-11.879-54.935-0.069-1.808 0.62-5.546 6.953-5.546s51.141 0 56.77 0 6.801 4.166 6.884 6.002c0.4 9.243 1.435 13.976 3.132 19.315 3.201 10.085 11.851 18.901 21.604 26.461l20.087 13.865c18.128 14.127 32.6 25.715 38.988 34.807 10.899 14.969 18.569 33.373 18.569 55.212 0 35.649-12.61 62.537-37.745 80.678zM250.289 110.745c-25.164 0.745-45.913-16.637-46.713-43.926-0.8-27.26 18.942-45.278 44.106-46.023 26.268-0.772 46.465 16.072 47.265 43.333 0.772 27.289-18.39 45.844-44.658 46.616z" />
<glyph unicode="&#xe669;" d="M267.808 291.781c-3.728 3.040-8 4.576-12.816 4.576s-9.104-1.536-12.88-4.576c-3.776-3.056-6.704-8.512-8.784-16.384-2.736-10.224-4.096-27.424-4.096-51.616s1.216-40.816 3.664-49.856 5.552-15.056 9.264-18.080c3.728-3.008 8-4.48 12.816-4.48s9.088 1.52 12.88 4.56 6.688 8.512 8.784 16.384c2.72 10.128 4.096 27.28 4.096 51.472s-1.216 40.816-3.68 49.856c-2.448 9.040-5.52 15.088-9.248 18.144zM256 427.429c-114.88 0-208-93.12-208-208s93.12-208 208-208 208 93.12 208 208-93.12 208-208 208zM301.728 139.701c-11.168-14.064-26.752-21.088-46.736-21.088-20.080 0-36.272 7.696-48.56 23.12s-18.432 42.912-18.432 82.464c0 38.816 6.752 66.752 20.272 83.808 11.168 14.064 26.752 21.088 46.736 21.088s35.616-7.12 46.88-21.376c13.408-16.88 20.128-44.848 20.128-83.952-0.016-38.992-6.784-67.024-20.288-84.064z" />
<glyph unicode="&#xe66a;" d="M254.88 292.341c-7.344 0-13.44-2.88-18.288-8.624-4.848-5.76-7.264-15.184-7.264-28.288 0-13.28 2.64-23.024 7.904-29.248 5.264-6.24 11.856-9.344 19.744-9.344 7.632 0 14.048 3.008 19.264 8.992s7.824 14.784 7.824 26.384c0 12.72-2.944 22.592-8.816 29.616s-12.672 10.512-20.368 10.512zM256 427.429c-114.88 0-208-93.12-208-208s93.12-208 208-208 208 93.12 208 208-93.12 208-208 208zM307.408 139.381c-13.936-16.704-32.096-25.040-54.448-25.040-16.112 0-29.104 4.32-39.024 12.912-9.92 8.624-16.288 21.488-19.088 38.608l38.256 4.24c0.944-7.808 3.376-13.6 7.296-17.36 3.904-3.76 9.088-5.648 15.552-5.648 8.128 0 15.040 3.744 20.752 11.28 5.68 7.536 9.328 23.104 10.928 46.768-9.952-11.536-22.384-17.296-37.312-17.296-16.24 0-30.256 6.256-42.032 18.752-11.776 12.512-17.664 28.784-17.664 48.832 0 20.88 6.224 37.712 18.64 50.496 12.432 12.784 28.272 19.168 47.504 19.168 20.912 0 38.080-8.096 51.504-24.272 13.408-16.176 20.112-42.8 20.112-79.84-0.048-37.712-7.024-64.896-20.976-81.6z" />
<glyph unicode="&#xe66b;" d="M259.424 208.837c-9.664 0-16.848-3.344-21.584-10.064-4.736-6.704-7.088-13.968-7.088-21.808 0-10.976 2.784-19.52 8.352-25.664s12.528-9.216 20.88-9.216c8.16 0 14.912 2.976 20.256 8.88s8.016 14.416 8.016 25.584c0 9.728-2.72 17.552-8.16 23.456-5.44 5.888-12.336 8.832-20.672 8.832zM258.864 240.101c7.472 0 13.44 2.24 17.92 6.688 4.464 4.464 6.72 10.64 6.72 18.528 0 7.424-2.224 13.36-6.656 17.824s-10.288 6.688-17.568 6.688c-7.568 0-13.584-2.256-18.064-6.752-4.48-4.512-6.72-10.48-6.72-17.904 0-7.888 2.224-14.048 6.64-18.464 4.448-4.4 10.352-6.608 17.728-6.608zM256 427.429c-114.88 0-208-93.12-208-208s93.12-208 208-208 208 93.12 208 208-93.12 208-208 208zM309.040 128.245c-12.144-11.936-28.288-17.904-48.416-17.904-18.752 0-34.336 4.944-46.816 14.816-14.704 11.664-22.064 27.632-22.064 47.936 0 11.168 2.768 21.44 8.32 30.784 5.536 9.344 14.272 16.56 26.192 21.648-10.224 4.304-17.664 10.224-22.288 17.76-4.656 7.536-6.976 15.776-6.976 24.768 0 15.344 5.36 28.016 16.096 38.032 10.736 10 26 15.008 45.776 15.008 19.6 0 34.816-5.008 45.632-15.008 10.848-10.016 16.256-22.688 16.256-38.032 0-9.552-2.48-18.032-7.456-25.472-4.992-7.424-11.968-13.12-20.976-17.040 11.408-4.608 20.080-11.328 26.016-20.16s8.912-19.024 8.912-30.576c0-19.12-6.080-34.624-18.208-46.56z" />
<glyph unicode="&#xe66c;" d="M256 427.429c-114.88 0-208-93.12-208-208s93.12-208 208-208 208 93.12 208 208-93.12 208-208 208zM326.176 286.181c-11.152-10.992-22.48-26.736-34-47.28s-20.304-42.368-26.336-65.504c-6.032-23.12-8.992-43.776-8.912-61.968h-38c0.64 28.496 6.512 57.6 17.616 87.232 11.072 29.648 25.872 56.16 44.4 79.52h-90.016v36.752h135.248v-28.752z" />
<glyph unicode="&#xe66d;" d="M256.992 218.837c-7.616 0-14.032-2.976-19.28-8.928-5.264-5.952-7.888-14.736-7.888-26.352 0-12.848 2.96-22.752 8.88-29.728 5.904-6.992 12.656-10.48 20.272-10.48 7.312 0 13.424 2.88 18.304 8.592s7.312 15.072 7.312 28.112c0 13.408-2.624 23.216-7.872 29.456s-11.84 9.328-19.728 9.328zM256 427.429c-114.88 0-208-93.12-208-208s93.12-208 208-208 208 93.12 208 208-93.12 208-208 208zM304.752 129.717c-12.368-12.752-28.288-19.104-47.68-19.104-20.832 0-37.952 8.080-51.36 24.256-13.424 16.176-20.128 42.672-20.128 79.52 0 37.776 7.008 65.008 20.992 81.696 13.968 16.688 32.128 25.024 54.464 25.024 15.664 0 28.64-4.4 38.912-13.2 10.288-8.816 16.832-21.584 19.648-38.336l-38.256-4.208c-0.944 7.84-3.392 13.648-7.328 17.376-3.952 3.744-9.072 5.616-15.376 5.616-8.368 0-15.456-3.728-21.232-11.216-5.776-7.472-9.424-23.040-10.928-46.72 9.84 11.616 22.096 17.424 36.752 17.424 16.512 0 30.656-6.272 42.432-18.816s17.664-28.752 17.664-48.608c0-21.088-6.192-37.984-18.576-50.704z" />
<glyph unicode="&#xe66e;" d="M256 427.429c-114.88 0-208-93.12-208-208s93.12-208 208-208 208 93.12 208 208-93.12 208-208 208zM312.736 144.549c-13.424-18.192-32.048-27.28-55.872-27.28-19.040 0-34.56 5.104-46.576 15.344-12 10.256-19.184 24.032-21.536 41.312l39.504 4.096c1.12-8.944 4.448-16 9.968-21.184 5.52-5.216 11.872-7.808 19.072-7.808 8.24 0 15.184 3.344 20.912 10.032 5.68 6.688 8.544 16.784 8.544 30.288 0 12.64-2.848 22.128-8.512 28.448-5.68 6.32-13.088 9.488-22.208 9.488-11.36 0-21.568-4.992-30.576-15.008l-31.952 4.624 20.256 107.376h104.496v-36.992h-74.528l-6.352-35.072c8.848 4.368 17.872 6.576 27.088 6.576 17.584 0 32.48-6.384 44.72-19.136 12.224-12.752 18.336-29.312 18.336-49.648-0.016-16.992-4.944-32.144-14.784-45.456z" />
<glyph unicode="&#xe66f;" d="M261.744 194.101v70.48l-47.536-70.48h47.536zM256 427.429c-114.88 0-208-93.12-208-208s93.12-208 208-208 208 93.12 208 208-93.12 208-208 208zM325.504 159.605h-25.504v-41.52h-38.256v41.52h-84.496v34.352l89.568 131.136h33.184v-130.992h25.504v-34.496z" />
<glyph unicode="&#xe670;" d="M256 427.429c-114.88 0-208-93.12-208-208s93.12-208 208-208 208 93.12 208 208-93.12 208-208 208zM303.92 133.717c-13.216-12.752-29.664-19.104-49.376-19.104-18.656 0-34.128 5.36-46.4 16.080-12.304 10.72-19.424 24.72-21.392 42.032l38.256 4.624c1.216-9.712 4.496-17.136 9.856-22.288 5.328-5.136 11.808-7.712 19.408-7.712 8.16 0 15.024 3.104 20.624 9.312 5.568 6.192 8.352 14.544 8.352 25.056 0 9.936-2.672 17.84-8.016 23.664-5.36 5.824-11.872 8.72-19.568 8.72-5.072 0-11.12-0.992-18.176-2.944l4.352 31.952c10.688-0.288 18.848 2.032 24.464 6.944s8.416 11.44 8.416 19.584c0 6.928-2.048 12.432-6.16 16.56-4.128 4.112-9.584 6.176-16.4 6.176-6.736 0-12.464-2.336-17.232-7.008-4.768-4.688-7.664-11.52-8.704-20.496l-36.496 6.176c2.528 12.512 6.352 22.512 11.472 30s12.24 13.36 21.376 17.648 19.392 6.416 30.736 6.416c19.408 0 34.976-6.192 46.688-18.576 9.664-10.128 14.48-21.568 14.48-34.32 0-18.096-9.904-32.544-29.728-43.328 11.824-2.528 21.28-8.208 28.352-17.008 7.088-8.816 10.624-19.44 10.624-31.904 0.016-18.112-6.592-33.52-19.808-46.256z" />
<glyph unicode="&#xe671;" d="M256 427.429c-114.88 0-208-93.12-208-208s93.12-208 208-208 208 93.12 208 208-93.12 208-208 208zM325.472 148.613v-36.752h-138.496c1.488 13.872 5.984 27.008 13.488 39.44 7.488 12.416 22.288 28.912 44.384 49.44 17.776 16.592 28.688 27.84 32.72 33.744 5.44 8.16 8.16 16.224 8.16 24.192 0 8.816-2.352 15.6-7.056 20.336s-11.2 7.104-19.504 7.104c-8.192 0-14.72-2.496-19.568-7.472s-7.648-13.232-8.368-24.784l-39.504 3.952c2.336 21.744 9.68 37.36 22.048 46.848 12.352 9.472 27.824 14.208 46.368 14.208 20.32 0 36.288-5.488 47.904-16.448 11.616-10.976 17.424-24.608 17.424-40.912 0-9.28-1.664-18.112-4.992-26.496s-8.592-17.184-15.808-26.352c-4.784-6.080-13.424-14.864-25.936-26.304-12.496-11.424-20.416-19.008-23.744-22.752-3.328-3.76-6.016-7.408-8.080-10.976h78.56z" />
<glyph unicode="&#xe672;" d="M256 427.429c-114.88 0-208-93.12-208-208s93.12-208 208-208 208 93.12 208 208-93.12 208-208 208zM284.112 114.853h-39.504v148.88c-14.416-13.456-31.424-23.408-51.008-29.872v35.744c10.304 3.376 21.504 9.792 33.584 19.232 12.096 9.44 20.368 20.448 24.88 33.024h32.048v-207.008z" />
<glyph unicode="&#xe673;" d="M256 427.429c-114.88 0-208-93.12-208-208s93.12-208 208-208 208 93.12 208 208-93.12 208-208 208zM256 43.429c-97.2 0-176 78.8-176 176s78.8 176 176 176 176-78.8 176-176-78.8-176-176-176zM255.904 303.637c-15.568 0-27.664-5.472-36.352-16.416-10.512-13.28-15.76-35.008-15.76-65.184 0-30.768 4.784-52.16 14.336-64.16s22.16-17.984 37.776-17.984c15.536 0 27.664 5.472 36.336 16.4 10.512 13.264 15.776 35.072 15.776 65.408 0 30.4-5.216 52.176-15.664 65.312-8.752 11.072-20.912 16.624-36.448 16.624zM272.72 181.685c-1.632-6.128-3.888-10.368-6.816-12.752-2.944-2.368-6.288-3.552-10-3.552-3.744 0-7.056 1.168-9.952 3.504s-5.296 7.008-7.2 14.048-2.848 19.968-2.848 38.768 1.056 32.192 3.184 40.128c1.6 6.128 3.872 10.368 6.816 12.736 2.928 2.368 6.256 3.552 10 3.552 3.712 0 7.024-1.184 9.936-3.552 2.896-2.368 5.28-7.072 7.184-14.112s2.88-19.968 2.88-38.768-1.056-32.128-3.184-40z" />
<glyph unicode="&#xe674;" d="M256 427.429c-114.88 0-208-93.12-208-208s93.12-208 208-208 208 93.12 208 208-93.12 208-208 208zM256 43.429c-97.2 0-176 78.8-176 176s78.8 176 176 176 176-78.8 176-176-78.8-176-176-176zM249.744 294.037c-14.96 0-27.264-4.976-36.944-14.928-9.664-9.952-14.48-23.072-14.48-39.328 0-15.616 4.576-28.288 13.712-38.016 9.152-9.728 20.048-14.608 32.656-14.608 11.6 0 21.248 4.496 28.992 13.472-1.232-18.384-4.080-30.496-8.512-36.336-4.448-5.824-9.824-8.752-16.176-8.752-5.024 0-9.056 1.472-12.128 4.384s-4.96 7.424-5.68 13.488l-29.728-3.28c2.192-13.328 7.136-23.344 14.864-30.032 7.728-6.704 17.872-10.064 30.4-10.064 17.44 0 31.568 6.496 42.432 19.504 10.864 12.992 16.304 34.16 16.304 63.488 0 28.832-5.216 49.536-15.648 62.128-10.432 12.576-23.792 18.88-40.064 18.88zM264.88 216.661c-4.032-4.672-8.992-7.008-14.896-7.008-6.112 0-11.216 2.416-15.296 7.28s-6.112 12.464-6.112 22.816c0 10.208 1.872 17.568 5.616 22.048 3.76 4.48 8.464 6.72 14.16 6.72 5.968 0 11.216-2.736 15.776-8.208 4.544-5.472 6.832-13.168 6.832-23.088 0-9.040-2.016-15.888-6.080-20.56z" />
</font>
</defs>
</svg>
