<?xml version="1.0" standalone="no"?>
<!DOCTYPE svg PUBLIC "-//W3C//DTD SVG 1.1//EN" "http://www.w3.org/Graphics/SVG/1.1/DTD/svg11.dtd" >
<svg xmlns="http://www.w3.org/2000/svg">
<metadata>Generated by IcoMoon</metadata>
<defs>
<font id="lm-jd" horiz-adv-x="1024">
<font-face units-per-em="1024" ascent="960" descent="-64" />
<missing-glyph horiz-adv-x="1024" />
<glyph unicode="&#x20;" d="" horiz-adv-x="512" />
<glyph unicode="&#xe600;" d="M240 560c0-9.6 3.2-16 9.6-22.4l211.2-211.2c28.8-28.8 76.8-28.8 105.6 0l211.2 211.2c12.8 12.8 12.8 32 0 44.8s-32 12.8-44.8 0l-211.2-211.2c-3.2-3.2-6.4-3.2-6.4-3.2s-3.2 0-6.4 3.2l-211.2 211.2c-12.8 12.8-32 12.8-44.8 0-9.6-6.4-12.8-16-12.8-22.4z" />
<glyph unicode="&#xe601;" d="M624 176c-9.6 0-16 3.2-22.4 9.6l-211.2 211.2c-28.8 28.8-28.8 76.8 0 105.6l211.2 211.2c12.8 12.8 32 12.8 44.8 0s12.8-32 0-44.8l-211.2-211.2c-3.2-3.2-3.2-6.4-3.2-6.4s0-3.2 3.2-6.4l211.2-211.2c12.8-12.8 12.8-32 0-44.8-6.4-9.6-16-12.8-22.4-12.8z" />
<glyph unicode="&#xe602;" d="M400 176c9.6 0 16 3.2 22.4 9.6l211.2 211.2c28.8 28.8 28.8 76.8 0 105.6l-211.2 211.2c-12.8 12.8-32 12.8-44.8 0s-12.8-32 0-44.8l211.2-211.2c3.2-3.2 3.2-6.4 3.2-6.4s0-3.2-3.2-6.4l-211.2-211.2c-12.8-12.8-12.8-32 0-44.8 6.4-9.6 16-12.8 22.4-12.8z" />
<glyph unicode="&#xe603;" d="M784 336c0 9.6-3.2 16-9.6 22.4l-211.2 211.2c-28.8 28.8-76.8 28.8-105.6 0l-211.2-211.2c-12.8-12.8-12.8-32 0-44.8s32-12.8 44.8 0l211.2 211.2c3.2 3.2 6.4 3.2 6.4 3.2s3.2 0 6.4-3.2l211.2-211.2c12.8-12.8 32-12.8 44.8 0 9.6 6.4 12.8 16 12.8 22.4z" />
<glyph unicode="&#xe604;" d="M1020.8 486.4c0 83.2-57.6 156.8-134.4 176v249.6l-278.4-163.2c-118.4-60.8-246.4-92.8-380.8-96h-73.6c-86.4-9.6-150.4-80-150.4-166.4v0c0-86.4 64-156.8 150.4-166.4l73.6-3.2c131.2-3.2 262.4-35.2 380.8-96l275.2-163.2v249.6c80 22.4 137.6 92.8 137.6 179.2zM883.2 377.6v217.6c41.6-19.2 70.4-60.8 70.4-108.8s-28.8-92.8-70.4-108.8zM198.4 284.8v-233.6c0-38.4 28.8-67.2 67.2-67.2s67.2 28.8 67.2 67.2v220.8c-41.6 6.4-86.4 12.8-128 12.8h-6.4z" />
<glyph unicode="&#xe605;" d="M563.2 428.8v-179.2c0-38.4 32-70.4 70.4-70.4h179.2c38.4 0 70.4 32 70.4 70.4v179.2c0 38.4-32 70.4-70.4 70.4h-179.2c-38.4 3.2-70.4-28.8-70.4-70.4zM387.2 502.4h-179.2c-38.4 0-70.4-32-70.4-70.4v-179.2c0-38.4 32-70.4 70.4-70.4h179.2c38.4 0 70.4 32 70.4 70.4v179.2c0 38.4-32 70.4-70.4 70.4zM278.4 268.8l-73.6 76.8 22.4 22.4 48-51.2 89.6 92.8 22.4-22.4-108.8-118.4zM841.6 896c64 0 118.4-51.2 118.4-118.4v-662.4c0-64-51.2-118.4-118.4-118.4h-659.2c-64 0-118.4 51.2-118.4 118.4v662.4c0 67.2 51.2 118.4 118.4 118.4h659.2zM841.6 960h-659.2c-102.4 0-182.4-80-182.4-182.4v-662.4c0-99.2 80-179.2 182.4-179.2h662.4c99.2 0 182.4 80 182.4 182.4v659.2c-3.2 102.4-83.2 182.4-185.6 182.4v0zM425.6 604.8h-256c-19.2 0-32 12.8-32 32s12.8 32 32 32h256c19.2 0 32-12.8 32-32s-12.8-32-32-32zM851.2 604.8h-256c-19.2 0-32 12.8-32 32s12.8 32 32 32h256c19.2 0 32-12.8 32-32s-12.8-32-32-32z" />
<glyph unicode="&#xe606;" d="M928 960v0h-832c-54.4 0-96-41.6-96-96v-832c0-54.4 41.6-96 96-96h832c54.4 0 96 41.6 96 96v832c0 54.4-41.6 96-96 96zM992 32c0-35.2-28.8-64-64-64h-832c-35.2 0-64 28.8-64 64v640h960v-640zM307.2 137.6h83.2v377.6h-137.6l-9.6-70.4h64zM505.6 243.2c0-70.4 54.4-118.4 137.6-118.4 76.8 0 137.6 51.2 137.6 121.6 0 41.6-19.2 73.6-54.4 92.8 32 22.4 44.8 48 44.8 86.4 0 60.8-54.4 105.6-128 105.6s-121.6-41.6-121.6-105.6c0-35.2 12.8-60.8 44.8-80-41.6-25.6-60.8-60.8-60.8-102.4zM640 460.8c28.8 0 48-16 48-41.6 0-12.8-6.4-25.6-16-32-9.6-9.6-25.6-19.2-35.2-19.2-3.2 0-6.4 0-12.8 3.2-9.6 3.2-16 9.6-22.4 16-9.6 9.6-12.8 19.2-12.8 32 3.2 22.4 22.4 41.6 51.2 41.6zM608 288c9.6 9.6 22.4 12.8 28.8 12.8v0c9.6 0 25.6-9.6 35.2-19.2s16-22.4 16-35.2c0-25.6-22.4-44.8-54.4-44.8s-51.2 16-51.2 44.8c6.4 16 12.8 28.8 25.6 41.6z" />
<glyph unicode="&#xe607;" d="M883.2 691.2c9.6-3.2 22.4-6.4 32-6.4 60.8 0 108.8 48 108.8 108.8s-48 108.8-108.8 108.8c-60.8 0-108.8-48-108.8-108.8 0-25.6 9.6-44.8 22.4-64l-134.4-153.6c-12.8 6.4-28.8 9.6-41.6 9.6-22.4 0-41.6-6.4-57.6-16l-115.2 112c6.4 12.8 9.6 25.6 9.6 41.6 0 60.8-48 108.8-108.8 108.8s-108.8-48-108.8-108.8c3.2-19.2 6.4-38.4 16-51.2l-128-128c-16 9.6-32 12.8-51.2 12.8-60.8 0-108.8-48-108.8-108.8s48-108.8 108.8-108.8c60.8 0 108.8 48 108.8 108.8 0 16-3.2 32-12.8 48l131.2 131.2c12.8-6.4 28.8-12.8 48-12.8 22.4 0 41.6 6.4 57.6 16l115.2-115.2c-6.4-12.8-6.4-25.6-6.4-38.4 0-60.8 48-108.8 108.8-108.8s108.8 48 108.8 108.8c0 19.2-6.4 38.4-16 57.6l131.2 156.8zM915.2 835.2c22.4 0 44.8-19.2 44.8-44.8 0-22.4-19.2-44.8-44.8-44.8-22.4 0-44.8 19.2-44.8 44.8 3.2 25.6 22.4 44.8 44.8 44.8zM108.8 406.4c-25.6 0-44.8 19.2-44.8 41.6s19.2 44.8 44.8 44.8c22.4 0 44.8-19.2 44.8-44.8s-22.4-41.6-44.8-41.6zM380.8 678.4c-22.4 0-44.8 19.2-44.8 44.8s19.2 44.8 44.8 44.8c22.4 0 44.8-19.2 44.8-44.8s-19.2-44.8-44.8-44.8zM652.8 432c-22.4 0-44.8 19.2-44.8 44.8 0 22.4 19.2 44.8 44.8 44.8 22.4 0 44.8-19.2 44.8-44.8s-19.2-44.8-44.8-44.8zM32 291.2h134.4v-294.4h-134.4v294.4zM310.4 492.8h134.4v-496h-134.4v496zM870.4 492.8h134.4v-496h-134.4v496zM592 326.4h134.4v-329.6h-134.4v329.6z" />
<glyph unicode="&#xe608;" d="M364.8 121.6c-28.8 0-60.8 12.8-83.2 35.2l-272 272c-12.8 12.8-12.8 32 0 44.8s32 12.8 44.8 0l272-272c19.2-19.2 54.4-19.2 73.6 0l569.6 566.4c12.8 12.8 32 12.8 44.8 0s12.8-32 0-44.8l-566.4-569.6c-22.4-22.4-54.4-32-83.2-32z" />
<glyph unicode="&#xe609;" d="M556.8 448l425.6 425.6c12.8 12.8 12.8 32 0 44.8s-32 12.8-44.8 0l-425.6-425.6-425.6 425.6c-12.8 12.8-32 12.8-44.8 0s-12.8-32 0-44.8l425.6-425.6-425.6-425.6c-12.8-12.8-12.8-32 0-44.8 6.4-6.4 12.8-9.6 22.4-9.6s16 3.2 22.4 9.6l425.6 425.6 425.6-425.6c6.4-6.4 16-9.6 22.4-9.6s16 3.2 22.4 9.6c12.8 12.8 12.8 32 0 44.8l-425.6 425.6z" />
<glyph unicode="&#xe60a;" d="M633.6 960h-473.6c-54.4 0-96-41.6-96-96v-832c0-54.4 41.6-96 96-96h704c54.4 0 96 41.6 96 96v598.4l-326.4 329.6zM384 140.8l-86.4-86.4c-9.6-9.6-19.2-12.8-32-12.8s-22.4 3.2-32 12.8l-41.6 41.6c-12.8 12.8-12.8 32 0 44.8s32 12.8 44.8 0l28.8-28.8 73.6 73.6c12.8 12.8 32 12.8 44.8 0s12.8-32 0-44.8zM384 412.8l-86.4-86.4c-9.6-9.6-19.2-12.8-32-12.8s-22.4 3.2-32 12.8l-41.6 44.8c-12.8 12.8-12.8 32 0 44.8s32 12.8 44.8 0l28.8-28.8 73.6 73.6c12.8 12.8 32 12.8 44.8 0s12.8-35.2 0-48zM803.2 86.4h-323.2c-19.2 0-32 12.8-32 32s12.8 32 32 32h323.2c19.2 0 32-12.8 32-32s-16-32-32-32zM803.2 355.2h-323.2c-19.2 0-32 12.8-32 32s12.8 32 32 32h323.2c19.2 0 32-12.8 32-32s-16-32-32-32zM704 608c-54.4 0-96 41.6-96 64l22.4 256 294.4-297.6-220.8-22.4z" />
<glyph unicode="&#xe60b;" d="M512 960c-281.6 0-512-230.4-512-512s230.4-512 512-512 512 230.4 512 512c0 281.6-230.4 512-512 512zM400 582.4l12.8-25.6c0 0 28.8-32 0-54.4 0 0-35.2 0-41.6 9.6s-57.6 41.6-67.2 51.2c-9.6 9.6-38.4 19.2-38.4 19.2l-35.2 12.8-35.2 3.2 3.2 48-3.2 38.4-16 28.8-38.4 28.8v9.6c86.4 108.8 220.8 176 371.2 176 76.8 0 150.4-19.2 214.4-51.2v-3.2l-67.2-48-48-25.6-19.2-51.2-28.8-25.6h-99.2l-48-19.2v-35.2l-19.2-28.8-3.2-32 6.4-25.6zM656-9.6v0l-9.6 73.6c0 0-3.2 41.6-12.8 54.4-6.4 9.6-22.4 25.6-38.4 32s-28.8 6.4-35.2 19.2c-9.6 9.6-16 32-28.8 48-12.8 19.2-25.6 35.2-25.6 44.8s0 99.2 0 99.2l12.8 86.4 25.6 19.2 28.8 32 19.2 6.4 70.4-12.8h51.2l19.2-41.6 48-38.4 28.8-48 38.4-12.8h44.8l28.8-35.2 19.2-38.4 6.4-22.4c-51.2-124.8-156.8-224-291.2-265.6z" />
<glyph unicode="&#xe60c;" d="M512 960c-281.6 0-512-230.4-512-512s230.4-512 512-512 512 230.4 512 512c0 281.6-230.4 512-512 512zM544 102.4v-118.4h-70.4v115.2c-64 0-134.4 22.4-172.8 51.2l25.6 76.8c41.6-25.6 99.2-48 163.2-48 80 0 134.4 44.8 134.4 112 0 60.8-44.8 99.2-128 134.4-115.2 44.8-185.6 96-185.6 195.2 0 92.8 67.2 166.4 169.6 182.4v108.8h70.4v-108.8c67.2-3.2 115.2-19.2 147.2-38.4l-28.8-73.6c-22.4 12.8-70.4 38.4-144 38.4-86.4 0-118.4-51.2-118.4-96 0-57.6 41.6-89.6 140.8-128 115.2-48 176-105.6 176-208 0-92.8-60.8-176-179.2-195.2z" />
<glyph unicode="&#xe60d;" d="M633.6 960h-473.6c-54.4 0-96-41.6-96-96v-832c0-54.4 41.6-96 96-96h704c54.4 0 96 41.6 96 96v598.4l-326.4 329.6zM214.4 144h-16c-19.2 0-32 12.8-32 32s12.8 32 32 32h16c19.2 0 32-12.8 32-32s-12.8-32-32-32zM214.4 377.6h-16c-19.2 0-32 12.8-32 32s12.8 32 32 32h16c19.2 0 32-12.8 32-32 0-16-12.8-32-32-32zM816 144h-448c-19.2 0-32 12.8-32 32s12.8 32 32 32h451.2c19.2 0 32-12.8 32-32s-16-32-35.2-32zM816 377.6h-448c-19.2 0-32 12.8-32 32s12.8 32 32 32h451.2c19.2 0 32-12.8 32-32-3.2-16-16-32-35.2-32zM704 608c-54.4 0-96 41.6-96 64l22.4 256 294.4-297.6-220.8-22.4z" />
<glyph unicode="&#xe60e;" d="M1020.8 537.6c-38.4 246.4-249.6 422.4-492.8 422.4-25.6 0-54.4-3.2-83.2-6.4l76.8-499.2 355.2-355.2c118.4 118.4 169.6 272 144 438.4zM873.6 192l-291.2 291.2-64 412.8c3.2 0 6.4 0 9.6 0 217.6 0 396.8-156.8 428.8-368 19.2-124.8-9.6-240-83.2-336zM403.2 944c-99.2-22.4-182.4-67.2-256-140.8-198.4-198.4-201.6-521.6-3.2-720 192-192 499.2-195.2 700.8-16l-364.8 364.8-76.8 512z" />
<glyph unicode="&#xe60f;" d="M512 617.6c-92.8 0-169.6-76.8-169.6-169.6s76.8-169.6 169.6-169.6c92.8 0 169.6 76.8 169.6 169.6s-76.8 169.6-169.6 169.6zM627.2 499.2l-121.6-121.6c-6.4-6.4-16-9.6-25.6-9.6s-19.2 3.2-25.6 9.6l-57.6 57.6c-6.4 6.4-6.4 16 0 22.4s16 6.4 22.4 0l57.6-57.6 124.8 121.6c6.4 6.4 16 6.4 22.4 0s9.6-16 3.2-22.4zM1024 448c0 281.6-227.2 508.8-508.8 512 0 0 0 0-3.2 0 0 0 0 0 0 0s0 0 0 0c-281.6 0-512-230.4-512-512s230.4-512 512-512c0 0 0 0 0 0s0 0 0 0 0 0 3.2 0c281.6 3.2 508.8 230.4 508.8 512zM480 6.4c-67.2 19.2-124.8 86.4-163.2 185.6 44.8 9.6 99.2 16 163.2 19.2v-204.8zM544 3.2v204.8c67.2-3.2 121.6-9.6 166.4-19.2-38.4-96-99.2-166.4-166.4-185.6zM512 275.2c-73.6 0-150.4-6.4-217.6-22.4-16 60.8-25.6 124.8-25.6 195.2s9.6 134.4 25.6 195.2c64-16 140.8-22.4 217.6-22.4 73.6 0 150.4 6.4 217.6 22.4 16-60.8 25.6-124.8 25.6-195.2s-9.6-137.6-25.6-195.2c-64 16-140.8 22.4-217.6 22.4zM67.2 416h140.8c3.2-64 12.8-124.8 28.8-182.4-35.2-12.8-64-28.8-83.2-51.2-51.2 67.2-83.2 147.2-86.4 233.6zM150.4 710.4c19.2-19.2 48-38.4 83.2-51.2-12.8-54.4-22.4-115.2-25.6-179.2h-140.8c3.2 86.4 35.2 166.4 83.2 230.4zM710.4 704c-44.8-9.6-99.2-19.2-166.4-19.2v208c67.2-19.2 128-89.6 166.4-188.8zM480 889.6v-208c-67.2 6.4-121.6 12.8-163.2 22.4 38.4 99.2 96 169.6 163.2 185.6zM956.8 480h-140.8c-3.2 64-12.8 124.8-28.8 182.4 35.2 12.8 64 28.8 83.2 48 51.2-64 83.2-144 86.4-230.4zM819.2 416h140.8c-6.4-86.4-38.4-166.4-86.4-230.4-19.2 19.2-48 35.2-83.2 48 16 54.4 25.6 118.4 28.8 182.4zM832 761.6c-6.4-9.6-25.6-25.6-60.8-38.4-19.2 51.2-44.8 96-73.6 131.2 51.2-22.4 96-54.4 134.4-92.8zM329.6 857.6c-28.8-38.4-54.4-83.2-73.6-134.4-38.4 12.8-57.6 28.8-64 38.4 38.4 38.4 86.4 70.4 137.6 96zM192 134.4c6.4 9.6 25.6 25.6 64 38.4 19.2-51.2 44.8-96 73.6-134.4-51.2 25.6-99.2 57.6-137.6 96zM697.6 41.6c28.8 35.2 54.4 80 73.6 131.2 35.2-12.8 54.4-28.8 60.8-38.4-38.4-38.4-83.2-70.4-134.4-92.8z" />
<glyph unicode="&#xe610;" d="M841.6 896h-659.2c-99.2 0-182.4-83.2-182.4-182.4v-534.4c0-96 83.2-179.2 182.4-179.2h662.4c99.2 0 182.4 83.2 182.4 182.4v531.2c-3.2 99.2-86.4 182.4-185.6 182.4zM515.2 704c16 0 32-12.8 32-32 0-16-12.8-32-32-32-16 0-32 12.8-32 32 3.2 19.2 16 32 32 32zM291.2 761.6c48 0 89.6-38.4 89.6-89.6 0-48-38.4-89.6-89.6-89.6-48 0-89.6 38.4-89.6 89.6s41.6 89.6 89.6 89.6zM214.4 489.6c19.2 0 32-16 32-32s-16-32-32-32c-19.2 0-32 16-32 32s12.8 32 32 32zM953.6 214.4c0-76.8-60.8-137.6-137.6-137.6h-611.2c-70.4 0-128 51.2-137.6 118.4l73.6 76.8c38.4 41.6 99.2 54.4 153.6 32l28.8-12.8c64-25.6 140.8-9.6 188.8 41.6l67.2 73.6c44.8 48 115.2 57.6 172.8 25.6l204.8-115.2v-102.4z" />
<glyph unicode="&#xe611;" d="M752 480h-208v208c0 19.2-12.8 32-32 32s-32-12.8-32-32v-208h-208c-19.2 0-32-12.8-32-32s12.8-32 32-32h208v-208c0-19.2 12.8-32 32-32s32 12.8 32 32v208h208c19.2 0 32 12.8 32 32s-12.8 32-32 32z" />
<glyph unicode="&#xe612;" d="M403.2 268.8h57.6l-28.8 83.2zM928 592h-124.8l-166.4 166.4c6.4 16 9.6 32 9.6 51.2 0 73.6-60.8 134.4-134.4 134.4s-134.4-60.8-134.4-134.4c0-19.2 3.2-35.2 9.6-51.2l-166.4-166.4h-124.8c-54.4 0-96-41.6-96-96v-416c0-54.4 41.6-96 96-96h832c54.4 0 96 41.6 96 96v416c0 54.4-41.6 96-96 96zM512 880c38.4 0 70.4-32 70.4-70.4s-32-70.4-70.4-70.4c-38.4 0-70.4 32-70.4 70.4s32 70.4 70.4 70.4zM428.8 707.2c22.4-19.2 51.2-32 83.2-32s60.8 12.8 83.2 32l115.2-115.2h-400l118.4 115.2zM275.2 204.8c-12.8-9.6-35.2-16-60.8-16s-48 6.4-60.8 16c-16 9.6-22.4 28.8-22.4 48h41.6c0-12.8 6.4-19.2 12.8-25.6s19.2-9.6 32-9.6c12.8 0 22.4 3.2 28.8 6.4 6.4 9.6 9.6 16 9.6 25.6 0 12.8-19.2 22.4-54.4 28.8v0h-3.2c-19.2 3.2-32 9.6-41.6 12.8-6.4 3.2-12.8 9.6-16 19.2-3.2 6.4-6.4 16-6.4 25.6 0 19.2 6.4 32 19.2 44.8 12.8 9.6 32 16 57.6 16 22.4 0 41.6-6.4 54.4-16 16-9.6 22.4-25.6 22.4-44.8h-22.4c-9.6 0-16 3.2-19.2 12.8-3.2 3.2-3.2 6.4-9.6 9.6-6.4 6.4-16 6.4-28.8 6.4s-19.2-3.2-25.6-6.4c-6.4-3.2-9.6-9.6-9.6-19.2s12.8-19.2 35.2-22.4c6.4-3.2 12.8-3.2 16-3.2 6.4-3.2 12.8-3.2 19.2-6.4 6.4 0 9.6-3.2 12.8-3.2 6.4-3.2 9.6-3.2 16-6.4s12.8-9.6 19.2-19.2c3.2-9.6 6.4-16 6.4-25.6 0-19.2-9.6-35.2-22.4-48zM483.2 195.2l-12.8 41.6h-80l-12.8-41.6h-44.8l67.2 185.6c3.2 9.6 9.6 12.8 19.2 12.8h32l73.6-198.4h-41.6zM710.4 195.2h-140.8v176c0 6.4 3.2 9.6 6.4 16 3.2 3.2 9.6 6.4 16 6.4h19.2v-160h99.2v-38.4zM892.8 358.4h-105.6v-41.6h80v-12.8c0-6.4-3.2-9.6-6.4-16-3.2-3.2-9.6-6.4-16-6.4h-57.6v-51.2h105.6v-35.2h-147.2v176c0 6.4 3.2 9.6 6.4 16 3.2 3.2 9.6 6.4 16 6.4h124.8v-35.2z" />
<glyph unicode="&#xe613;" d="M867.2 780.8h-710.4l-156.8-201.6c0-57.6 12.8-115.2 89.6-115.2 57.6 0 115.2 44.8 115.2 44.8v0c0 0 44.8-70.4 102.4-70.4s102.4 70.4 102.4 70.4v0c0 0 44.8-70.4 102.4-70.4s102.4 70.4 102.4 70.4v0c0 0 44.8-70.4 102.4-70.4s102.4 70.4 102.4 70.4v0c0 0 51.2-54.4 108.8-54.4s96 35.2 96 92.8l-156.8 233.6zM192 864h640c19.2 0 32 12.8 32 32s-12.8 32-32 32h-640c-19.2 0-32-12.8-32-32s12.8-32 32-32zM928 352c0 0 0 0 0 0-19.2 0-32-16-32-32v-214.4c0-41.6-12.8-54.4-35.2-64-28.8-9.6-73.6-9.6-121.6-9.6h-57.6v182.4c0 51.2-41.6 44.8-89.6 44.8h-153.6c-51.2 0-89.6 3.2-89.6-44.8v-182.4h-64c-48 0-92.8 0-121.6 9.6-22.4 9.6-35.2 22.4-35.2 64v214.4c0 19.2-16 32-32 32 0 0 0 0 0 0-19.2 0-32-16-32-32v-214.4c0-60.8 25.6-102.4 76.8-121.6 38.4-16 89.6-16 144-16h451.2c3.2 0 3.2 0 6.4 0 51.2 0 102.4 0 140.8 16 51.2 19.2 76.8 60.8 76.8 121.6v214.4c0 19.2-16 32-32 32z" />
<glyph unicode="&#xe614;" d="M208 67.2h128c19.2 0 32 12.8 32 32v160h-192v-160c0-16 12.8-32 32-32zM422.4 99.2c0-19.2 12.8-32 32-32h128c19.2 0 32 12.8 32 32v160h-192v-160zM656 99.2c0-19.2 12.8-32 32-32h128c19.2 0 32 12.8 32 32v160h-192v-160zM252.8 358.4c-9.6 0-16 3.2-19.2 6.4-6.4 3.2-9.6 6.4-9.6 16h-25.6c0-12.8 6.4-25.6 16-32s22.4-9.6 38.4-9.6c16 0 28.8 3.2 38.4 9.6s12.8 19.2 12.8 32c0 6.4 0 12.8-3.2 16s-6.4 9.6-12.8 12.8c-3.2 0-6.4 3.2-9.6 3.2s-3.2 0-9.6 3.2-9.6 0-12.8 0c-3.2 0-6.4 0-9.6 3.2-12.8 3.2-22.4 9.6-22.4 16s3.2 9.6 6.4 12.8c3.2 3.2 9.6 3.2 16 3.2s12.8-3.2 19.2-6.4c3.2-3.2 3.2-3.2 6.4-6.4 3.2-6.4 6.4-6.4 12.8-6.4h16c0 12.8-6.4 22.4-12.8 28.8-9.6 6.4-19.2 9.6-35.2 9.6s-28.8-3.2-38.4-9.6c-9.6-6.4-12.8-16-12.8-28.8 0-6.4 0-12.8 3.2-16 3.2-6.4 6.4-9.6 9.6-12.8s12.8-6.4 25.6-9.6h3.2c22.4-6.4 35.2-12.8 35.2-19.2s-3.2-9.6-6.4-12.8-12.8-3.2-19.2-3.2zM364.8 339.2h25.6v105.6h38.4v22.4h-89.6c-3.2 0-6.4 0-9.6-3.2s-3.2-6.4-3.2-9.6v-9.6h38.4v-105.6zM515.2 336c19.2 0 35.2 6.4 44.8 19.2 12.8 12.8 16 28.8 16 48s-6.4 38.4-16 51.2c-12.8 12.8-28.8 19.2-44.8 19.2-19.2 0-35.2-6.4-44.8-19.2s-16-28.8-16-51.2 6.4-38.4 16-48c9.6-12.8 22.4-19.2 44.8-19.2zM486.4 438.4c6.4 6.4 16 12.8 25.6 12.8 12.8 0 19.2-3.2 25.6-12.8s9.6-19.2 9.6-32-3.2-25.6-9.6-32c-6.4-6.4-16-12.8-25.6-12.8-12.8 0-19.2 3.2-25.6 12.8-6.4 6.4-9.6 19.2-9.6 32s3.2 22.4 9.6 32zM627.2 390.4h28.8c6.4 0 12.8 0 16-3.2s3.2-9.6 3.2-16v-12.8c0 0 0-3.2 0-9.6 0-3.2 0-6.4 3.2-6.4h28.8c-3.2 0-3.2 3.2-3.2 9.6 0 0 0 3.2 0 6.4s0 3.2 0 6.4v16c0 9.6-3.2 16-3.2 19.2-3.2 3.2-6.4 6.4-12.8 9.6 6.4 3.2 12.8 6.4 12.8 9.6 3.2 6.4 6.4 12.8 6.4 19.2 0 12.8-3.2 22.4-9.6 28.8s-16 9.6-32 9.6h-48c-3.2 0-6.4 0-9.6-3.2s-3.2-6.4-3.2-9.6v-115.2h25.6v41.6zM627.2 444.8h32c6.4 0 9.6 0 12.8-3.2s6.4-6.4 6.4-12.8-3.2-9.6-6.4-12.8-9.6-3.2-16-3.2h-32v32zM825.6 361.6h-67.2v32h35.2c3.2 0 6.4 0 9.6 3.2s3.2 6.4 3.2 9.6v9.6h-51.2v28.8h67.2v22.4h-80c-3.2 0-6.4 0-9.6-3.2s-3.2-6.4-3.2-9.6v-115.2h92.8v22.4zM1024 588.8l-454.4 339.2c-35.2 25.6-80 25.6-115.2 0l-454.4-339.2h64v-544c0-54.4 41.6-96 96-96h704c54.4 0 96 41.6 96 96v544h64zM896 44.8c0-19.2-12.8-32-32-32h-704c-19.2 0-32 12.8-32 32v512h768v-512z" />
<glyph unicode="&#xe615;" d="M992 316.8h-150.4v211.2h-297.6v51.2h134.4c19.2 0 32 12.8 32 32v182.4c0 19.2-12.8 32-32 32h-361.6c-19.2 0-32-12.8-32-32v-182.4c0-19.2 12.8-32 32-32h163.2v-51.2h-297.6v-211.2h-150.4c-19.2 0-32-12.8-32-32v-182.4c0-19.2 12.8-32 32-32h361.6c19.2 0 32 12.8 32 32v182.4c0 19.2-12.8 32-32 32h-147.2v147.2h534.4v-147.2h-150.4c-19.2 0-32-12.8-32-32v-182.4c0-19.2 12.8-32 32-32h361.6c19.2 0 32 12.8 32 32v182.4c0 16-12.8 32-32 32zM316.8 793.6h361.6v-182.4h-361.6v182.4z" />
<glyph unicode="&#xe616;" d="M806.4 380.8c-115.2 0-211.2-92.8-211.2-211.2s92.8-211.2 211.2-211.2 211.2 92.8 211.2 211.2-92.8 211.2-211.2 211.2zM761.6 224l3.2-9.6c0 0 12.8-12.8 0-22.4 0 0-12.8 0-16 3.2s-22.4 16-28.8 22.4c-3.2 3.2-16 6.4-16 6.4l-16 6.4h-12.8v35.2l-3.2 12.8-16 12.8v3.2c35.2 44.8 89.6 73.6 153.6 73.6 32 0 60.8-6.4 89.6-22.4v0l-28.8-19.2-19.2-9.6-6.4-22.4-12.8-9.6h-41.6l-22.4-9.6v-16l-6.4-12.8-3.2-12.8 3.2-9.6zM867.2-19.2v0l-3.2 32c0 0-3.2 16-3.2 22.4-3.2 3.2-9.6 9.6-16 12.8s-12.8 3.2-16 6.4c-3.2 3.2-6.4 12.8-12.8 19.2-3.2 6.4-9.6 16-9.6 19.2s0 41.6 0 41.6l3.2 35.2 9.6 6.4 12.8 16 9.6 3.2 28.8-6.4h19.2l9.6-16 19.2-16 12.8-19.2 16-6.4h19.2l12.8-16 6.4-16 3.2-9.6c-22.4-51.2-67.2-92.8-121.6-108.8zM595.2 169.6c0 19.2 3.2 35.2 6.4 51.2-3.2 0-3.2 0-6.4 3.2 0 0 0 0 0 0s0 0 0 0c-9.6 3.2-16 3.2-25.6 6.4-3.2 0-6.4 0-6.4 0-9.6 0-19.2 3.2-28.8 3.2 0 0 0 0 0 0v0h-76.8v35.2c44.8 12.8 80 41.6 102.4 83.2l48 89.6c6.4 12.8 12.8 25.6 16 38.4 32 12.8 54.4 41.6 54.4 76.8 0 32-19.2 60.8-48 73.6v105.6c0 92.8-73.6 166.4-166.4 166.4h-185.6c-92.8 0-166.4-73.6-166.4-166.4v-118.4c-28.8-12.8-48-41.6-48-73.6 0-35.2 25.6-67.2 57.6-76.8 3.2-9.6 6.4-19.2 12.8-28.8l57.6-92.8c22.4-35.2 54.4-60.8 92.8-73.6v-35.2h-76.8c0 0 0 0 0 0-9.6 0-19.2 0-28.8-3.2-3.2 0-6.4 0-6.4 0-9.6 0-16-3.2-25.6-6.4 0 0 0 0 0 0s0 0 0 0c-86.4-28.8-147.2-108.8-147.2-201.6v-16h668.8c-44.8 38.4-73.6 96-73.6 160z" />
<glyph unicode="&#xe617;" d="M179.2 518.4c6.4-12.8 12.8-25.6 22.4-38.4l41.6-60.8c32-44.8 86.4-70.4 144-70.4s112 28.8 144 73.6l32 48c12.8 16 19.2 32 28.8 51.2 25.6 12.8 44.8 38.4 44.8 70.4 0 22.4-9.6 44.8-28.8 57.6-3.2 25.6-9.6 48-22.4 73.6l-16 35.2c-32 70.4-108.8 118.4-192 118.4-92.8 0-172.8-54.4-201.6-134.4l-9.6-32c-6.4-22.4-9.6-41.6-12.8-64-16-12.8-25.6-32-25.6-57.6 0-32 22.4-60.8 51.2-70.4zM816 441.6c-115.2 0-211.2-92.8-211.2-211.2s92.8-211.2 211.2-211.2c115.2 0 211.2 92.8 211.2 211.2s-96 211.2-211.2 211.2zM723.2 348.8h182.4c3.2 0 3.2-3.2 3.2-3.2s-3.2-3.2-3.2-3.2h-182.4c-3.2 0-3.2 3.2-3.2 3.2s3.2 3.2 3.2 3.2zM915.2 118.4c-9.6-3.2-22.4-3.2-35.2-3.2 0 0 0 0-3.2 0h-121.6c-16 0-28.8 0-38.4 3.2-12.8 3.2-19.2 12.8-19.2 28.8v57.6c0 3.2 3.2 3.2 3.2 3.2s0 0 0 0c3.2 0 3.2-3.2 3.2-3.2v-57.6c0-16 6.4-19.2 12.8-22.4 9.6-3.2 22.4-3.2 35.2-3.2h19.2v54.4c0 12.8 9.6 12.8 25.6 12.8h41.6c12.8 0 25.6 0 25.6-12.8v-54.4h12.8c12.8 0 25.6 0 35.2 3.2 6.4 3.2 12.8 6.4 12.8 22.4v57.6c0 3.2 3.2 3.2 3.2 3.2s0 0 0 0c3.2 0 3.2-3.2 3.2-3.2v-57.6c0-16-6.4-25.6-16-28.8zM928 240c-16 0-28.8 12.8-28.8 12.8v0c0 0-12.8-19.2-28.8-19.2s-28.8 22.4-28.8 22.4v0c0 0-12.8-19.2-28.8-19.2s-28.8 19.2-28.8 19.2v0c0 0-12.8-19.2-28.8-19.2s-28.8 19.2-28.8 19.2v0c0 0-16-12.8-32-12.8-19.2 0-22.4 16-22.4 32l41.6 54.4h192l41.6-64c6.4-16-3.2-25.6-19.2-25.6zM601.6 230.4c0 19.2 3.2 35.2 6.4 54.4-44.8 12.8-108.8 22.4-128 48l-67.2-163.2 6.4 64-28.8 41.6c9.6 6.4 19.2 19.2 35.2 38.4v0c-9.6-3.2-25.6-6.4-41.6-6.4s-32 3.2-41.6 6.4v0c12.8-16 22.4-28.8 32-38.4l-32-44.8 9.6-54.4-64 153.6c-57.6-73.6-288-12.8-288-268.8h691.2c-54.4 38.4-89.6 102.4-89.6 169.6z" />
<glyph unicode="&#xe618;" d="M220.8 339.2l-99.2-38.4c-6.4-3.2-12.8-6.4-16-12.8l-70.4-112c-25.6-44.8 3.2-102.4 57.6-102.4h208l-38.4 236.8c0 25.6-22.4 38.4-41.6 28.8zM416 297.6c0 16-12.8 28.8-28.8 28.8h-16c-16 0-28.8-12.8-28.8-28.8 0-9.6 6.4-19.2 12.8-22.4l-35.2-121.6 60.8-86.4 60.8 86.4-38.4 121.6c6.4 3.2 12.8 12.8 12.8 22.4zM140.8 540.8c28.8-115.2 121.6-192 236.8-192s208 76.8 236.8 192c28.8 16 48 48 48 83.2 0 38.4-22.4 73.6-54.4 86.4-35.2 105.6-121.6 172.8-233.6 172.8s-195.2-67.2-227.2-172.8c-32-12.8-54.4-48-54.4-86.4s19.2-70.4 48-83.2zM176 649.6l22.4 3.2 6.4 22.4c19.2 89.6 86.4 144 172.8 144s153.6-54.4 176-144l6.4-22.4 22.4-3.2c9.6 0 19.2-12.8 19.2-28.8s-9.6-25.6-16-28.8l-22.4-3.2-3.2-22.4c-19.2-96-86.4-156.8-179.2-156.8s-160 60.8-179.2 156.8l-3.2 22.4-22.4 3.2c-9.6 0-16 12.8-16 28.8-3.2 19.2 6.4 28.8 16 28.8zM822.4 432c-83.2 0-156.8-48-188.8-121.6-3.2 3.2-6.4 3.2-9.6 6.4l-80 28.8c-19.2 6.4-41.6-6.4-44.8-25.6l-38.4-243.2h204.8c3.2 0 3.2 0 6.4 0 38.4-41.6 92.8-67.2 153.6-67.2 115.2 0 211.2 92.8 211.2 211.2-3.2 118.4-99.2 211.2-214.4 211.2zM963.2 249.6c-6.4 0-12.8 0-16 3.2l-41.6-41.6c6.4-6.4 9.6-16 9.6-25.6 0-22.4-19.2-41.6-41.6-41.6s-41.6 19.2-41.6 41.6c0 6.4 3.2 12.8 3.2 16l-32 32c-3.2-6.4-12.8-9.6-19.2-9.6s-12.8 3.2-19.2 6.4l-22.4-22.4c3.2-6.4 6.4-12.8 6.4-19.2 0-22.4-19.2-41.6-41.6-41.6s-41.6 19.2-41.6 41.6c0 22.4 19.2 41.6 41.6 41.6 9.6 0 16-3.2 22.4-6.4l22.4 22.4c-3.2 6.4-6.4 12.8-6.4 22.4 0 22.4 19.2 41.6 41.6 41.6s41.6-19.2 41.6-41.6c0-6.4-3.2-12.8-6.4-19.2l32-32c6.4 6.4 16 9.6 25.6 9.6 6.4 0 9.6 0 12.8-3.2l44.8 44.8c-6.4 6.4-9.6 16-9.6 25.6 0 22.4 19.2 41.6 41.6 41.6s41.6-19.2 41.6-41.6c-6.4-28.8-25.6-44.8-48-44.8z" />
<glyph unicode="&#xe619;" d="M508.8 211.2c208 0 374.4 166.4 374.4 374.4s-166.4 374.4-374.4 374.4c-208 0-374.4-166.4-374.4-374.4s166.4-374.4 374.4-374.4zM342.4 441.6c6.4 6.4 16 6.4 22.4 0 80-80 211.2-80 291.2 0 6.4 6.4 16 6.4 22.4 0s6.4-16 0-22.4c-48-48-108.8-70.4-169.6-70.4s-121.6 22.4-169.6 70.4c-3.2 6.4-3.2 16 3.2 22.4zM1017.6-22.4c-19.2 80-99.2 176-211.2 214.4-70.4-54.4-156.8-89.6-249.6-96h-96c-92.8 9.6-179.2 41.6-249.6 96-108.8-38.4-185.6-134.4-204.8-214.4-6.4-19.2 9.6-41.6 32-41.6h947.2c19.2 0 35.2 19.2 32 41.6z" />
<glyph unicode="&#xe61a;" d="M841.6 883.2h-659.2c-102.4 0-182.4-80-182.4-182.4v-368c0-99.2 80-182.4 182.4-182.4h297.6v-108.8h-249.6v-64h563.2v64h-249.6v108.8h297.6c99.2 0 182.4 80 182.4 182.4v368c0 102.4-80 182.4-182.4 182.4zM960 336c0-64-51.2-118.4-118.4-118.4h-659.2c-64 0-118.4 51.2-118.4 118.4v364.8c0 64 51.2 118.4 118.4 118.4h662.4c64 0 118.4-51.2 118.4-118.4v-364.8zM416 406.4h-256c-19.2 0-32-12.8-32-32v-32c0-19.2 12.8-32 32-32h256c19.2 0 32 12.8 32 32v32c0 19.2-12.8 32-32 32zM864 406.4h-256c-19.2 0-32-12.8-32-32v-32c0-19.2 12.8-32 32-32h256c19.2 0 32 12.8 32 32v32c0 19.2-12.8 32-32 32zM864 716.8h-704c-19.2 0-32-12.8-32-32v-192c0-19.2 12.8-32 32-32h704c19.2 0 32 12.8 32 32v192c0 19.2-12.8 32-32 32z" />
<glyph unicode="&#xe61b;" d="M960 412.8c0-90.133-73.067-163.2-163.2-163.2s-163.2 73.067-163.2 163.2c0 90.133 73.067 163.2 163.2 163.2s163.2-73.067 163.2-163.2zM588.8 540.8c0-137.85-111.75-249.6-249.6-249.6s-249.6 111.75-249.6 249.6c0 137.85 111.75 249.6 249.6 249.6s249.6-111.75 249.6-249.6zM537.6 278.4c-48-35.2-102.4-57.6-166.4-64h-64c-60.8 6.4-118.4 28.8-166.4 64-86.4-32-140.8-112-140.8-169.6h681.6c0 28.8-12.8 60.8-35.2 92.8-25.6 32-64 60.8-108.8 76.8zM928 217.6c-32-22.4-67.2-38.4-108.8-41.6h-41.6c-28.8 3.2-57.6 12.8-83.2 25.6 16-28.8 28.8-60.8 32-92.8h294.4c0 35.2-35.2 89.6-92.8 108.8z" />
<glyph unicode="&#xe61c;" d="M377.6 835.2c-153.6 0-275.2-124.8-275.2-275.2s124.8-275.2 275.2-275.2 275.2 124.8 275.2 275.2-121.6 275.2-275.2 275.2zM508.8 435.2c-35.2-35.2-80-51.2-128-51.2s-92.8 19.2-128 51.2c-6.4 6.4-6.4 16 0 22.4s16 6.4 22.4 0c28.8-28.8 64-44.8 105.6-44.8s76.8 16 105.6 44.8c6.4 6.4 16 6.4 22.4 0s6.4-16 0-22.4zM886.4 236.8c0-26.51-21.49-48-48-48s-48 21.49-48 48c0 26.51 21.49 48 48 48s48-21.49 48-48zM838.4 412.8c-96 0-176-80-176-176s80-176 176-176c96 0 176 80 176 176s-76.8 176-176 176zM963.2 230.4c0-3.2-3.2-6.4-6.4-6.4l-22.4-3.2c-3.2 0-6.4-3.2-9.6-6.4 0 0 0 0 0 0 0-3.2 0-9.6 3.2-9.6l16-12.8c3.2-3.2 3.2-6.4 3.2-9.6l-6.4-9.6c-3.2-3.2-6.4-3.2-9.6-3.2l-19.2 9.6c-3.2 3.2-9.6 0-9.6-3.2 0 0 0 0 0 0-3.2-3.2-3.2-6.4-3.2-9.6l9.6-19.2c0-3.2 0-6.4-3.2-9.6l-9.6-9.6c-3.2-3.2-6.4 0-9.6 3.2l-12.8 16c-3.2 3.2-6.4 3.2-9.6 3.2 0 0 0 0 0 0-3.2 0-6.4-3.2-6.4-9.6l-3.2-22.4c0-3.2-3.2-6.4-6.4-6.4h-9.6c-3.2 0-6.4 3.2-6.4 6.4l-3.2 22.4c0 3.2-3.2 6.4-6.4 9.6 0 0 0 0 0 0-3.2 0-9.6 0-9.6-3.2l-22.4-19.2c-3.2-3.2-6.4-3.2-9.6-3.2l-9.6 6.4c-3.2 3.2-3.2 6.4-3.2 9.6l9.6 19.2c3.2 3.2 0 9.6-3.2 9.6 0 0 0 0 0 0-3.2 3.2-6.4 3.2-9.6 3.2l-19.2-9.6c-3.2 0-6.4 0-9.6 3.2l-6.4 9.6c-3.2 3.2 0 6.4 3.2 9.6l16 12.8c3.2 3.2 3.2 6.4 3.2 9.6 0 0 0 0 0 0 0 3.2-3.2 6.4-9.6 6.4l-19.2 9.6c-3.2 0-6.4 3.2-6.4 6.4v9.6c0 3.2 3.2 6.4 6.4 6.4l22.4 3.2c3.2 0 6.4 3.2 9.6 6.4 0 0 0 0 0 0 0 3.2 0 9.6-3.2 9.6l-16 12.8c-3.2 3.2-3.2 6.4-3.2 9.6l6.4 9.6c3.2 3.2 6.4 3.2 9.6 3.2l19.2-9.6c3.2-3.2 9.6 0 9.6 3.2 0 0 0 0 0 0 3.2 3.2 3.2 6.4 3.2 9.6l-9.6 19.2c0 3.2 0 6.4 3.2 9.6l9.6 6.4c3.2 3.2 6.4 0 9.6-3.2l12.8-16c3.2-3.2 6.4-3.2 9.6-3.2 0 0 0 0 0 0 3.2 0 6.4 3.2 6.4 9.6l3.2 22.4c0 3.2 3.2 6.4 6.4 6.4h9.6c3.2 0 6.4-3.2 6.4-6.4l3.2-22.4c0-3.2 3.2-6.4 6.4-9.6 0 0 0 0 0 0 3.2 0 9.6 0 9.6 3.2l12.8 16c3.2 3.2 6.4 3.2 9.6 3.2l9.6-6.4c3.2-3.2 3.2-6.4 3.2-9.6l-9.6-19.2c-3.2-3.2 0-9.6 3.2-9.6 0 0 0 0 0 0 3.2-3.2 6.4-3.2 9.6-3.2l19.2 9.6c3.2 0 6.4 0 9.6-3.2l6.4-9.6c3.2-3.2 0-6.4-3.2-9.6l-9.6-9.6c-3.2-3.2-3.2-6.4-3.2-9.6 0 0 0 0 0 0 0-3.2 3.2-6.4 9.6-6.4l22.4-3.2c3.2 0 6.4-3.2 6.4-6.4v-12.8zM620.8 236.8c0 6.4 0 16 0 22.4-9.6 3.2-19.2 9.6-25.6 12.8-51.2-38.4-115.2-64-182.4-70.4h-70.4c-67.2 6.4-131.2 32-182.4 70.4-80-28.8-134.4-99.2-150.4-156.8-3.2-19.2 9.6-32 22.4-32h652.8c-38.4 38.4-64 92.8-64 153.6z" />
<glyph unicode="&#xe61d;" d="M499.2 444.8c0-60.089-48.711-108.8-108.8-108.8s-108.8 48.711-108.8 108.8c0 60.089 48.711 108.8 108.8 108.8s108.8-48.711 108.8-108.8zM896 246.4c0-26.51-21.49-48-48-48s-48 21.49-48 48c0 26.51 21.49 48 48 48s48-21.49 48-48zM848 422.4c-60.8 0-118.4-32-147.2-80l-16 9.6c-9.6 6.4-16 19.2-12.8 32 0 0 0 0 0 0 3.2 12.8 12.8 22.4 25.6 25.6l67.2 12.8c12.8 3.2 22.4 12.8 19.2 25.6l-3.2 32c0 12.8-9.6 22.4-22.4 22.4l-67.2 9.6c-12.8 0-22.4 9.6-28.8 22.4 0 0 0 0 0 0-3.2 12.8 0 25.6 9.6 35.2l54.4 44.8c9.6 6.4 12.8 22.4 3.2 32l-19.2 25.6c-6.4 9.6-19.2 12.8-32 9.6l-60.8-28.8c-12.8-6.4-25.6-3.2-35.2 6.4 0 0 0 0 0 0-9.6 9.6-12.8 22.4-9.6 35.2l22.4 64c3.2 12.8 0 25.6-12.8 28.8l-28.8 16c-9.6 6.4-25.6 3.2-32-9.6l-38.4-57.6c-6.4-9.6-19.2-16-32-12.8 0 0 0 0 0 0-12.8 3.2-22.4 12.8-25.6 25.6l-12.8 67.2c-3.2 12.8-12.8 22.4-25.6 19.2l-32-3.2c-12.8 0-22.4-9.6-22.4-22.4l-6.4-70.4c0-12.8-9.6-22.4-22.4-28.8 0 0 0 0 0 0-12.8-3.2-25.6 0-35.2 9.6l-44.8 57.6c-6.4 9.6-22.4 12.8-32 6.4l-28.8-19.2c-9.6-6.4-12.8-19.2-9.6-32l28.8-64c9.6-9.6 6.4-22.4-3.2-32 0 0 0 0 0 0-9.6-9.6-22.4-12.8-35.2-9.6l-64 22.4c-12.8 3.2-25.6 0-28.8-12.8l-16-28.8c-6.4-9.6-3.2-25.6 9.6-32l57.6-38.4c9.6-6.4 16-19.2 12.8-32 0 0 0 0 0 0-3.2-12.8-12.8-22.4-25.6-25.6l-67.2-12.8c-16-3.2-22.4-12.8-22.4-25.6l3.2-32c0-12.8 9.6-22.4 22.4-22.4l70.4-6.4c12.8 0 22.4-9.6 28.8-22.4 0 0 0 0 0 0 3.2-12.8 0-25.6-9.6-35.2l-54.4-44.8c-9.6-6.4-12.8-22.4-3.2-32l19.2-28.8c6.4-9.6 19.2-12.8 32-9.6l64 28.8c12.8 6.4 25.6 3.2 35.2-6.4 0 0 0 0 0 0 9.6-9.6 12.8-22.4 9.6-35.2l-22.4-64c-3.2-12.8 0-25.6 12.8-28.8l28.8-16c9.6-6.4 25.6-3.2 32 9.6l38.4 57.6c6.4 9.6 19.2 16 32 12.8 0 0 0 0 0 0 12.8-3.2 22.4-12.8 25.6-25.6l12.8-67.2c3.2-12.8 12.8-22.4 25.6-19.2l32 3.2c12.8 0 22.4 9.6 22.4 22.4l6.4 70.4c0 12.8 9.6 22.4 22.4 28.8 0 0 0 0 0 0 12.8 3.2 25.6 0 35.2-9.6l44.8-54.4c6.4-9.6 22.4-12.8 32-3.2l28.8 19.2c9.6 6.4 12.8 19.2 9.6 32l-28.8 64c-6.4 12.8-3.2 25.6 6.4 35.2 0 0 0 0 0 0 9.6 9.6 22.4 12.8 35.2 9.6 0 0 16-3.2 35.2-3.2 0-3.2 0-9.6 0-12.8 0-96 80-176 176-176s176 80 176 176c-12.8 86.4-92.8 166.4-188.8 166.4zM403.2 201.6c-134.4-6.4-249.6 96-256 230.4s96 249.6 230.4 256c134.4 6.4 249.6-96 256-230.4 9.6-134.4-92.8-249.6-230.4-256zM972.8 240c0-3.2-3.2-6.4-6.4-6.4l-22.4-3.2c-3.2 0-6.4-3.2-9.6-6.4 0 0 0 0 0 0 0-3.2 0-9.6 3.2-9.6l16-12.8c3.2-3.2 3.2-6.4 3.2-9.6l-6.4-9.6c-3.2-3.2-6.4-3.2-9.6-3.2l-19.2 9.6c-3.2 3.2-9.6 0-9.6-3.2 0 0 0 0 0 0-3.2-3.2-3.2-6.4-3.2-9.6l9.6-19.2c0-3.2 0-6.4-3.2-9.6l-9.6-6.4c-3.2-3.2-6.4 0-9.6 3.2l-12.8 16c-3.2 0-6.4 0-12.8 0 0 0 0 0 0 0-3.2 0-6.4-3.2-6.4-9.6l-3.2-22.4c0-3.2-3.2-6.4-6.4-6.4h-9.6c-3.2 0-6.4 3.2-6.4 6.4l-6.4 22.4c0 3.2-3.2 6.4-6.4 9.6 0 0 0 0 0 0-3.2 0-9.6 0-9.6-3.2l-16-16c-3.2-3.2-6.4-3.2-9.6-3.2l-9.6 6.4c-3.2 3.2-3.2 6.4-3.2 9.6l9.6 19.2c3.2 3.2 0 9.6-3.2 9.6 0 0 0 0 0 0-3.2 3.2-6.4 3.2-9.6 3.2l-19.2-9.6c-3.2 0-6.4 0-9.6 3.2l-6.4 9.6c-3.2 3.2 0 6.4 3.2 9.6l16 12.8c3.2 3.2 3.2 6.4 3.2 9.6 0 0 0 0 0 0 0 3.2-3.2 6.4-9.6 6.4l-22.4 3.2c-3.2 0-6.4 3.2-6.4 6.4v9.6c0 3.2 3.2 6.4 6.4 6.4l22.4 3.2c3.2 0 6.4 3.2 9.6 6.4 0 0 0 0 0 0 0 3.2 0 9.6-3.2 9.6l-16 12.8c-3.2 3.2-3.2 6.4-3.2 9.6l6.4 9.6c3.2 3.2 6.4 3.2 9.6 3.2l19.2-9.6c3.2-3.2 9.6 0 9.6 3.2 0 0 0 0 0 0 3.2 3.2 3.2 6.4 3.2 9.6l-9.6 19.2c0 3.2 0 6.4 3.2 9.6l9.6 6.4c3.2 3.2 6.4 0 9.6-3.2l12.8-16c3.2-3.2 6.4-3.2 9.6-3.2 0 0 0 0 0 0 3.2 0 6.4 3.2 6.4 9.6l3.2 22.4c0 3.2 3.2 6.4 6.4 6.4h9.6c3.2 0 6.4-3.2 6.4-6.4l3.2-22.4c0-3.2 3.2-6.4 6.4-9.6 0 0 0 0 0 0 3.2 0 9.6 0 9.6 3.2l12.8 16c3.2 3.2 6.4 3.2 9.6 3.2l9.6-6.4c3.2-3.2 3.2-6.4 3.2-9.6v-9.6c-3.2-3.2 0-9.6 3.2-9.6 0 0 0 0 0 0 3.2-3.2 6.4-3.2 9.6-3.2l19.2 9.6c3.2 0 6.4 0 9.6-3.2l6.4-9.6c3.2-3.2 0-6.4-3.2-9.6l-16-12.8c-3.2-3.2-3.2-6.4-3.2-9.6 0 0 0 0 0 0 0-3.2 3.2-6.4 9.6-6.4l22.4-3.2c3.2 0 6.4-3.2 6.4-6.4v-16z" />
</font>
</defs>
</svg>
